<svg width="63" height="62" viewBox="0 0 63 62" fill="none" xmlns="http://www.w3.org/2000/svg">
<rect x="0.971436" width="61.1143" height="61.1143" rx="8" fill="#DDD1FF"/>
<path d="M14.1329 45.6815H18.6679C19.7141 45.6815 20.4988 45.9076 21.0219 46.3598C21.545 46.8119 21.8065 47.4414 21.8065 48.2483C21.8065 48.7004 21.74 49.0772 21.607 49.3787C21.474 49.6713 21.3189 49.9107 21.1416 50.0968C20.9642 50.2742 20.7869 50.4027 20.6096 50.4825C20.4411 50.5623 20.317 50.6155 20.2372 50.6421V50.6687C20.3791 50.6864 20.5298 50.7308 20.6894 50.8017C20.8578 50.8726 21.013 50.9879 21.1549 51.1475C21.2967 51.2982 21.412 51.4977 21.5006 51.746C21.5982 51.9942 21.6469 52.3045 21.6469 52.6769C21.6469 53.2355 21.6868 53.7453 21.7666 54.2063C21.8553 54.6585 21.9883 54.9821 22.1656 55.1772H20.3835C20.2594 54.9732 20.184 54.7471 20.1574 54.4989C20.1397 54.2506 20.1308 54.0113 20.1308 53.7807C20.1308 53.3463 20.1042 52.9739 20.051 52.6636C19.9978 52.3444 19.9003 52.0829 19.7584 51.8789C19.6166 51.6662 19.4215 51.511 19.1733 51.4135C18.9339 51.3159 18.6236 51.2672 18.2423 51.2672H15.7953V55.1772H14.1329V45.6815ZM15.7953 50.0038H18.5216C19.0536 50.0038 19.457 49.8796 19.7318 49.6314C20.0067 49.3743 20.1441 48.993 20.1441 48.4876C20.1441 48.1862 20.0998 47.9424 20.0111 47.7562C19.9225 47.5611 19.7983 47.4104 19.6387 47.304C19.488 47.1976 19.3107 47.1267 19.1068 47.0912C18.9117 47.0558 18.7078 47.038 18.495 47.038H15.7953V50.0038ZM28.5705 51.1342C28.5528 50.8948 28.4996 50.6643 28.4109 50.4426C28.3311 50.221 28.2159 50.0304 28.0652 49.8708C27.9233 49.7023 27.746 49.5693 27.5332 49.4718C27.3293 49.3654 27.0987 49.3122 26.8416 49.3122C26.5756 49.3122 26.3318 49.361 26.1102 49.4585C25.8974 49.5471 25.7112 49.6757 25.5516 49.8442C25.4009 50.0038 25.2768 50.1944 25.1792 50.416C25.0906 50.6377 25.0418 50.8771 25.0329 51.1342H28.5705ZM25.0329 52.1316C25.0329 52.3976 25.0684 52.6547 25.1393 52.903C25.2191 53.1512 25.3344 53.3685 25.4851 53.5546C25.6358 53.7408 25.8265 53.8916 26.057 54.0068C26.2875 54.1132 26.5623 54.1664 26.8815 54.1664C27.3248 54.1664 27.6795 54.0733 27.9455 53.8871C28.2203 53.6921 28.4242 53.4039 28.5572 53.0227H29.9935C29.9138 53.3951 29.7763 53.7275 29.5813 54.0201C29.3862 54.3127 29.1513 54.561 28.8764 54.7649C28.6016 54.9599 28.2912 55.1062 27.9455 55.2038C27.6086 55.3101 27.2539 55.3633 26.8815 55.3633C26.3407 55.3633 25.8619 55.2747 25.4452 55.0974C25.0285 54.92 24.6739 54.6718 24.3813 54.3526C24.0976 54.0334 23.8803 53.6522 23.7296 53.2089C23.5878 52.7656 23.5168 52.2779 23.5168 51.746C23.5168 51.2583 23.5922 50.7973 23.7429 50.3628C23.9025 49.9195 24.1242 49.5338 24.4079 49.2058C24.7005 48.8689 25.0507 48.6029 25.4585 48.4078C25.8664 48.2128 26.3274 48.1153 26.8416 48.1153C27.3825 48.1153 27.8657 48.2305 28.2912 48.461C28.7257 48.6827 29.0848 48.9797 29.3685 49.3521C29.6522 49.7245 29.8561 50.1545 29.9803 50.6421C30.1132 51.1209 30.1487 51.6174 30.0866 52.1316H25.0329ZM31.8443 45.6815H33.3604V55.1772H31.8443V45.6815ZM41.3361 53.6477C41.3361 53.8339 41.3583 53.9669 41.4026 54.0467C41.4558 54.1265 41.5534 54.1664 41.6952 54.1664C41.7395 54.1664 41.7927 54.1664 41.8548 54.1664C41.9169 54.1664 41.9878 54.1575 42.0676 54.1398V55.1905C42.0144 55.2082 41.9435 55.2259 41.8548 55.2437C41.775 55.2702 41.6908 55.2924 41.6021 55.3101C41.5135 55.3279 41.4248 55.3412 41.3361 55.35C41.2475 55.3589 41.1721 55.3633 41.11 55.3633C40.7997 55.3633 40.5426 55.3013 40.3387 55.1772C40.1348 55.053 40.0018 54.8358 39.9397 54.5255C39.6383 54.8181 39.2659 55.0309 38.8226 55.1639C38.3881 55.2968 37.967 55.3633 37.5592 55.3633C37.2488 55.3633 36.9518 55.319 36.6681 55.2304C36.3844 55.1506 36.1317 55.0309 35.91 54.8713C35.6973 54.7028 35.5244 54.4945 35.3914 54.2462C35.2673 53.9891 35.2052 53.6921 35.2052 53.3552C35.2052 52.9296 35.2805 52.5838 35.4313 52.3178C35.5909 52.0518 35.7948 51.8435 36.043 51.6928C36.3002 51.542 36.5839 51.4356 36.8942 51.3736C37.2134 51.3026 37.5326 51.2494 37.8517 51.214C38.1266 51.1608 38.3881 51.1253 38.6364 51.1076C38.8846 51.081 39.1019 51.0411 39.2881 50.9879C39.4831 50.9347 39.6338 50.8549 39.7402 50.7485C39.8555 50.6332 39.9131 50.4648 39.9131 50.2431C39.9131 50.0481 39.8644 49.8885 39.7668 49.7644C39.6782 49.6402 39.5629 49.5471 39.421 49.4851C39.2881 49.4142 39.1373 49.3698 38.9689 49.3521C38.8004 49.3255 38.6408 49.3122 38.4901 49.3122C38.0645 49.3122 37.7143 49.4009 37.4395 49.5782C37.1646 49.7555 37.0095 50.0304 36.974 50.4027H35.4579C35.4845 49.9594 35.5909 49.5915 35.7771 49.2989C35.9632 49.0063 36.1982 48.7714 36.4819 48.594C36.7745 48.4167 37.1025 48.2926 37.4661 48.2217C37.8296 48.1507 38.2019 48.1153 38.5832 48.1153C38.9201 48.1153 39.2526 48.1507 39.5806 48.2217C39.9087 48.2926 40.2013 48.4078 40.4584 48.5674C40.7244 48.727 40.9372 48.9354 41.0967 49.1925C41.2563 49.4408 41.3361 49.7466 41.3361 50.1101V53.6477ZM39.82 51.7327C39.5895 51.8834 39.3058 51.9765 38.9689 52.0119C38.632 52.0385 38.295 52.0829 37.9581 52.1449C37.7985 52.1715 37.6434 52.2114 37.4927 52.2646C37.3419 52.309 37.2089 52.3754 37.0937 52.4641C36.9784 52.5439 36.8853 52.6547 36.8144 52.7966C36.7523 52.9296 36.7213 53.0936 36.7213 53.2887C36.7213 53.4571 36.7701 53.599 36.8676 53.7142C36.9651 53.8295 37.0804 53.9226 37.2134 53.9935C37.3552 54.0556 37.506 54.0999 37.6655 54.1265C37.834 54.1531 37.9847 54.1664 38.1177 54.1664C38.2862 54.1664 38.4679 54.1442 38.663 54.0999C38.858 54.0556 39.0398 53.9802 39.2083 53.8738C39.3856 53.7674 39.5319 53.6344 39.6471 53.4749C39.7624 53.3064 39.82 53.1025 39.82 52.8631V51.7327ZM45.3813 51.5598L43.0007 48.3015H44.836L46.2723 50.416L47.7751 48.3015H49.5306L47.19 51.48L49.8232 55.1772H48.0012L46.259 52.637L44.57 55.1772H42.7879L45.3813 51.5598Z" fill="#4E4E4E"/>
<path d="M34.625 17.5625C34.625 17.5625 38.5625 18 39 22.375C39 22.375 35.5 21.9375 34.1875 19.3125" fill="#06535B"/>
<path d="M32 36.678V38.5625L24.5276 38.5607C24.3061 38.5708 24.0849 38.5359 23.8773 38.4581C23.6697 38.3802 23.48 38.2611 23.3197 38.108C23.1594 37.9548 23.0318 37.7707 22.9446 37.5669C22.8575 37.363 22.8125 37.1436 22.8125 36.9219V36.1088C22.8125 35.7169 22.9528 35.338 23.2079 35.0405C23.4631 34.7431 23.8163 34.5468 24.2036 34.4872L28.0625 33.75H35.9375L39.6637 34.0787C40.0776 34.1082 40.4649 34.2935 40.7476 34.5971C41.0303 34.9008 41.1875 35.3002 41.1875 35.7151V36.9219C41.1875 37.357 41.0146 37.7743 40.707 38.082C40.3993 38.3896 39.982 38.5625 39.5469 38.5625H33.3125V36.827L32 36.678Z" fill="#0F8CA8"/>
<path d="M42.0625 28.0625C42.7874 28.0625 43.375 27.4749 43.375 26.75C43.375 26.0251 42.7874 25.4375 42.0625 25.4375C41.3376 25.4375 40.75 26.0251 40.75 26.75C40.75 27.4749 41.3376 28.0625 42.0625 28.0625Z" fill="#F69038"/>
<path d="M23.4335 18.8757L24.9295 18.4375L24.4913 19.9335L24.9295 21.4295L23.4335 20.9913L21.9375 21.4295L22.3757 19.9335L21.9375 18.4375L23.4335 18.8757Z" fill="#90E3F5"/>
<path d="M21.9375 26.3125H22.8125V27.1875H21.9375V26.3125Z" fill="#F69038"/>
<path d="M40.75 18.4375H41.625V19.3125H40.75V18.4375Z" fill="#90E3F5"/>
<path d="M32 35.9375H33.3125L33.75 35.0625C33.75 35.0625 37.25 35.9375 37.6875 36.8125L32 37.25V35.9375Z" fill="#FFBE92"/>
<path d="M32 25.4375C32.6962 25.4375 33.3639 25.1609 33.8562 24.6687C34.3484 24.1764 34.625 23.5087 34.625 22.8125H33.3125V20.1875H30.6875V22.8125H29.375C29.375 23.5087 29.6516 24.1764 30.1438 24.6687C30.6361 25.1609 31.3038 25.4375 32 25.4375Z" fill="#FFBE92"/>
<path d="M35.9375 22.8125H34.625C34.625 23.5087 34.3484 24.1764 33.8562 24.6687C33.3639 25.1609 32.6962 25.4375 32 25.4375C31.3038 25.4375 30.6361 25.1609 30.1438 24.6687C29.6516 24.1764 29.375 23.5087 29.375 22.8125H28.0625V28.5L28.9375 30.25L28.0625 33.75H35.9375L35.0625 30.25L35.9375 28.5V22.8125Z" fill="#90E3F5"/>
<path d="M28.0625 22.8125H27.5156C27.0805 22.8125 26.6632 22.9854 26.3555 23.293C26.0479 23.6007 25.875 24.018 25.875 24.4531V30.25L22.8125 32.4375C22.8125 32.4375 21.5 31.125 20.625 31.5625L21.0625 32.875L18.875 34.1875L19.3244 34.7867C19.5632 35.105 19.9096 35.3257 20.2991 35.4077C20.6885 35.4896 21.0944 35.4272 21.4413 35.232L27.1875 32L28.0625 28.5V22.8125Z" fill="#FFBE92"/>
<path d="M35.9375 22.8125H36.4844C36.9195 22.8125 37.3368 22.9854 37.6445 23.293C37.9521 23.6007 38.125 24.018 38.125 24.4531V30.25L41.1875 32.4375C41.1875 32.4375 42.5 31.125 43.375 31.5625L42.9375 32.875L45.125 34.1875L44.6756 34.7867C44.4368 35.1051 44.0904 35.3258 43.701 35.4078C43.3115 35.4897 42.9056 35.4274 42.5587 35.2322L36.8125 32L35.9375 28.5V22.8125Z" fill="#FFBE92"/>
<path d="M26.2852 35.0603L31.9723 34.621L32.0397 35.4934L26.3525 35.9326L26.2852 35.0603Z" fill="#076372"/>
<path d="M38.5625 35.9375H41.1875V35.7151C41.1876 35.4906 41.1415 35.2684 41.052 35.0625H38.5625V35.9375Z" fill="#076372"/>
<path opacity="0.2" d="M33.3125 20.1875H30.6875V21.7319C31.6024 21.6306 32.4916 21.3653 33.3125 20.9487V20.1875Z" fill="#232626"/>
<path d="M29.375 17.8724C28.9615 17.5034 28.6309 17.0512 28.4047 16.5454C28.1785 16.0396 28.0618 15.4916 28.0625 14.9375C28.0625 12.7629 29.8253 11.4375 32 11.4375C34.1746 11.4375 35.9375 12.7629 35.9375 14.9375C35.9381 15.4916 35.8215 16.0396 35.5952 16.5454C35.369 17.0512 35.0384 17.5034 34.625 17.8724" fill="#076372"/>
<path d="M32 20.625C30.4469 20.625 29.375 19.1156 29.375 17.5625V15.375L34.625 14.5V17.5625C34.625 19.1156 33.5531 20.625 32 20.625Z" fill="#FFBE92"/>
<path d="M32.875 16.25H33.75V17.125H32.875V16.25Z" fill="#843F0C"/>
<path d="M30.25 16.25H31.125V17.125H30.25V16.25Z" fill="#843F0C"/>
<path opacity="0.3" d="M32.2112 11.4419C32.1413 11.439 32.0708 11.4375 32 11.4375C29.8253 11.4375 28.0625 12.7629 28.0625 14.9375C28.0618 15.5089 28.186 16.0735 28.4264 16.5919C28.9494 14.0789 31.1039 12.2407 32.2112 11.4419V11.4419Z" fill="#FAFCFC"/>
</svg>
