<svg width="62" height="62" viewBox="0 0 62 62" fill="none" xmlns="http://www.w3.org/2000/svg">
<rect width="61.1143" height="61.1143" rx="8" fill="#D0D4E3"/>
<path d="M14.6 52.0119C14.6 52.3754 14.6621 52.6858 14.7862 52.9429C14.9104 53.2 15.0832 53.4128 15.3049 53.5812C15.5266 53.7408 15.7792 53.8605 16.063 53.9403C16.3555 54.0113 16.6703 54.0467 17.0072 54.0467C17.3707 54.0467 17.681 54.0068 17.9381 53.927C18.1953 53.8384 18.4036 53.7275 18.5632 53.5945C18.7228 53.4616 18.8381 53.3108 18.909 53.1424C18.9799 52.965 19.0154 52.7877 19.0154 52.6104C19.0154 52.2469 18.9312 51.9809 18.7627 51.8124C18.6031 51.6351 18.4258 51.511 18.2307 51.4401C17.8938 51.3159 17.4993 51.2007 17.0471 51.0943C16.6038 50.979 16.0541 50.8327 15.398 50.6554C14.9901 50.549 14.6488 50.4116 14.374 50.2431C14.108 50.0658 13.8952 49.8708 13.7356 49.658C13.576 49.4452 13.4607 49.2191 13.3898 48.9797C13.3277 48.7403 13.2967 48.4965 13.2967 48.2483C13.2967 47.7695 13.3942 47.3572 13.5893 47.0114C13.7932 46.6568 14.0592 46.3642 14.3872 46.1337C14.7153 45.9032 15.0877 45.7347 15.5044 45.6283C15.9211 45.513 16.3422 45.4554 16.7678 45.4554C17.2643 45.4554 17.7298 45.5219 18.1642 45.6549C18.6075 45.779 18.9932 45.9697 19.3213 46.2268C19.6582 46.4839 19.9242 46.8031 20.1192 47.1843C20.3143 47.5567 20.4118 47.9911 20.4118 48.4876H18.7494C18.7051 47.8759 18.4967 47.4459 18.1243 47.1976C17.752 46.9405 17.2776 46.8119 16.7013 46.8119C16.5063 46.8119 16.3068 46.8341 16.1029 46.8784C15.8989 46.9139 15.7127 46.9804 15.5443 47.0779C15.3758 47.1666 15.234 47.2907 15.1187 47.4503C15.0123 47.6099 14.9591 47.8094 14.9591 48.0488C14.9591 48.3857 15.0611 48.6517 15.265 48.8467C15.4778 49.0329 15.7526 49.1748 16.0896 49.2723C16.125 49.2812 16.2624 49.3211 16.5018 49.392C16.7501 49.4541 17.0249 49.525 17.3264 49.6048C17.6278 49.6846 17.9204 49.7644 18.2041 49.8442C18.4967 49.9151 18.7051 49.9683 18.8292 50.0038C19.1395 50.1013 19.4099 50.2343 19.6404 50.4027C19.871 50.5712 20.0616 50.7662 20.2123 50.9879C20.3719 51.2007 20.4872 51.4312 20.5581 51.6795C20.6379 51.9277 20.6778 52.176 20.6778 52.4242C20.6778 52.9562 20.567 53.4128 20.3453 53.794C20.1325 54.1664 19.8488 54.4723 19.4942 54.7117C19.1395 54.9511 18.7361 55.124 18.2839 55.2304C17.8318 55.3456 17.3707 55.4032 16.9008 55.4032C16.36 55.4032 15.8502 55.3367 15.3714 55.2038C14.8926 55.0708 14.4759 54.8668 14.1213 54.592C13.7666 54.3171 13.4829 53.9669 13.2701 53.5413C13.0573 53.1069 12.9465 52.5971 12.9376 52.0119H14.6ZM22.5255 48.3015H23.9619V49.2324H23.9885C24.2013 48.8334 24.4983 48.5497 24.8795 48.3812C25.2608 48.2039 25.673 48.1153 26.1163 48.1153C26.6572 48.1153 27.1271 48.2128 27.5261 48.4078C27.9339 48.594 28.2708 48.8556 28.5368 49.1925C28.8028 49.5205 29.0023 49.9062 29.1353 50.3495C29.2683 50.7928 29.3348 51.2672 29.3348 51.7726C29.3348 52.2336 29.2727 52.6813 29.1486 53.1158C29.0333 53.5502 28.8516 53.9359 28.6033 54.2728C28.3639 54.6009 28.058 54.8668 27.6857 55.0708C27.3133 55.2658 26.8744 55.3633 26.369 55.3633C26.1474 55.3633 25.9257 55.3412 25.7041 55.2968C25.4824 55.2614 25.2696 55.1993 25.0657 55.1107C24.8618 55.022 24.6712 54.9112 24.4938 54.7782C24.3254 54.6363 24.1835 54.4723 24.0683 54.2861H24.0417V57.7173H22.5255V48.3015ZM27.8186 51.746C27.8186 51.4356 27.7787 51.1342 27.699 50.8416C27.6192 50.549 27.4995 50.2919 27.3399 50.0702C27.1803 49.8397 26.9808 49.658 26.7414 49.525C26.502 49.3831 26.2272 49.3122 25.9169 49.3122C25.2785 49.3122 24.7953 49.5338 24.4672 49.9772C24.1481 50.4205 23.9885 51.0101 23.9885 51.746C23.9885 52.0917 24.0284 52.4153 24.1082 52.7168C24.1968 53.0094 24.3254 53.2621 24.4938 53.4749C24.6623 53.6876 24.8618 53.8561 25.0923 53.9802C25.3317 54.1043 25.6065 54.1664 25.9169 54.1664C26.2626 54.1664 26.5552 54.0955 26.7946 53.9536C27.034 53.8118 27.229 53.63 27.3798 53.4084C27.5394 53.1778 27.6502 52.9207 27.7123 52.637C27.7832 52.3444 27.8186 52.0474 27.8186 51.746ZM34.333 55.3633C33.7833 55.3633 33.2912 55.2747 32.8568 55.0974C32.4312 54.9112 32.0677 54.6585 31.7662 54.3393C31.4736 54.0201 31.2476 53.6389 31.088 53.1956C30.9372 52.7523 30.8619 52.2646 30.8619 51.7327C30.8619 51.2095 30.9372 50.7263 31.088 50.283C31.2476 49.8397 31.4736 49.4585 31.7662 49.1393C32.0677 48.8201 32.4312 48.5719 32.8568 48.3945C33.2912 48.2084 33.7833 48.1153 34.333 48.1153C34.8827 48.1153 35.3703 48.2084 35.7959 48.3945C36.2303 48.5719 36.5939 48.8201 36.8864 49.1393C37.1879 49.4585 37.414 49.8397 37.5647 50.283C37.7243 50.7263 37.8041 51.2095 37.8041 51.7327C37.8041 52.2646 37.7243 52.7523 37.5647 53.1956C37.414 53.6389 37.1879 54.0201 36.8864 54.3393C36.5939 54.6585 36.2303 54.9112 35.7959 55.0974C35.3703 55.2747 34.8827 55.3633 34.333 55.3633ZM34.333 54.1664C34.6699 54.1664 34.9625 54.0955 35.2107 53.9536C35.459 53.8118 35.6629 53.6256 35.8225 53.3951C35.9821 53.1645 36.0973 52.9074 36.1683 52.6237C36.2481 52.3311 36.288 52.0341 36.288 51.7327C36.288 51.4401 36.2481 51.1475 36.1683 50.8549C36.0973 50.5623 35.9821 50.3052 35.8225 50.0835C35.6629 49.853 35.459 49.6668 35.2107 49.525C34.9625 49.3831 34.6699 49.3122 34.333 49.3122C33.9961 49.3122 33.7035 49.3831 33.4552 49.525C33.207 49.6668 33.0031 49.853 32.8435 50.0835C32.6839 50.3052 32.5642 50.5623 32.4844 50.8549C32.4135 51.1475 32.378 51.4401 32.378 51.7327C32.378 52.0341 32.4135 52.3311 32.4844 52.6237C32.5642 52.9074 32.6839 53.1645 32.8435 53.3951C33.0031 53.6256 33.207 53.8118 33.4552 53.9536C33.7035 54.0955 33.9961 54.1664 34.333 54.1664ZM39.6297 48.3015H41.0527V49.6314H41.0793C41.1237 49.4452 41.2079 49.2634 41.332 49.0861C41.465 48.9088 41.6202 48.7492 41.7975 48.6073C41.9837 48.4566 42.1876 48.3369 42.4093 48.2483C42.6309 48.1596 42.857 48.1153 43.0875 48.1153C43.2648 48.1153 43.3845 48.1197 43.4466 48.1286C43.5175 48.1374 43.5885 48.1463 43.6594 48.1552V49.6181C43.553 49.6003 43.4422 49.587 43.3269 49.5782C43.2205 49.5604 43.1141 49.5516 43.0077 49.5516C42.7506 49.5516 42.5068 49.6048 42.2763 49.7112C42.0546 49.8087 41.8596 49.9594 41.6911 50.1633C41.5226 50.3584 41.3896 50.6022 41.2921 50.8948C41.1946 51.1874 41.1458 51.5243 41.1458 51.9055V55.1772H39.6297V48.3015ZM44.1789 48.3015H45.3226V46.2401H46.8387V48.3015H48.2086V49.4319H46.8387V53.1025C46.8387 53.2621 46.8432 53.3995 46.852 53.5148C46.8698 53.63 46.9008 53.7275 46.9451 53.8073C46.9983 53.8871 47.0737 53.9492 47.1712 53.9935C47.2687 54.029 47.4017 54.0467 47.5702 54.0467C47.6766 54.0467 47.783 54.0467 47.8894 54.0467C47.9958 54.0379 48.1022 54.0201 48.2086 53.9935V55.1639C48.0401 55.1816 47.8761 55.1993 47.7165 55.2171C47.5569 55.2348 47.3929 55.2437 47.2244 55.2437C46.8254 55.2437 46.5018 55.2082 46.2536 55.1373C46.0142 55.0575 45.8236 54.9466 45.6817 54.8048C45.5487 54.6541 45.4556 54.4679 45.4024 54.2462C45.3581 54.0246 45.3315 53.7719 45.3226 53.4882V49.4319H44.1789V48.3015Z" fill="#4E4E4E"/>
<path d="M23.2344 14.3281H20.3281C17.653 14.3281 15.4844 16.9305 15.4844 20.1406C15.4844 23.3508 17.653 25.9531 20.3281 25.9531H23.2344" fill="#90E3F5"/>
<path d="M26.1406 24.791C25.3311 25.5208 24.3248 25.9531 23.2344 25.9531C20.5592 25.9531 18.3906 23.3508 18.3906 20.1406C18.3906 16.9305 20.5592 14.3281 23.2344 14.3281C25.0271 14.3281 26.5924 15.4967 27.4299 17.234" fill="#0F8CA8"/>
<path d="M30.5 21.5938H23.9609C23.6398 21.5938 23.3318 21.4662 23.1047 21.2391C22.8776 21.012 22.75 20.704 22.75 20.3828V19.8984C22.75 19.5773 22.8776 19.2693 23.1047 19.0422C23.3318 18.8151 23.6398 18.6875 23.9609 18.6875H24.6875" fill="#076372"/>
<path d="M27.5938 40V27.4062L25.6562 24.0156V20.8811L34.2971 17.7188V24.1973L32.9219 27.4062V40" fill="#F9AC78"/>
<path d="M25.6562 21.3838C25.6562 21.3838 26.0552 22.2598 27.4299 22.2598H29.9767C29.9767 22.2598 29.5918 25.3477 30.5 25.4688L33.2549 21.1916L32.9366 20.597L25.6562 21.3838Z" fill="#E57F39"/>
<path d="M37.4809 12.3906C38.2835 12.3906 38.9341 11.74 38.9341 10.9375C38.9341 10.135 38.2835 9.48438 37.4809 9.48438C36.6784 9.48438 36.0278 10.135 36.0278 10.9375C36.0278 11.74 36.6784 12.3906 37.4809 12.3906Z" fill="#F69038"/>
<path d="M38.7344 31.2812C39.5369 31.2812 40.1875 30.6307 40.1875 29.8281C40.1875 29.0256 39.5369 28.375 38.7344 28.375C37.9318 28.375 37.2812 29.0256 37.2812 29.8281C37.2812 30.6307 37.9318 31.2812 38.7344 31.2812Z" fill="#90E3F5"/>
<path d="M20.3892 29.8892L21.2173 28.375L22.0455 29.8892L23.5597 30.7173L22.0455 31.5455L21.2173 33.0597L20.3892 31.5455L18.875 30.7173L20.3892 29.8892Z" fill="#F69038"/>
<path d="M28.1392 11.642L28.9673 10.1278L29.7955 11.642L31.3097 12.4702L29.7955 13.2983L28.9673 14.8125L28.1392 13.2983L26.625 12.4702L28.1392 11.642Z" fill="#90E3F5"/>
<path d="M19.3594 10.9375H20.3281V11.9062H19.3594V10.9375Z" fill="#F69038"/>
<path d="M37.2812 33.2188H38.25V34.1875H37.2812V33.2188Z" fill="#F69038"/>
<path d="M33.6095 21.5938H26.5039C26.0222 21.5938 25.5602 21.4024 25.2195 21.0617C24.8789 20.7211 24.6875 20.2591 24.6875 19.7773V19.0508C24.6875 18.569 24.8789 18.107 25.2195 17.7664C25.5602 17.4257 26.0222 17.2344 26.5039 17.2344H33.6095V21.5938Z" fill="#FCCDAC"/>
<path d="M29.5122 21.8359C29.5122 21.5684 29.2954 21.1094 29.0279 21.1094C28.8994 21.1092 28.7763 21.0582 28.6855 20.9673C28.5947 20.8765 28.5436 20.7534 28.5435 20.625V18.6875H27.5747V20.625C27.5747 20.79 27.6028 20.9539 27.6581 21.1094H27.5937C27.4653 21.1092 27.3422 21.0582 27.2514 20.9673C27.1606 20.8765 27.1095 20.7534 27.1094 20.625V18.6875H26.1406V20.625C26.1406 20.9969 26.374 21.5787 26.6046 21.8359H29.5122Z" fill="#E57F39"/>
<path d="M34.2969 21.7766V24.1973L33.0381 27.135H30.5V25.4688C30.0156 23.5313 31.4688 22.5625 31.4688 22.5625L30.0156 20.625V18.2031L30.8082 18.9957L32.9219 21.1094L34.2969 21.7766Z" fill="#F9AC78"/>
<path opacity="0.2" d="M33.6095 17.2344H32.0301C31.8464 19.1736 31.7163 23.3799 33.6643 25.6738L34.2969 24.1973V21.7766L33.6095 21.443V17.2344Z" fill="#232626"/>
<path d="M40.6719 14.3281H37.7656C35.0905 14.3281 32.9219 16.9305 32.9219 20.1406C32.9219 23.3508 35.0905 25.9531 37.7656 25.9531H40.6719" fill="#90E3F5"/>
<path d="M40.6719 25.9531C43.347 25.9531 45.5156 23.3508 45.5156 20.1406C45.5156 16.9305 43.347 14.3281 40.6719 14.3281C37.9967 14.3281 35.8281 16.9305 35.8281 20.1406C35.8281 23.3508 37.9967 25.9531 40.6719 25.9531Z" fill="#0F8CA8"/>
<path d="M41.3984 21.5938C42.0672 21.5938 42.6094 20.9432 42.6094 20.1406C42.6094 19.3381 42.0672 18.6875 41.3984 18.6875C40.7297 18.6875 40.1875 19.3381 40.1875 20.1406C40.1875 20.9432 40.7297 21.5938 41.3984 21.5938Z" fill="#076372"/>
</svg>
