<svg width="27" height="26" viewBox="0 0 27 26" fill="none" xmlns="http://www.w3.org/2000/svg">
<g clip-path="url(#clip0)">
<path d="M21.3283 4.24634L12.5768 25.3439C12.8515 25.3549 13.1294 25.361 13.4103 25.361C18.7039 25.361 22.9952 23.3479 22.9952 20.8646C22.9952 18.3814 22.9952 4.24634 22.9952 4.24634H21.3283Z" fill="#A2B1B7"/>
<path d="M21.3282 20.8646C21.3282 18.3814 21.3282 4.24634 21.3282 4.24634H3.8252C3.8252 4.24634 3.8252 18.3814 3.8252 20.8646C3.8252 23.2162 7.6734 25.1457 12.5767 25.3439C17.48 25.1457 21.3282 23.2161 21.3282 20.8646Z" fill="#C4D3D9"/>
<path d="M22.9952 4.24625C22.9952 1.94469 18.7038 0.0788574 13.4102 0.0788574L12.299 4.24625L13.4102 8.41359V20.9157C13.4102 21.5295 13.9078 22.027 14.5215 22.027C15.1353 22.027 15.6328 21.5295 15.6328 20.9157V8.30076C16.2105 8.24116 16.7678 8.15874 17.2998 8.05594V17.5818C17.2998 18.1956 17.7973 18.6931 18.411 18.6931C19.0248 18.6931 19.5223 18.1956 19.5223 17.5818V7.45638C21.6438 6.69199 22.9952 5.53776 22.9952 4.24625Z" fill="#E0315B"/>
<path d="M13.4102 0.0788574C8.11653 0.0788574 3.8252 1.94469 3.8252 4.24625C3.8252 5.53775 5.1766 6.69199 7.29802 7.45638V14.2479C7.29802 14.8617 7.79557 15.3592 8.4093 15.3592C9.02303 15.3592 9.52057 14.8616 9.52057 14.2479V8.05593C10.7093 8.2857 12.0253 8.41359 13.4101 8.41359V0.0788574H13.4102Z" fill="#EA5A7D"/>
<path d="M13.4102 1.74585C9.19065 1.74585 5.77002 2.86532 5.77002 4.24625C5.77002 4.70173 6.14229 5.12866 6.79241 5.49648H20.028C20.6781 5.12871 21.0504 4.70173 21.0504 4.24625C21.0504 2.86532 17.6297 1.74585 13.4102 1.74585Z" fill="#F5849F"/>
<path d="M6.79224 5.49651C8.11327 6.24387 10.5822 6.74674 13.41 6.74674C16.2378 6.74674 18.7068 6.24387 20.0278 5.49651C18.7068 4.74916 16.2379 4.24634 13.41 4.24634C10.5821 4.24634 8.11322 4.74916 6.79224 5.49651Z" fill="#E0315B"/>
</g>
<defs>
<clipPath id="clip0">
<rect width="25.282" height="25.282" fill="white" transform="translate(0.769043 0.0788574)"/>
</clipPath>
</defs>
</svg>
