<svg width="31" height="30" viewBox="0 0 31 30" fill="none" xmlns="http://www.w3.org/2000/svg">
<g clip-path="url(#clip0)">
<path d="M7.67919 3.15967L7.68423 3.16471C8.42761 3.20131 9.13056 3.51413 9.65537 4.04189C10.4482 4.93862 11.0228 6.00667 11.3341 7.16245L8.73785 10.0561C7.49274 9.76118 6.33955 9.16381 5.38036 8.3169C4.85091 7.79325 4.53778 7.08962 4.50317 6.34576L5.19887 3.86545L7.67919 3.15967Z" fill="#DC1500"/>
<path d="M8.42012 1.16341C8.42651 1.89154 8.16858 2.59727 7.69417 3.14968C7.68913 3.15472 7.68409 3.15976 7.67905 3.15976C6.79178 4.03695 5.19874 3.86554 5.19874 3.86554C5.19874 3.86554 5.02733 2.25233 5.9146 1.37011C6.467 0.895699 7.17274 0.637766 7.90087 0.644161C8.04014 0.638867 8.17531 0.691872 8.27386 0.790421C8.37241 0.888971 8.42541 1.02414 8.42012 1.16341Z" fill="#0FB13F"/>
<path d="M4.50318 6.34568L4.48806 6.3608C3.93526 6.83395 3.22938 7.09014 2.50179 7.0817C2.36252 7.087 2.22735 7.03399 2.1288 6.93544C2.03025 6.83689 1.97725 6.70172 1.98254 6.56245C1.97373 5.83391 2.23197 5.12735 2.70849 4.57618C3.59071 3.68892 5.19888 3.86536 5.19888 3.86536C5.19888 3.86536 5.37533 5.45337 4.50318 6.34568Z" fill="#0FB13F"/>
<path d="M5.20144 4.37009C5.06567 4.37034 4.93553 4.31582 4.84049 4.21885C3.19804 2.53204 2.49326 2.4055 2.48671 2.405C2.3551 2.40427 2.22939 2.35024 2.1383 2.25525C2.0472 2.16025 1.99847 2.0324 2.00325 1.90087C2.01254 1.61832 2.24535 1.39468 2.52805 1.39674C2.75591 1.39674 3.64973 1.54798 5.5629 3.51408C5.70518 3.65923 5.74637 3.87561 5.66739 4.06289C5.5884 4.25016 5.40469 4.37168 5.20144 4.3711V4.37009Z" fill="#4C8056"/>
<path d="M8.53623 6.15425C8.81466 6.15425 9.04037 5.92855 9.04037 5.65012C9.04037 5.3717 8.81466 5.146 8.53623 5.146C8.25781 5.146 8.0321 5.3717 8.0321 5.65012C8.0321 5.92855 8.25781 6.15425 8.53623 6.15425Z" fill="#FFCB00"/>
<path d="M7.0239 7.66646C7.30233 7.66646 7.52803 7.44075 7.52803 7.16233C7.52803 6.88391 7.30233 6.6582 7.0239 6.6582C6.74548 6.6582 6.51978 6.88391 6.51978 7.16233C6.51978 7.44075 6.74548 7.66646 7.0239 7.66646Z" fill="#FFCB00"/>
<path d="M10.9006 29.1827C10.1223 29.7535 9.13716 29.9644 8.19339 29.7625C7.95903 29.7012 7.73364 29.6097 7.52289 29.4902C7.30997 29.6088 7.08303 29.7003 6.84736 29.7625C4.68465 30.317 2.1993 28.1593 1.29691 24.9329C0.394516 21.7065 1.42798 18.6414 3.59573 18.0868C4.51062 17.884 5.46861 18.0782 6.23233 18.6212C7.0185 19.1203 8.02225 19.1203 8.80842 18.6212C9.07254 18.4539 9.35292 18.3137 9.64528 18.2028L11.561 23.2945C11.571 23.3752 10.8653 29.1121 10.9006 29.1827Z" fill="#DC1500"/>
<path d="M3.24285 24.8962C3.01654 24.8961 2.81803 24.7452 2.75737 24.5272C2.24165 22.676 2.54564 21.1722 3.00238 20.3822C3.19781 19.9843 3.54783 19.6838 3.97081 19.5509C4.14534 19.5059 4.33062 19.5574 4.45688 19.686C4.58314 19.8147 4.63118 20.0009 4.58291 20.1745C4.53465 20.3482 4.3974 20.4829 4.22288 20.5279C4.06869 20.6027 3.94599 20.7297 3.87654 20.8864C3.40637 21.9515 3.354 23.1545 3.72984 24.2565C3.77232 24.4086 3.74107 24.5718 3.64542 24.6974C3.54977 24.8231 3.40077 24.8967 3.24285 24.8962Z" fill="white"/>
<path d="M7.82048 17.3911C7.63899 18.1121 6.46941 18.4448 5.19901 18.1322C4.32183 17.9154 3.05142 16.9122 2.35572 16.3174C2.25662 16.2346 2.21405 16.1021 2.24638 15.9771C2.27871 15.8521 2.38015 15.7569 2.50696 15.7326C3.39423 15.5511 4.97215 15.294 5.84934 15.5107C7.11974 15.8233 8.00196 16.6652 7.82048 17.3911Z" fill="#0FB13F"/>
<path d="M22.2737 29.2684C22.1066 29.6213 21.7517 29.8468 21.3612 29.8481H11.8433C11.4192 29.8503 11.0405 29.583 10.9006 29.1827C10.8675 29.1093 10.8471 29.0309 10.8401 28.9508L9.64528 18.2028L8.94958 11.9314L10.5527 12.733C11.822 13.3682 13.3164 13.3682 14.5857 12.733C15.8541 12.1011 17.3454 12.1011 18.6137 12.733L18.6188 12.738C19.8875 13.3681 21.378 13.3681 22.6468 12.738L24.2549 11.9314L23.3122 20.4159L22.2737 29.2684Z" fill="#FF9700"/>
<path d="M24.6633 8.28152L24.2549 11.9314L22.6467 12.738C21.378 13.3682 19.8875 13.3682 18.6188 12.738L18.6137 12.733C17.3454 12.1011 15.8541 12.1011 14.5857 12.733C13.3164 13.3682 11.822 13.3682 10.5527 12.733L8.94958 11.9314H8.94454L8.73784 10.0561L8.54123 8.28152C8.5105 7.99653 8.6022 7.71189 8.79353 7.49845C8.98486 7.28501 9.25781 7.16285 9.54445 7.16235H23.66C23.9467 7.16285 24.2196 7.28501 24.411 7.49845C24.6023 7.71189 24.694 7.99653 24.6633 8.28152Z" fill="white"/>
<path d="M13.0734 27.8317C12.9084 27.8317 12.7539 27.751 12.6596 27.6156C12.5654 27.4803 12.5433 27.3073 12.6005 27.1526L21.1707 3.96271C21.2064 3.86651 21.2706 3.7835 21.3547 3.72476L26.396 0.195857C26.6239 0.0464491 26.9293 0.105179 27.0855 0.328459C27.2417 0.551739 27.1922 0.858741 26.9738 1.02162L22.062 4.46028L13.5463 27.5025C13.4731 27.7004 13.2844 27.8317 13.0734 27.8317Z" fill="#FFCF53"/>
<path d="M12.8214 17.7492C13.5174 17.7492 14.0817 17.1849 14.0817 16.4888C14.0817 15.7928 13.5174 15.2285 12.8214 15.2285C12.1253 15.2285 11.561 15.7928 11.561 16.4888C11.561 17.1849 12.1253 17.7492 12.8214 17.7492Z" fill="white"/>
<path d="M12.0652 20.7741C12.3436 20.7741 12.5693 20.5484 12.5693 20.27C12.5693 19.9916 12.3436 19.7659 12.0652 19.7659C11.7867 19.7659 11.561 19.9916 11.561 20.27C11.561 20.5484 11.7867 20.7741 12.0652 20.7741Z" fill="white"/>
<path d="M12.5693 23.2944C12.8477 23.2944 13.0734 23.0687 13.0734 22.7903C13.0734 22.5118 12.8477 22.2861 12.5693 22.2861C12.2909 22.2861 12.0652 22.5118 12.0652 22.7903C12.0652 23.0687 12.2909 23.2944 12.5693 23.2944Z" fill="white"/>
<path d="M30.1281 28.0181C28.7573 29.2064 27.0017 29.8566 25.1876 29.8481C23.1778 29.849 21.25 29.051 19.8288 27.6299C18.4076 26.2087 17.6096 24.2809 17.6106 22.271C17.602 20.4569 18.2523 18.7014 19.4405 17.3306C19.5303 17.2201 19.6625 17.1527 19.8047 17.145C19.9468 17.1373 20.0855 17.1901 20.1867 17.2903L21.2453 18.3489C19.0919 20.5237 19.1005 24.0298 21.2647 26.194C23.4288 28.3581 26.9349 28.3668 29.1097 26.2133L30.1684 27.272C30.2686 27.3731 30.3213 27.5119 30.3136 27.654C30.306 27.7961 30.2386 27.9284 30.1281 28.0181Z" fill="#FFCB00"/>
<path d="M29.1097 26.2133C28.3138 27.0117 27.2909 27.5451 26.1807 27.7408C25.8519 27.8056 25.5176 27.8377 25.1825 27.8366H25.1724C23.8775 27.832 22.6252 27.3735 21.6335 26.541C21.3687 26.33 21.1286 26.0898 20.9176 25.8251C20.085 24.8333 19.6266 23.581 19.622 22.2861V22.276C19.6209 21.941 19.653 21.6066 19.7178 21.2779C19.9134 20.1676 20.4469 19.1448 21.2453 18.3489L29.1097 26.2133Z" fill="#F3D55B"/>
<path d="M26.1807 27.7408C25.8519 27.8056 25.5176 27.8376 25.1825 27.8365H25.1724L25.1674 23.002L21.6334 26.5409C21.3687 26.33 21.1286 26.0898 20.9176 25.8251L24.4566 22.2911L19.622 22.2861V22.276C19.6209 21.9409 19.653 21.6066 19.7178 21.2778L24.1793 21.2829L26.1757 23.2792L26.1807 27.7408Z" fill="#FF9700"/>
<path d="M7.52293 20.7687C7.2445 20.7687 7.0188 20.543 7.0188 20.2646V19.2563C7.0188 16.6853 8.30533 15.5056 9.07262 15.0312C9.3086 14.8944 9.61062 14.9701 9.75417 15.2021C9.89771 15.434 9.83071 15.7381 9.60296 15.8882C9.01414 16.2517 8.02705 17.1722 8.02705 19.2553V20.2636C8.02732 20.3974 7.97433 20.5259 7.87976 20.6207C7.78518 20.7154 7.6568 20.7687 7.52293 20.7687Z" fill="#805333"/>
<path d="M21.0639 7.16235L18.9516 12.8842C18.8407 12.8388 18.7297 12.7935 18.6188 12.738L18.6138 12.733C18.4227 12.6356 18.2237 12.5546 18.0189 12.491L19.985 7.16235H21.0639Z" fill="#FF6711"/>
<path d="M18.6188 12.738C18.7297 12.7934 18.8406 12.8388 18.9515 12.8842L13.5473 27.5039C13.4734 27.7015 13.2843 27.8323 13.0734 27.8316C13.0133 27.8314 12.9537 27.8212 12.8969 27.8014C12.637 27.702 12.5047 27.4126 12.5995 27.151L18.0189 12.491C18.2237 12.5546 18.4227 12.6355 18.6137 12.7329L18.6188 12.738Z" fill="white"/>
</g>
<defs>
<clipPath id="clip0">
<rect width="29.7436" height="29.7436" fill="white" transform="translate(0.974121 0.104492)"/>
</clipPath>
</defs>
</svg>
