<svg width="15" height="19" viewBox="0 0 15 19" fill="none" xmlns="http://www.w3.org/2000/svg">
<path fill-rule="evenodd" clip-rule="evenodd" d="M4.4892 0.89917H9.93211C12.3228 0.89917 14.2547 1.84308 14.2811 4.24255V17.6337C14.2811 17.7837 14.2459 17.9336 14.1753 18.066C14.0606 18.2777 13.8665 18.4365 13.6283 18.507C13.399 18.5776 13.1432 18.5423 12.9314 18.4188L7.21506 15.5606L1.48986 18.4188C1.35842 18.4885 1.20757 18.5335 1.0576 18.5335C0.563597 18.5335 0.166626 18.1277 0.166626 17.6337V4.24255C0.166626 1.84308 2.10737 0.89917 4.4892 0.89917ZM3.88942 7.62121H10.5321C10.9114 7.62121 11.2201 7.31157 11.2201 6.9243C11.2201 6.53615 10.9114 6.2274 10.5321 6.2274H3.88942C3.51009 6.2274 3.20134 6.53615 3.20134 6.9243C3.20134 7.31157 3.51009 7.62121 3.88942 7.62121Z" fill="#03ADD2"/>
</svg>
