<svg width="17" height="14" viewBox="0 0 17 14" fill="none" xmlns="http://www.w3.org/2000/svg">
<path d="M4.64009 13.1543C4.28854 13.1496 3.94267 13.065 3.62857 12.9071C3.31447 12.7491 3.04036 12.5219 2.82693 12.2425L0.266563 9.33186C0.0778566 9.09757 -0.0131307 8.79948 0.0125727 8.49975C0.0382762 8.20002 0.178686 7.92177 0.404527 7.72303C0.630368 7.52429 0.924207 7.4204 1.22478 7.43301C1.52535 7.44562 1.80945 7.57377 2.01784 7.79074L4.4171 10.5216C4.44378 10.5519 4.47647 10.5763 4.5131 10.5934C4.54972 10.6104 4.58948 10.6197 4.62987 10.6205C4.67025 10.6214 4.71038 10.6139 4.74771 10.5985C4.78504 10.5831 4.81877 10.56 4.84674 10.5309L14.3037 0.674702C14.4093 0.563544 14.5358 0.474282 14.6759 0.412012C14.8161 0.349741 14.9671 0.315683 15.1204 0.31178C15.2737 0.307877 15.4262 0.334206 15.5694 0.389265C15.7125 0.444324 15.8434 0.527033 15.9545 0.632671C16.0657 0.738309 16.1549 0.864807 16.2172 1.00494C16.2795 1.14508 16.3135 1.29611 16.3174 1.4494C16.3214 1.6027 16.295 1.75527 16.24 1.89839C16.1849 2.04151 16.1022 2.17239 15.9966 2.28354L6.42056 12.3627C6.20134 12.6188 5.92776 12.8227 5.61975 12.9597C5.31174 13.0966 4.97706 13.1631 4.64009 13.1543Z" fill="white"/>
</svg>
