<svg width="23" height="23" viewBox="0 0 23 23" fill="none" xmlns="http://www.w3.org/2000/svg">
<path d="M14.8022 11.1119L21.2444 4.67011C22.2638 3.65076 22.2638 1.99829 21.2444 0.979456C20.2261 -0.0393761 18.5726 -0.0393761 17.5543 0.979456L11.1121 7.42232L4.66981 0.979456C3.65151 -0.0393761 1.99801 -0.0393761 0.979716 0.979456C-0.0396256 1.99881 -0.0396256 3.65128 0.979716 4.67011L7.42146 11.1119L0.979716 17.5538C-0.0396256 18.5731 -0.0396256 20.2256 0.979716 21.2444C1.4886 21.7543 2.15721 22.0085 2.82476 22.0085C3.4918 22.0085 4.16092 21.7543 4.66981 21.2444L11.1121 14.8026L17.5543 21.2449C18.0637 21.7549 18.7318 22.0091 19.3994 22.0091C20.0669 22.0091 20.7355 21.7549 21.2444 21.2449C22.2638 20.2256 22.2638 18.5731 21.2444 17.5543L14.8022 11.1119Z" fill="#FF2222"/>
</svg>
