<svg width="27" height="23" viewBox="0 0 27 23" fill="none" xmlns="http://www.w3.org/2000/svg">
<path d="M23.5749 0.376953H2.82899C2.0787 0.376953 1.35913 0.675007 0.828592 1.20555C0.298053 1.73608 0 2.45565 0 3.20594L0 19.2369C0 19.9872 0.298053 20.7067 0.828592 21.2373C1.35913 21.7678 2.0787 22.0659 2.82899 22.0659H23.5749C24.3252 22.0659 25.0448 21.7678 25.5753 21.2373C26.1059 20.7067 26.4039 19.9872 26.4039 19.2369V3.20594C26.4039 2.45565 26.1059 1.73608 25.5753 1.20555C25.0448 0.675007 24.3252 0.376953 23.5749 0.376953ZM23.3599 8.19062L15.8423 12.7076C15.0472 13.1852 14.1371 13.4376 13.2095 13.4376C12.2819 13.4376 11.3718 13.1852 10.5767 12.7076L3.05154 8.18119C2.89032 8.08657 2.74946 7.96093 2.6371 7.81154C2.52474 7.66215 2.4431 7.49197 2.39691 7.31083C2.35072 7.1297 2.34089 6.94121 2.36799 6.75625C2.39508 6.57129 2.45857 6.39354 2.55479 6.23327C2.651 6.073 2.77802 5.93339 2.92852 5.82251C3.07901 5.71163 3.24999 5.63168 3.43158 5.58728C3.61316 5.54288 3.80174 5.53492 3.98642 5.56384C4.1711 5.59277 4.34821 5.65801 4.50752 5.75581L12.0251 10.2784C12.3801 10.4931 12.7871 10.6065 13.202 10.6065C13.6168 10.6065 14.0238 10.4931 14.3788 10.2784L21.9039 5.76335C22.0632 5.66556 22.2404 5.60031 22.425 5.57139C22.6097 5.54246 22.7983 5.55043 22.9799 5.59483C23.1615 5.63923 23.3324 5.71918 23.4829 5.83006C23.6334 5.94094 23.7605 6.08055 23.8567 6.24082C23.9529 6.40109 24.0164 6.57884 24.0435 6.76379C24.0706 6.94875 24.0607 7.13724 24.0145 7.31838C23.9684 7.49951 23.8867 7.66969 23.7744 7.81909C23.662 7.96848 23.5211 8.09412 23.3599 8.18874V8.19062Z" fill="#DADADA"/>
</svg>
