<svg width="30" height="26" viewBox="0 0 30 26" fill="none" xmlns="http://www.w3.org/2000/svg">
<path d="M27.5154 2.60524C26.0112 1.01909 23.9472 0.145508 21.7032 0.145508C20.0258 0.145508 18.4897 0.661077 17.1373 1.67777C16.4549 2.19097 15.8366 2.81884 15.2915 3.55167C14.7465 2.81905 14.128 2.19097 13.4454 1.67777C12.0933 0.661077 10.5571 0.145508 8.87977 0.145508C6.63575 0.145508 4.57153 1.01909 3.06731 2.60524C1.58106 4.17285 0.762329 6.31445 0.762329 8.6358C0.762329 11.0251 1.67816 13.2121 3.64439 15.5188C5.40334 17.5822 7.93135 19.6768 10.8589 22.1022C11.8585 22.9306 12.9916 23.8694 14.1681 24.8696C14.479 25.1342 14.8778 25.2799 15.2915 25.2799C15.7049 25.2799 16.104 25.1342 16.4144 24.87C17.5909 23.8697 18.7247 22.9303 19.7248 22.1016C22.6518 19.6766 25.1798 17.5822 26.9388 15.5186C28.905 13.2121 29.8206 11.0251 29.8206 8.63559C29.8206 6.31445 29.0019 4.17285 27.5154 2.60524Z" fill="#FFBD13"/>
</svg>
