<svg width="11" height="16" viewBox="0 0 11 16" fill="none" xmlns="http://www.w3.org/2000/svg">
<path d="M5.52761 0.404785C4.11256 0.40648 2.75595 0.969359 1.75535 1.96995C0.754759 2.97055 0.191881 4.32716 0.190186 5.74221C0.190186 8.49312 4.59783 14.4636 5.10061 15.1361C5.15033 15.2024 5.2148 15.2562 5.28891 15.2932C5.36302 15.3303 5.44475 15.3496 5.52761 15.3496C5.61047 15.3496 5.69219 15.3303 5.7663 15.2932C5.84042 15.2562 5.90489 15.2024 5.9546 15.1361C6.45739 14.4636 10.865 8.49312 10.865 5.74221C10.8633 4.32716 10.3005 2.97055 9.29986 1.96995C8.29927 0.969359 6.94266 0.40648 5.52761 0.404785ZM5.52761 7.34344C5.21092 7.34344 4.90133 7.24953 4.63801 7.07358C4.37469 6.89764 4.16946 6.64756 4.04827 6.35497C3.92707 6.06239 3.89536 5.74043 3.95715 5.42982C4.01893 5.11922 4.17143 4.83391 4.39537 4.60997C4.61931 4.38603 4.90462 4.23353 5.21522 4.17175C5.52583 4.10997 5.84778 4.14167 6.14037 4.26287C6.43296 4.38406 6.68303 4.58929 6.85898 4.85261C7.03492 5.11593 7.12883 5.42552 7.12883 5.74221C7.12883 6.16688 6.96013 6.57416 6.65985 6.87445C6.35956 7.17474 5.95228 7.34344 5.52761 7.34344Z" fill="#FFBD13"/>
</svg>
