<svg width="47" height="24" viewBox="0 0 47 24" fill="none" xmlns="http://www.w3.org/2000/svg">
<path d="M0.117609 0.148124H6.18125L12.5744 11.847L18.9017 0.148124H24.8335V23.2163H18.9017V10.0015L14.1233 18.7674H10.8278L6.04943 10.0015V23.2163H0.117609V0.148124ZM26.7992 0.148124H37.839C40.5413 0.148124 42.5075 0.686381 43.7378 1.7629C44.9682 2.81744 45.5833 4.33335 45.5833 6.31063C45.5833 7.49699 45.2757 8.51858 44.6606 9.3754C44.0454 10.2102 43.2106 10.8144 42.156 11.1879C43.5181 11.4955 44.5947 12.1216 45.3856 13.0663C46.1765 13.989 46.5719 15.1974 46.5719 16.6913C46.5719 18.7125 45.9019 20.3053 44.5617 21.4697C43.2435 22.6341 41.1125 23.2163 38.1685 23.2163H26.7992V0.148124ZM36.8503 18.6686C38.2784 18.6686 39.267 18.4599 39.8163 18.0424C40.3655 17.6031 40.6401 16.933 40.6401 16.0322C40.6401 15.1315 40.3545 14.4614 39.7833 14.022C39.2341 13.5826 38.2344 13.3629 36.7844 13.3629H32.731V18.6686H36.8503ZM36.389 9.34244C37.6632 9.34244 38.52 9.14472 38.9594 8.74926C39.4208 8.33184 39.6515 7.74964 39.6515 7.00267C39.6515 6.23373 39.4208 5.66252 38.9594 5.28903C38.52 4.89358 37.6742 4.69585 36.4219 4.69585H32.731V9.34244H36.389Z" fill="#1F1F1F"/>
</svg>
