<svg width="40" height="31" viewBox="0 0 40 31" fill="none" xmlns="http://www.w3.org/2000/svg">
<path d="M38.3333 13.8202H1.66667C0.746663 13.8202 0 14.7296 0 15.85C0 16.9704 0.746663 17.8798 1.66667 17.8798H38.3333C39.2533 17.8798 40 16.9704 40 15.85C40 14.7296 39.2533 13.8202 38.3333 13.8202Z" fill="#242424"/>
<path d="M38.3333 26.7369H1.66667C0.746663 26.7369 0 27.6462 0 28.7666C0 29.8871 0.746663 30.7964 1.66667 30.7964H38.3333C39.2533 30.7964 40 29.8871 40 28.7666C40 27.6462 39.2533 26.7369 38.3333 26.7369Z" fill="#242424"/>
<path d="M38.3333 0.90349H1.66667C0.746663 0.90349 0 1.81282 0 2.93325C0 4.05368 0.746663 4.96301 1.66667 4.96301H38.3333C39.2533 4.96301 40 4.05368 40 2.93325C40 1.81282 39.2533 0.90349 38.3333 0.90349Z" fill="#242424"/>
</svg>
