<svg width="22" height="27" viewBox="0 0 22 27" fill="none" xmlns="http://www.w3.org/2000/svg">
<path d="M19.689 10.5383V8.49014C19.689 6.23926 18.7949 4.08057 17.2033 2.48895C15.6116 0.897334 13.453 0.00317383 11.2021 0.00317383C8.95118 0.00317383 6.79249 0.897334 5.20087 2.48895C3.60926 4.08057 2.7151 6.23926 2.7151 8.49014V10.5383C2.1636 10.7333 1.6861 11.0945 1.34835 11.572C1.01059 12.0496 0.829185 12.6202 0.829102 13.2051V23.5781C0.829102 24.3284 1.12716 25.048 1.65769 25.5785C2.18823 26.109 2.9078 26.4071 3.65809 26.4071H18.746C19.4963 26.4071 20.2159 26.109 20.7464 25.5785C21.277 25.048 21.575 24.3284 21.575 23.5781V13.2051C21.5749 12.6202 21.3935 12.0496 21.0558 11.572C20.718 11.0945 20.2405 10.7333 19.689 10.5383ZM11.2021 20.7491C10.7358 20.7491 10.28 20.6108 9.89231 20.3518C9.50463 20.0928 9.20246 19.7246 9.02403 19.2938C8.84559 18.863 8.79891 18.389 8.88987 17.9317C8.98084 17.4744 9.20537 17.0543 9.53507 16.7246C9.86477 16.3949 10.2848 16.1704 10.7421 16.0794C11.1995 15.9885 11.6735 16.0351 12.1042 16.2136C12.535 16.392 12.9032 16.6942 13.1622 17.0819C13.4213 17.4695 13.5596 17.9253 13.5596 18.3916C13.5596 19.0169 13.3112 19.6165 12.8691 20.0586C12.4269 20.5007 11.8273 20.7491 11.2021 20.7491ZM15.917 10.3761H6.48708V8.49014C6.48708 7.23965 6.98384 6.04038 7.86807 5.15615C8.7523 4.27192 9.95157 3.77516 11.2021 3.77516C12.4526 3.77516 13.6518 4.27192 14.5361 5.15615C15.4203 6.04038 15.917 7.23965 15.917 8.49014V10.3761Z" fill="#DADADA"/>
</svg>
