<svg width="12" height="12" viewBox="0 0 12 12" fill="none" xmlns="http://www.w3.org/2000/svg">
<path fill-rule="evenodd" clip-rule="evenodd" d="M5.7429 0.199951C6.03085 0.199951 6.30701 0.314339 6.51062 0.51795C6.71423 0.721561 6.82862 0.997716 6.82862 1.28567V4.54281H10.0858C10.3737 4.54281 10.6499 4.6572 10.8535 4.86081C11.0571 5.06442 11.1715 5.34057 11.1715 5.62852C11.1715 5.91647 11.0571 6.19263 10.8535 6.39624C10.6499 6.59985 10.3737 6.71424 10.0858 6.71424H6.82862V9.97138C6.82862 10.2593 6.71423 10.5355 6.51062 10.7391C6.30701 10.9427 6.03085 11.0571 5.7429 11.0571C5.45495 11.0571 5.1788 10.9427 4.97519 10.7391C4.77158 10.5355 4.65719 10.2593 4.65719 9.97138V6.71424H1.40005C1.1121 6.71424 0.83594 6.59985 0.63233 6.39624C0.428719 6.19263 0.314331 5.91647 0.314331 5.62852C0.314331 5.34057 0.428719 5.06442 0.63233 4.86081C0.83594 4.6572 1.1121 4.54281 1.40005 4.54281H4.65719V1.28567C4.65719 0.997716 4.77158 0.721561 4.97519 0.51795C5.1788 0.314339 5.45495 0.199951 5.7429 0.199951Z" fill="white"/>
</svg>
