<svg width="33" height="33" viewBox="0 0 33 33" fill="none" xmlns="http://www.w3.org/2000/svg">
<path d="M16.5001 0.25C7.53006 0.25 0.250061 7.53 0.250061 16.5C0.250061 25.47 7.53006 32.75 16.5001 32.75C25.4701 32.75 32.7501 25.47 32.7501 16.5C32.7501 7.53 25.4701 0.25 16.5001 0.25ZM18.1251 27.875H14.8751V24.625H18.1251V27.875ZM21.4888 15.2813L20.0263 16.7763C18.8563 17.9625 18.1251 18.9375 18.1251 21.375H14.8751V20.5625C14.8751 18.775 15.6063 17.15 16.7763 15.9638L18.7913 13.9163C19.3926 13.3313 19.7501 12.5188 19.7501 11.625C19.7501 9.8375 18.2876 8.375 16.5001 8.375C14.7126 8.375 13.2501 9.8375 13.2501 11.625H10.0001C10.0001 8.03375 12.9088 5.125 16.5001 5.125C20.0913 5.125 23.0001 8.03375 23.0001 11.625C23.0001 13.055 22.4151 14.355 21.4888 15.2813Z" fill="#4E4E4E" fill-opacity="0.22"/>
</svg>
