<svg width="300" height="319" viewBox="0 0 300 319" fill="none" xmlns="http://www.w3.org/2000/svg">
<path fill-rule="evenodd" clip-rule="evenodd" d="M6.61923 26.2978C25.476 -2.05532 69.6409 6.77254 103.446 2.47731C129.812 -0.872573 154.748 1.72619 181.225 4.11291C216.155 7.26156 258.302 -6.42749 282.836 18.6479C307.193 43.5417 298.836 85.3206 294.451 119.834C290.597 150.16 271.651 174.124 259.516 202.173C243.253 239.765 247.852 293.347 211.342 311.935C175.439 330.215 131.774 304.581 96.3905 285.225C66.3134 268.772 42.6104 242.765 28.1203 211.708C15.5952 184.862 25.1808 154.7 21.7698 125.286C17.8284 91.298 -12.3173 54.7708 6.61923 26.2978Z" fill="#FFE1AA"/>
</svg>
