<svg width="470" height="470" viewBox="0 0 470 470" fill="none" xmlns="http://www.w3.org/2000/svg">
<path fill-rule="evenodd" clip-rule="evenodd" d="M117.693 113.414C141.907 89.4731 183.365 107.072 217.339 109.719C243.836 111.784 267.727 119.384 293.171 127.089C326.737 137.254 370.784 132.394 389.725 161.923C408.529 191.238 391.876 230.455 380.584 263.363C370.662 292.278 347.252 311.902 329.682 336.909C306.135 370.423 299.775 423.825 260.255 434.625C221.392 445.246 183.831 411.292 153.106 385.165C126.989 362.956 109.051 332.683 101.158 299.333C94.3359 270.505 109.837 242.914 112.461 213.419C115.492 179.337 93.3774 137.457 117.693 113.414Z" fill="#FFE1AA"/>
</svg>
