<svg width="313" height="326" viewBox="0 0 313 326" fill="none" xmlns="http://www.w3.org/2000/svg">
<path fill-rule="evenodd" clip-rule="evenodd" d="M56.0172 220.642C35.8206 189.002 -8.39 160.914 2.22999 124.859C13.1612 87.7478 69.9857 92.2509 100.767 68.7171C126.164 49.2996 133.02 3.77906 164.819 0.551344C196.804 -2.69527 216.613 34.4677 241.747 54.4071C261.518 70.0919 283.7 82.5172 295.939 104.572C308.693 127.555 315.854 154.005 311.41 179.939C306.942 206.017 287.149 224.998 271.625 246.465C251.935 273.693 240.76 312.016 208.662 322.022C175.894 332.237 140.21 315.274 111.679 296.326C84.9198 278.553 73.2882 247.7 56.0172 220.642Z" fill="#B8E8F2"/>
</svg>
