<svg width="62" height="62" viewBox="0 0 62 62" fill="none" xmlns="http://www.w3.org/2000/svg">
<rect y="0.822845" width="61.1143" height="61.1143" rx="8" fill="#F9EDED"/>
<g clip-path="url(#clip0_111_13)">
<path d="M37.5167 15.9561L29.209 35.9837C29.4698 35.9942 29.7336 36 30.0002 36C35.0254 36 39.0991 34.089 39.0991 31.7317C39.0991 29.3743 39.0991 15.9561 39.0991 15.9561H37.5167V15.9561Z" fill="#A2B1B7"/>
<path d="M37.5163 31.7317C37.5163 29.3743 37.5163 15.9561 37.5163 15.9561H20.9009C20.9009 15.9561 20.9009 29.3743 20.9009 31.7317C20.9009 33.9639 24.5539 35.7956 29.2086 35.9838C33.8632 35.7956 37.5163 33.9639 37.5163 31.7317Z" fill="#C4D3D9"/>
<path d="M39.0991 15.9561C39.0991 13.7712 35.0254 12 30.0002 12L28.9453 15.9561L30.0002 19.9121V31.7802C30.0002 32.3629 30.4725 32.8352 31.0552 32.8352C31.6378 32.8352 32.1101 32.3629 32.1101 31.7802V19.805C32.6585 19.7484 33.1876 19.6702 33.6925 19.5726V28.6154C33.6925 29.1981 34.1648 29.6703 34.7475 29.6703C35.3301 29.6703 35.8024 29.198 35.8024 28.6154V19.0034C37.8163 18.2778 39.0991 17.1821 39.0991 15.9561Z" fill="#E0315B"/>
<path d="M29.9998 12C24.9746 12 20.9009 13.7712 20.9009 15.9561C20.9009 17.1821 22.1838 18.2778 24.1976 19.0034V25.4505C24.1976 26.0332 24.6699 26.5055 25.2525 26.5055C25.8351 26.5055 26.3074 26.0332 26.3074 25.4505V19.5726C27.4359 19.7907 28.6851 19.9121 29.9997 19.9121V12H29.9998Z" fill="#EA5A7D"/>
<path d="M29.9998 13.5824C25.9942 13.5824 22.7471 14.6451 22.7471 15.956C22.7471 16.3884 23.1005 16.7937 23.7176 17.1429H36.282C36.8991 16.7937 37.2525 16.3884 37.2525 15.956C37.2525 14.6451 34.0054 13.5824 29.9998 13.5824Z" fill="#F5849F"/>
<path d="M23.7178 17.1429C24.9718 17.8523 27.3155 18.3297 30 18.3297C32.6844 18.3297 35.0281 17.8523 36.2821 17.1429C35.0281 16.4334 32.6845 15.9561 30 15.9561C27.3154 15.9561 24.9718 16.4334 23.7178 17.1429Z" fill="#E0315B"/>
</g>
<path d="M24.1722 46.5043H25.941L29.5983 56H27.8162L26.9252 53.4864H23.1349L22.2438 56H20.5282L24.1722 46.5043ZM23.5871 52.223H26.4863L25.0633 48.1402H25.0234L23.5871 52.223ZM30.855 49.1243H32.278V50.4542H32.3046C32.3489 50.268 32.4332 50.0863 32.5573 49.909C32.6903 49.7316 32.8454 49.572 33.0228 49.4302C33.2089 49.2795 33.4129 49.1598 33.6345 49.0711C33.8562 48.9824 34.0823 48.9381 34.3128 48.9381C34.4901 48.9381 34.6098 48.9425 34.6719 48.9514C34.7428 48.9603 34.8137 48.9691 34.8846 48.978V50.4409C34.7783 50.4232 34.6674 50.4099 34.5522 50.401C34.4458 50.3833 34.3394 50.3744 34.233 50.3744C33.9759 50.3744 33.732 50.4276 33.5015 50.534C33.2799 50.6315 33.0848 50.7823 32.9164 50.9862C32.7479 51.1812 32.6149 51.4251 32.5174 51.7176C32.4199 52.0102 32.3711 52.3471 32.3711 52.7284V56H30.855V49.1243ZM35.4041 49.1243H36.5479V47.0629H38.064V49.1243H39.4338V50.2547H38.064V53.9253C38.064 54.0849 38.0684 54.2223 38.0773 54.3376C38.095 54.4529 38.1261 54.5504 38.1704 54.6302C38.2236 54.71 38.2989 54.772 38.3965 54.8164C38.494 54.8518 38.627 54.8696 38.7955 54.8696C38.9018 54.8696 39.0082 54.8696 39.1146 54.8696C39.221 54.8607 39.3274 54.843 39.4338 54.8164V55.9867C39.2654 56.0044 39.1013 56.0222 38.9417 56.0399C38.7822 56.0576 38.6181 56.0665 38.4497 56.0665C38.0507 56.0665 37.7271 56.031 37.4788 55.9601C37.2394 55.8803 37.0488 55.7695 36.907 55.6276C36.774 55.4769 36.6809 55.2907 36.6277 55.0691C36.5833 54.8474 36.5567 54.5947 36.5479 54.311V50.2547H35.4041V49.1243Z" fill="#4E4E4E"/>
<defs>
<clipPath id="clip0_111_13">
<rect width="24" height="24" fill="white" transform="translate(18 12)"/>
</clipPath>
</defs>
</svg>
