<svg width="63" height="62" viewBox="0 0 63 62" fill="none" xmlns="http://www.w3.org/2000/svg">
<rect x="0.942383" y="0.822845" width="61.1143" height="61.1143" rx="8" fill="#FFF9D9"/>
<path d="M15.2498 46.5043H19.439C20.1129 46.5043 20.6626 46.6019 21.0882 46.7969C21.5137 46.992 21.8418 47.2358 22.0723 47.5284C22.3028 47.821 22.458 48.1402 22.5378 48.4859C22.6264 48.8317 22.6708 49.1509 22.6708 49.4435C22.6708 49.7361 22.6264 50.0552 22.5378 50.401C22.458 50.7379 22.3028 51.0527 22.0723 51.3453C21.8418 51.6379 21.5137 51.8817 21.0882 52.0767C20.6626 52.2629 20.1129 52.356 19.439 52.356H16.9122V56H15.2498V46.5043ZM16.9122 50.9995H19.346C19.5321 50.9995 19.7228 50.9729 19.9178 50.9197C20.1129 50.8665 20.2902 50.7823 20.4498 50.667C20.6182 50.5429 20.7512 50.3833 20.8488 50.1882C20.9552 49.9843 21.0084 49.7316 21.0084 49.4302C21.0084 49.1199 20.964 48.8627 20.8754 48.6588C20.7867 48.4549 20.667 48.2953 20.5163 48.1801C20.3656 48.0559 20.1927 47.9717 19.9976 47.9274C19.8026 47.883 19.5942 47.8609 19.3726 47.8609H16.9122V50.9995ZM30.2313 54.4706C30.2313 54.6568 30.2534 54.7898 30.2978 54.8696C30.351 54.9494 30.4485 54.9893 30.5904 54.9893C30.6347 54.9893 30.6879 54.9893 30.7499 54.9893C30.812 54.9893 30.8829 54.9804 30.9627 54.9627V56.0133C30.9095 56.031 30.8386 56.0488 30.7499 56.0665C30.6701 56.0931 30.5859 56.1153 30.4973 56.133C30.4086 56.1507 30.3199 56.164 30.2313 56.1729C30.1426 56.1818 30.0672 56.1862 30.0052 56.1862C29.6949 56.1862 29.4378 56.1241 29.2338 56C29.0299 55.8759 28.8969 55.6587 28.8349 55.3483C28.5334 55.6409 28.161 55.8537 27.7177 55.9867C27.2833 56.1197 26.8621 56.1862 26.4543 56.1862C26.144 56.1862 25.847 56.1419 25.5632 56.0532C25.2795 55.9734 25.0268 55.8537 24.8052 55.6941C24.5924 55.5257 24.4195 55.3173 24.2865 55.0691C24.1624 54.8119 24.1003 54.5149 24.1003 54.178C24.1003 53.7524 24.1757 53.4066 24.3264 53.1407C24.486 52.8747 24.6899 52.6663 24.9382 52.5156C25.1953 52.3649 25.479 52.2585 25.7893 52.1964C26.1085 52.1255 26.4277 52.0723 26.7469 52.0368C27.0217 51.9836 27.2833 51.9482 27.5315 51.9304C27.7798 51.9038 27.997 51.8639 28.1832 51.8107C28.3782 51.7575 28.529 51.6777 28.6354 51.5714C28.7506 51.4561 28.8083 51.2876 28.8083 51.066C28.8083 50.8709 28.7595 50.7113 28.662 50.5872C28.5733 50.4631 28.458 50.37 28.3162 50.3079C28.1832 50.237 28.0325 50.1927 27.864 50.1749C27.6956 50.1483 27.536 50.135 27.3852 50.135C26.9597 50.135 26.6094 50.2237 26.3346 50.401C26.0597 50.5783 25.9046 50.8532 25.8691 51.2256H24.353C24.3796 50.7823 24.486 50.4143 24.6722 50.1217C24.8584 49.8292 25.0933 49.5942 25.3771 49.4169C25.6696 49.2396 25.9977 49.1154 26.3612 49.0445C26.7247 48.9736 27.0971 48.9381 27.4783 48.9381C27.8152 48.9381 28.1477 48.9736 28.4758 49.0445C28.8038 49.1154 29.0964 49.2307 29.3535 49.3903C29.6195 49.5499 29.8323 49.7582 29.9919 50.0153C30.1515 50.2636 30.2313 50.5695 30.2313 50.933V54.4706ZM28.7152 52.5555C28.4846 52.7062 28.2009 52.7993 27.864 52.8348C27.5271 52.8614 27.1902 52.9057 26.8533 52.9678C26.6937 52.9944 26.5385 53.0343 26.3878 53.0875C26.2371 53.1318 26.1041 53.1983 25.9888 53.287C25.8736 53.3668 25.7805 53.4776 25.7095 53.6194C25.6475 53.7524 25.6164 53.9165 25.6164 54.1115C25.6164 54.28 25.6652 54.4218 25.7627 54.5371C25.8603 54.6523 25.9755 54.7454 26.1085 54.8164C26.2504 54.8784 26.4011 54.9228 26.5607 54.9494C26.7291 54.976 26.8799 54.9893 27.0129 54.9893C27.1813 54.9893 27.3631 54.9671 27.5581 54.9228C27.7532 54.8784 27.9349 54.8031 28.1034 54.6967C28.2807 54.5903 28.427 54.4573 28.5423 54.2977C28.6575 54.1292 28.7152 53.9253 28.7152 53.6859V52.5555ZM32.4278 49.1243H33.8508V50.4542H33.8774C33.9218 50.268 34.006 50.0863 34.1301 49.909C34.2631 49.7316 34.4183 49.572 34.5956 49.4302C34.7818 49.2795 34.9857 49.1598 35.2074 49.0711C35.429 48.9824 35.6551 48.9381 35.8856 48.9381C36.063 48.9381 36.1826 48.9425 36.2447 48.9514C36.3156 48.9603 36.3866 48.9691 36.4575 48.978V50.4409C36.3511 50.4232 36.2403 50.4099 36.125 50.401C36.0186 50.3833 35.9122 50.3744 35.8058 50.3744C35.5487 50.3744 35.3049 50.4276 35.0744 50.534C34.8527 50.6315 34.6577 50.7823 34.4892 50.9862C34.3208 51.1812 34.1878 51.4251 34.0902 51.7176C33.9927 52.0102 33.9439 52.3471 33.9439 52.7284V56H32.4278V49.1243ZM36.977 49.1243H38.1207V47.0629H39.6368V49.1243H41.0067V50.2547H39.6368V53.9253C39.6368 54.0849 39.6413 54.2223 39.6501 54.3376C39.6679 54.4529 39.6989 54.5504 39.7432 54.6302C39.7964 54.71 39.8718 54.772 39.9693 54.8164C40.0669 54.8518 40.1998 54.8696 40.3683 54.8696C40.4747 54.8696 40.5811 54.8696 40.6875 54.8696C40.7939 54.8607 40.9003 54.843 41.0067 54.8164V55.9867C40.8382 56.0044 40.6742 56.0222 40.5146 56.0399C40.355 56.0576 40.191 56.0665 40.0225 56.0665C39.6235 56.0665 39.2999 56.031 39.0517 55.9601C38.8123 55.8803 38.6217 55.7695 38.4798 55.6276C38.3468 55.4769 38.2537 55.2907 38.2005 55.0691C38.1562 54.8474 38.1296 54.5947 38.1207 54.311V50.2547H36.977V49.1243ZM41.9045 49.1243H43.5669L45.3623 54.2578H45.3889L47.1311 49.1243H48.7137L46.0405 56.3724C45.9164 56.6827 45.7923 56.9797 45.6682 57.2634C45.5529 57.5471 45.4066 57.7954 45.2293 58.0082C45.0608 58.2298 44.848 58.4027 44.5909 58.5269C44.3338 58.6598 44.0057 58.7263 43.6068 58.7263C43.2521 58.7263 42.9019 58.6997 42.5561 58.6465V57.3698C42.6803 57.3876 42.8 57.4053 42.9152 57.423C43.0305 57.4496 43.1502 57.4629 43.2743 57.4629C43.4516 57.4629 43.5979 57.4408 43.7132 57.3964C43.8284 57.3521 43.9215 57.2856 43.9924 57.1969C44.0722 57.1171 44.1387 57.0196 44.1919 56.9043C44.2451 56.7891 44.2939 56.6561 44.3382 56.5054L44.5111 55.9734L41.9045 49.1243Z" fill="#4E4E4E"/>
<path d="M38.4648 28.0757V35.7351C38.4648 35.9676 38.2757 36.1567 38.0432 36.1567C37.8106 36.1567 37.6215 35.9676 37.6215 35.7351V34.0486C37.6215 33.3512 37.0541 32.7837 36.3567 32.7837C35.6592 32.7837 35.0918 33.3512 35.0918 34.0486V36.5783C35.0918 36.8112 35.2806 37 35.5134 37C35.7463 37 35.9351 36.8112 35.9351 36.5783V34.0486C35.9351 33.8161 36.1242 33.627 36.3567 33.627C36.5892 33.627 36.7783 33.8161 36.7783 34.0486V35.7351C36.7783 36.4325 37.3457 37 38.0432 37C38.7407 37 39.3081 36.4325 39.3081 35.7351V28.0757H38.4648Z" fill="#AFC3C3"/>
<path d="M31.5786 28.427V36.5784C31.5786 36.8112 31.7674 37 32.0002 37C32.2331 37 32.4219 36.8113 32.4219 36.5784V28.427H31.5786Z" fill="#D7E1E1"/>
<path d="M27.6433 32.7838C26.9458 32.7838 26.3784 33.3512 26.3784 34.0486V35.7351C26.3784 35.9677 26.1893 36.1568 25.9568 36.1568C25.7242 36.1568 25.5351 35.9677 25.5351 35.7351V28.0757H24.6919V35.7351C24.6919 36.4325 25.2593 37 25.9568 37C26.6542 37 27.2216 36.4325 27.2216 35.7351V34.0486C27.2216 33.8161 27.4107 33.627 27.6433 33.627C27.8758 33.627 28.0649 33.8161 28.0649 34.0486V36.5783C28.0649 36.8112 28.2536 37 28.4865 37C28.7194 37 28.9082 36.8112 28.9082 36.5783V34.0486C28.9082 33.3512 28.3407 32.7838 27.6433 32.7838Z" fill="#D7E1E1"/>
<path d="M38.8864 26.9514L38.3242 27.7946L38.8864 28.6378H40.5729C40.5729 27.7064 39.8178 26.9514 38.8864 26.9514Z" fill="#10744A"/>
<path d="M37.2002 28.6379H38.8867V26.9514C37.9552 26.9514 37.2002 27.7064 37.2002 28.6379Z" fill="#169B62"/>
<path d="M38.8867 12.6865V26.9514C42.3255 25.7358 44.7894 22.4442 44.7894 18.5892C44.7894 15.3292 42.1467 12.6865 38.8867 12.6865Z" fill="#10744A"/>
<path d="M43.1028 18.5892C43.1028 15.3292 41.2151 12.6865 38.8866 12.6865C35.6266 12.6865 32.9839 15.3292 32.9839 18.5892C32.9839 22.4442 35.4478 25.7358 38.8866 26.9514C41.3428 25.7358 43.1028 22.4442 43.1028 18.5892Z" fill="#169B62"/>
<path d="M25.1134 26.9514L24.5513 27.7946L25.1134 28.6378H26.7999C26.7999 27.7064 26.0449 26.9514 25.1134 26.9514Z" fill="#FF6638"/>
<path d="M23.4272 28.6379H25.1137V26.9514C24.1823 26.9514 23.4272 27.7064 23.4272 28.6379Z" fill="#FF883E"/>
<path d="M25.2571 12.6883C25.2094 12.6872 25.1616 12.6865 25.1136 12.6865C21.8536 12.6865 19.2109 15.3292 19.2109 18.5892C19.2109 22.4442 21.6749 25.7358 25.1136 26.9514C25.7692 26.7196 26.3893 26.4122 26.9637 26.04L25.2571 12.6883Z" fill="#FF883E"/>
<path d="M31.016 18.5892C31.016 15.3772 28.4505 12.7645 25.2567 12.6883C24.1965 14.0983 23.5674 15.85 23.5674 17.746C23.5674 20.915 24.8367 23.8736 26.9633 26.0401C29.4018 24.46 31.016 21.7093 31.016 18.5892Z" fill="#FF6638"/>
<path d="M32.0001 27.3027L31.438 28.1459L32.0001 28.9892H33.6866C33.6866 28.0577 32.9316 27.3027 32.0001 27.3027Z" fill="#FFE1AA"/>
<path d="M30.3135 28.9892H32V27.3027C31.0685 27.3027 30.3135 28.0577 30.3135 28.9892Z" fill="#FFF5E3"/>
<path d="M32 11V27.3027C35.93 25.9135 38.7459 22.1517 38.7459 17.7459C38.7459 14.0203 35.7257 11 32 11Z" fill="#FFE1AA"/>
<path d="M37.0593 17.7459C37.0593 14.0203 34.7941 11 31.9998 11C28.2742 11 25.2539 14.0203 25.2539 17.7459C25.2539 22.1517 28.0698 25.9135 31.9998 27.3027C34.9473 25.9135 37.0593 22.1517 37.0593 17.7459Z" fill="#FFF5E3"/>
<rect x="0.914062" y="0.822845" width="61.1143" height="61.1143" rx="8" fill="#FFECEC"/>
<path d="M20.6624 50.4808H23.3755C23.7744 50.4808 24.1069 50.37 24.3729 50.1483C24.6389 49.9178 24.7719 49.5898 24.7719 49.1642C24.7719 48.6854 24.6522 48.3485 24.4128 48.1535C24.1734 47.9584 23.8276 47.8609 23.3755 47.8609H20.6624V50.4808ZM19 46.5043H23.6148C24.466 46.5043 25.1487 46.6994 25.6629 47.0895C26.1772 47.4796 26.4343 48.0692 26.4343 48.8583C26.4343 49.3371 26.3146 49.7494 26.0752 50.0951C25.8447 50.4321 25.5122 50.6936 25.0778 50.8798V50.9064C25.6629 51.0305 26.1062 51.3098 26.4077 51.7442C26.7091 52.1698 26.8599 52.7062 26.8599 53.3535C26.8599 53.7258 26.7934 54.076 26.6604 54.4041C26.5274 54.7233 26.319 55.0026 26.0353 55.2419C25.7516 55.4725 25.3881 55.6587 24.9448 55.8005C24.5015 55.9335 23.9739 56 23.3622 56H19V46.5043ZM20.6624 54.6435H23.6015C24.1069 54.6435 24.497 54.5149 24.7719 54.2578C25.0556 53.9918 25.1975 53.6194 25.1975 53.1407C25.1975 52.6708 25.0556 52.3117 24.7719 52.0634C24.497 51.8063 24.1069 51.6777 23.6015 51.6777H20.6624V54.6435ZM34.475 54.4706C34.475 54.6568 34.4972 54.7898 34.5415 54.8696C34.5947 54.9494 34.6922 54.9893 34.8341 54.9893C34.8784 54.9893 34.9316 54.9893 34.9937 54.9893C35.0558 54.9893 35.1267 54.9804 35.2065 54.9627V56.0133C35.1533 56.031 35.0824 56.0488 34.9937 56.0665C34.9139 56.0931 34.8297 56.1153 34.741 56.133C34.6523 56.1507 34.5637 56.164 34.475 56.1729C34.3864 56.1818 34.311 56.1862 34.2489 56.1862C33.9386 56.1862 33.6815 56.1241 33.4776 56C33.2737 55.8759 33.1407 55.6587 33.0786 55.3483C32.7772 55.6409 32.4048 55.8537 31.9615 55.9867C31.527 56.1197 31.1059 56.1862 30.698 56.1862C30.3877 56.1862 30.0907 56.1419 29.807 56.0532C29.5233 55.9734 29.2706 55.8537 29.0489 55.6941C28.8361 55.5257 28.6633 55.3173 28.5303 55.0691C28.4061 54.8119 28.3441 54.5149 28.3441 54.178C28.3441 53.7524 28.4194 53.4066 28.5702 53.1407C28.7298 52.8747 28.9337 52.6663 29.1819 52.5156C29.439 52.3649 29.7228 52.2585 30.0331 52.1964C30.3523 52.1255 30.6714 52.0723 30.9906 52.0368C31.2655 51.9836 31.527 51.9482 31.7753 51.9304C32.0235 51.9038 32.2407 51.8639 32.4269 51.8107C32.622 51.7575 32.7727 51.6777 32.8791 51.5714C32.9944 51.4561 33.052 51.2876 33.052 51.066C33.052 50.8709 33.0032 50.7113 32.9057 50.5872C32.817 50.4631 32.7018 50.37 32.5599 50.3079C32.4269 50.237 32.2762 50.1927 32.1078 50.1749C31.9393 50.1483 31.7797 50.135 31.629 50.135C31.2034 50.135 30.8532 50.2237 30.5783 50.401C30.3035 50.5783 30.1483 50.8532 30.1129 51.2256H28.5968C28.6234 50.7823 28.7298 50.4143 28.9159 50.1217C29.1021 49.8292 29.3371 49.5942 29.6208 49.4169C29.9134 49.2396 30.2414 49.1154 30.6049 49.0445C30.9685 48.9736 31.3408 48.9381 31.7221 48.9381C32.059 48.9381 32.3915 48.9736 32.7195 49.0445C33.0476 49.1154 33.3402 49.2307 33.5973 49.3903C33.8633 49.5499 34.076 49.7582 34.2356 50.0153C34.3952 50.2636 34.475 50.5695 34.475 50.933V54.4706ZM32.9589 52.5555C32.7284 52.7062 32.4447 52.7993 32.1078 52.8348C31.7708 52.8614 31.4339 52.9057 31.097 52.9678C30.9374 52.9944 30.7823 53.0343 30.6315 53.0875C30.4808 53.1318 30.3478 53.1983 30.2326 53.287C30.1173 53.3668 30.0242 53.4776 29.9533 53.6194C29.8912 53.7524 29.8602 53.9165 29.8602 54.1115C29.8602 54.28 29.9089 54.4218 30.0065 54.5371C30.104 54.6523 30.2193 54.7454 30.3523 54.8164C30.4941 54.8784 30.6448 54.9228 30.8044 54.9494C30.9729 54.976 31.1236 54.9893 31.2566 54.9893C31.4251 54.9893 31.6068 54.9671 31.8019 54.9228C31.9969 54.8784 32.1787 54.8031 32.3471 54.6967C32.5245 54.5903 32.6708 54.4573 32.786 54.2977C32.9013 54.1292 32.9589 53.9253 32.9589 53.6859V52.5555ZM36.6716 49.1243H38.0946V50.4542H38.1212C38.1655 50.268 38.2498 50.0863 38.3739 49.909C38.5069 49.7316 38.662 49.572 38.8394 49.4302C39.0255 49.2795 39.2295 49.1598 39.4511 49.0711C39.6728 48.9824 39.8989 48.9381 40.1294 48.9381C40.3067 48.9381 40.4264 48.9425 40.4885 48.9514C40.5594 48.9603 40.6303 48.9691 40.7012 48.978V50.4409C40.5949 50.4232 40.484 50.4099 40.3688 50.401C40.2624 50.3833 40.156 50.3744 40.0496 50.3744C39.7925 50.3744 39.5486 50.4276 39.3181 50.534C39.0965 50.6315 38.9014 50.7823 38.733 50.9862C38.5645 51.1812 38.4315 51.4251 38.334 51.7176C38.2365 52.0102 38.1877 52.3471 38.1877 52.7284V56H36.6716V49.1243ZM43.056 53.7923C43.1004 54.2356 43.2688 54.546 43.5614 54.7233C43.854 54.9006 44.2042 54.9893 44.612 54.9893C44.7539 54.9893 44.9135 54.9804 45.0908 54.9627C45.277 54.9361 45.4499 54.8917 45.6095 54.8297C45.7691 54.7676 45.8976 54.6789 45.9952 54.5637C46.1016 54.4396 46.1503 54.28 46.1415 54.0849C46.1326 53.8899 46.0617 53.7303 45.9287 53.6061C45.7957 53.482 45.6228 53.3845 45.41 53.3136C45.2061 53.2338 44.9711 53.1673 44.7051 53.1141C44.4392 53.0609 44.1687 53.0032 43.8939 52.9412C43.6102 52.8791 43.3353 52.8038 43.0693 52.7151C42.8122 52.6264 42.5773 52.5067 42.3645 52.356C42.1606 52.2053 41.9965 52.0147 41.8724 51.7841C41.7483 51.5448 41.6862 51.2522 41.6862 50.9064C41.6862 50.534 41.7749 50.2237 41.9522 49.9754C42.1384 49.7183 42.3689 49.5144 42.6438 49.3637C42.9275 49.2041 43.2378 49.0933 43.5747 49.0312C43.9205 48.9691 44.2485 48.9381 44.5589 48.9381C44.9135 48.9381 45.2504 48.978 45.5696 49.0578C45.8976 49.1287 46.1902 49.2484 46.4473 49.4169C46.7133 49.5853 46.9305 49.807 47.099 50.0818C47.2763 50.3478 47.3872 50.6714 47.4315 51.0527H45.8489C45.7779 50.6892 45.6095 50.4454 45.3435 50.3212C45.0864 50.1971 44.7894 50.135 44.4525 50.135C44.3461 50.135 44.2175 50.1439 44.0668 50.1616C43.9249 50.1794 43.7875 50.2148 43.6545 50.268C43.5304 50.3124 43.424 50.3833 43.3353 50.4808C43.2467 50.5695 43.2023 50.6892 43.2023 50.8399C43.2023 51.0261 43.2644 51.1768 43.3885 51.2921C43.5215 51.4073 43.69 51.5049 43.8939 51.5847C44.1067 51.6556 44.3461 51.7176 44.612 51.7708C44.878 51.824 45.1529 51.8817 45.4366 51.9437C45.7115 52.0058 45.9819 52.0812 46.2479 52.1698C46.5138 52.2585 46.7488 52.3782 46.9527 52.5289C47.1655 52.6796 47.334 52.8702 47.4581 53.1008C47.5911 53.3313 47.6576 53.615 47.6576 53.9519C47.6576 54.3598 47.5645 54.7055 47.3783 54.9893C47.1921 55.273 46.9483 55.5035 46.6468 55.6808C46.3542 55.8581 46.0262 55.9867 45.6627 56.0665C45.2992 56.1463 44.9401 56.1862 44.5854 56.1862C44.151 56.1862 43.7476 56.1374 43.3752 56.0399C43.0117 55.9424 42.6925 55.7961 42.4177 55.601C42.1517 55.3971 41.9389 55.1488 41.7793 54.8563C41.6286 54.5548 41.5488 54.2002 41.5399 53.7923H43.056Z" fill="#4E4E4E"/>
<path d="M25.6353 13.5678L25.6396 13.572C26.2644 13.6028 26.8552 13.8657 27.2963 14.3093C27.9627 15.063 28.4457 15.9608 28.7073 16.9322L26.5251 19.3644C25.4786 19.1165 24.5093 18.6144 23.7031 17.9025C23.2581 17.4624 22.9949 16.871 22.9658 16.2458L23.5506 14.161L25.6353 13.5678Z" fill="#DC1500"/>
<path d="M26.2584 11.8898C26.2637 12.5018 26.0469 13.095 25.6482 13.5593C25.644 13.5636 25.6397 13.5678 25.6355 13.5678C24.8897 14.3051 23.5507 14.161 23.5507 14.161C23.5507 14.161 23.4067 12.8051 24.1524 12.0636C24.6167 11.6648 25.2099 11.448 25.8219 11.4534C25.939 11.4489 26.0526 11.4935 26.1354 11.5763C26.2183 11.6592 26.2628 11.7728 26.2584 11.8898V11.8898Z" fill="#0FB13F"/>
<path d="M22.9661 16.2458L22.9534 16.2585C22.4888 16.6562 21.8955 16.8715 21.2839 16.8644C21.1669 16.8689 21.0532 16.8243 20.9704 16.7415C20.8876 16.6586 20.843 16.545 20.8475 16.428C20.8401 15.8156 21.0571 15.2217 21.4576 14.7585C22.1992 14.0127 23.5509 14.161 23.5509 14.161C23.5509 14.161 23.6992 15.4958 22.9661 16.2458V16.2458Z" fill="#0FB13F"/>
<path d="M23.5527 14.5852C23.4385 14.5854 23.3292 14.5396 23.2493 14.4581C21.8688 13.0403 21.2764 12.9339 21.2709 12.9335C21.1603 12.9329 21.0546 12.8875 20.978 12.8076C20.9015 12.7278 20.8605 12.6203 20.8645 12.5098C20.8723 12.2723 21.068 12.0843 21.3056 12.086C21.4972 12.086 22.2484 12.2131 23.8565 13.8657C23.9761 13.9877 24.0107 14.1696 23.9443 14.327C23.8779 14.4844 23.7235 14.5865 23.5527 14.586V14.5852Z" fill="#4C8056"/>
<path d="M26.3559 16.0847C26.5899 16.0847 26.7796 15.895 26.7796 15.661C26.7796 15.427 26.5899 15.2373 26.3559 15.2373C26.1218 15.2373 25.9321 15.427 25.9321 15.661C25.9321 15.895 26.1218 16.0847 26.3559 16.0847Z" fill="#FFCB00"/>
<path d="M25.0844 17.3559C25.3184 17.3559 25.5081 17.1662 25.5081 16.9322C25.5081 16.6982 25.3184 16.5085 25.0844 16.5085C24.8504 16.5085 24.6606 16.6982 24.6606 16.9322C24.6606 17.1662 24.8504 17.3559 25.0844 17.3559Z" fill="#FFCB00"/>
<path d="M28.343 35.4407C27.6888 35.9204 26.8608 36.0978 26.0676 35.928C25.8706 35.8765 25.6812 35.7996 25.504 35.6992C25.3251 35.7989 25.1343 35.8757 24.9362 35.928C23.1184 36.3941 21.0294 34.5805 20.271 31.8687C19.5125 29.1568 20.3811 26.5805 22.2032 26.1144C22.9721 25.9439 23.7774 26.1071 24.4193 26.5636C25.0801 26.9831 25.9237 26.9831 26.5845 26.5636C26.8065 26.4229 27.0422 26.3051 27.2879 26.2119L28.8981 30.4915C28.9066 30.5593 28.3133 35.3814 28.343 35.4407V35.4407Z" fill="#DC1500"/>
<path d="M21.9066 31.8377C21.7164 31.8377 21.5495 31.7108 21.4986 31.5276C21.0651 29.9716 21.3206 28.7076 21.7045 28.0437C21.8688 27.7092 22.163 27.4566 22.5185 27.3449C22.6652 27.3071 22.8209 27.3504 22.927 27.4585C23.0331 27.5666 23.0735 27.7231 23.033 27.8691C22.9924 28.015 22.877 28.1283 22.7303 28.1661C22.6007 28.229 22.4976 28.3357 22.4392 28.4674C22.0441 29.3627 22 30.3738 22.3159 31.3C22.3516 31.4279 22.3254 31.5651 22.245 31.6707C22.1646 31.7763 22.0393 31.8381 21.9066 31.8377Z" fill="white"/>
<path d="M25.7541 25.5297C25.6016 26.1356 24.6186 26.4153 23.5508 26.1525C22.8135 25.9703 21.7457 25.1271 21.1609 24.6271C21.0776 24.5576 21.0418 24.4462 21.069 24.3412C21.0962 24.2361 21.1815 24.1561 21.288 24.1356C22.0338 23.9831 23.3601 23.767 24.0974 23.9492C25.1652 24.2119 25.9067 24.9195 25.7541 25.5297V25.5297Z" fill="#0FB13F"/>
<path d="M37.9023 35.5127C37.7619 35.8093 37.4635 35.9989 37.1353 36H29.1353C28.7789 36.0019 28.4606 35.7772 28.343 35.4407C28.3152 35.379 28.298 35.3131 28.2921 35.2458L27.2879 26.2119L26.7031 20.9407L28.0506 21.6144C29.1175 22.1483 30.3735 22.1483 31.4404 21.6144C32.5065 21.0833 33.76 21.0833 34.826 21.6144L34.8302 21.6186C35.8966 22.1483 37.1494 22.1483 38.2158 21.6186L39.5675 20.9407L38.7752 28.072L37.9023 35.5127Z" fill="#FF9700"/>
<path d="M39.9107 17.8729L39.5675 20.9407L38.2158 21.6186C37.1494 22.1483 35.8966 22.1483 34.8302 21.6186L34.826 21.6144C33.7599 21.0833 32.5064 21.0833 31.4404 21.6144C30.3735 22.1483 29.1174 22.1483 28.0506 21.6144L26.7031 20.9407H26.6989L26.5251 19.3644L26.3599 17.8729C26.334 17.6333 26.4111 17.3941 26.5719 17.2147C26.7328 17.0353 26.9622 16.9326 27.2031 16.9322H39.0675C39.3084 16.9326 39.5379 17.0353 39.6987 17.2147C39.8595 17.3941 39.9366 17.6333 39.9107 17.8729V17.8729Z" fill="white"/>
<path d="M30.1694 34.3051C30.0307 34.3051 29.9008 34.2373 29.8216 34.1235C29.7424 34.0097 29.7238 33.8644 29.7719 33.7343L36.9753 14.2428C37.0053 14.162 37.0593 14.0922 37.13 14.0428L41.3673 11.0767C41.5588 10.9511 41.8155 11.0005 41.9468 11.1882C42.0781 11.3758 42.0365 11.6339 41.8529 11.7708L37.7245 14.661L30.5669 34.0284C30.5053 34.1947 30.3467 34.3051 30.1694 34.3051V34.3051Z" fill="#FFCF53"/>
<path d="M29.9573 25.8305C30.5423 25.8305 31.0166 25.3563 31.0166 24.7712C31.0166 24.1862 30.5423 23.7119 29.9573 23.7119C29.3722 23.7119 28.8979 24.1862 28.8979 24.7712C28.8979 25.3563 29.3722 25.8305 29.9573 25.8305Z" fill="white"/>
<path d="M29.3217 28.3729C29.5557 28.3729 29.7454 28.1832 29.7454 27.9492C29.7454 27.7151 29.5557 27.5254 29.3217 27.5254C29.0877 27.5254 28.8979 27.7151 28.8979 27.9492C28.8979 28.1832 29.0877 28.3729 29.3217 28.3729Z" fill="white"/>
<path d="M29.7455 30.4916C29.9795 30.4916 30.1692 30.3018 30.1692 30.0678C30.1692 29.8338 29.9795 29.6441 29.7455 29.6441C29.5115 29.6441 29.3218 29.8338 29.3218 30.0678C29.3218 30.3018 29.5115 30.4916 29.7455 30.4916Z" fill="white"/>
<path d="M44.5042 34.4619C43.352 35.4606 41.8764 36.0072 40.3516 36C38.6623 36.0008 37.042 35.3301 35.8474 34.1355C34.6529 32.941 33.9822 31.3207 33.983 29.6314C33.9758 28.1066 34.5224 26.631 35.5211 25.4788C35.5965 25.386 35.7077 25.3293 35.8272 25.3229C35.9466 25.3164 36.0632 25.3607 36.1482 25.4449L37.0381 26.3348C35.2281 28.1627 35.2353 31.1097 37.0543 32.9287C38.8733 34.7477 41.8203 34.7549 43.6482 32.9449L44.5381 33.8347C44.6223 33.9197 44.6666 34.0364 44.6601 34.1558C44.6537 34.2753 44.597 34.3864 44.5042 34.4619V34.4619Z" fill="#FFCB00"/>
<path d="M43.6479 32.9449C42.979 33.616 42.1193 34.0644 41.1861 34.2288C40.9098 34.2833 40.6287 34.3103 40.3471 34.3093H40.3386C39.2502 34.3055 38.1977 33.9201 37.364 33.2204C37.1415 33.043 36.9397 32.8412 36.7623 32.6187C36.0626 31.785 35.6772 30.7325 35.6734 29.6441V29.6356C35.6724 29.354 35.6994 29.0729 35.7539 28.7966C35.9183 27.8635 36.3667 27.0037 37.0378 26.3348L43.6479 32.9449Z" fill="#F3D55B"/>
<path d="M41.1861 34.2288C40.9098 34.2833 40.6287 34.3103 40.3471 34.3093H40.3386L40.3344 30.2458L37.364 33.2204C37.1415 33.043 36.9397 32.8412 36.7623 32.6187L39.7369 29.6483L35.6734 29.6441V29.6356C35.6724 29.354 35.6994 29.0729 35.7539 28.7966L39.5039 28.8009L41.1818 30.4788L41.1861 34.2288Z" fill="#FF9700"/>
<path d="M25.5038 28.3686C25.2698 28.3686 25.0801 28.1789 25.0801 27.9449V27.0975C25.0801 24.9364 26.1614 23.9449 26.8063 23.5462C27.0047 23.4312 27.2586 23.4948 27.3792 23.6898C27.4999 23.8848 27.4435 24.1403 27.2521 24.2665C26.7572 24.572 25.9275 25.3458 25.9275 27.0966V27.9441C25.9278 28.0566 25.8832 28.1646 25.8037 28.2442C25.7242 28.3239 25.6163 28.3686 25.5038 28.3686V28.3686Z" fill="#805333"/>
<path d="M36.8855 16.9322L35.1101 21.7415C35.0169 21.7034 34.9236 21.6653 34.8304 21.6186L34.8262 21.6144C34.6656 21.5325 34.4983 21.4645 34.3262 21.411L35.9787 16.9322H36.8855Z" fill="#FF6711"/>
<path d="M34.8302 21.6187C34.9234 21.6653 35.0166 21.7034 35.1099 21.7415L30.5675 34.0297C30.5054 34.1958 30.3465 34.3057 30.1692 34.3051C30.1187 34.3049 30.0686 34.2963 30.0209 34.2797C29.8024 34.1961 29.6912 33.953 29.7709 33.7331L34.326 21.411C34.4981 21.4645 34.6654 21.5325 34.826 21.6144L34.8302 21.6187Z" fill="white"/>
</svg>
