<svg width="63" height="62" viewBox="0 0 63 62" fill="none" xmlns="http://www.w3.org/2000/svg">
<rect x="0.914307" width="61.1143" height="61.1143" rx="8" fill="#DEE7AB"/>
<path d="M19.4935 45.6815H21.1559V50.0038L25.3851 45.6815H27.4332L23.6429 49.4718L27.6992 55.1772H25.6245L22.5125 50.6421L21.1559 51.9853V55.1772H19.4935V45.6815ZM28.9901 45.6815H30.5062V47.1178H28.9901V45.6815ZM28.9901 48.3015H30.5062V55.1772H28.9901V48.3015ZM39.2001 55.1772H37.7638V54.2462H37.7372C37.5333 54.6452 37.2362 54.9333 36.8461 55.1107C36.456 55.2791 36.0437 55.3633 35.6093 55.3633C35.0685 55.3633 34.5941 55.2702 34.1863 55.0841C33.7873 54.889 33.4548 54.6275 33.1888 54.2994C32.9229 53.9714 32.7234 53.5857 32.5904 53.1424C32.4574 52.6902 32.3909 52.207 32.3909 51.6928C32.3909 51.0721 32.4751 50.5357 32.6436 50.0835C32.812 49.6314 33.0337 49.259 33.3085 48.9664C33.5922 48.6738 33.9114 48.461 34.2661 48.328C34.6296 48.1862 34.9975 48.1153 35.3699 48.1153C35.5827 48.1153 35.7999 48.1374 36.0216 48.1818C36.2432 48.2172 36.456 48.2793 36.6599 48.3679C36.8639 48.4566 37.0501 48.5719 37.2185 48.7137C37.3958 48.8467 37.5421 49.0063 37.6574 49.1925H37.684V45.6815H39.2001V55.1772ZM33.907 51.8124C33.907 52.105 33.9425 52.3932 34.0134 52.6769C34.0932 52.9606 34.2084 53.2133 34.3592 53.435C34.5188 53.6566 34.7183 53.8339 34.9576 53.9669C35.197 54.0999 35.4807 54.1664 35.8088 54.1664C36.1457 54.1664 36.4339 54.0955 36.6732 53.9536C36.9215 53.8118 37.121 53.6256 37.2717 53.3951C37.4313 53.1645 37.5466 52.9074 37.6175 52.6237C37.6973 52.3311 37.7372 52.0341 37.7372 51.7327C37.7372 50.9702 37.5643 50.3761 37.2185 49.9506C36.8816 49.525 36.4206 49.3122 35.8354 49.3122C35.4807 49.3122 35.1793 49.3876 34.931 49.5383C34.6917 49.6801 34.4922 49.8708 34.3326 50.1101C34.1818 50.3407 34.071 50.6067 34.0001 50.9081C33.938 51.2007 33.907 51.5021 33.907 51.8124ZM42.5625 52.9695C42.6068 53.4128 42.7753 53.7231 43.0679 53.9004C43.3605 54.0778 43.7107 54.1664 44.1185 54.1664C44.2604 54.1664 44.42 54.1575 44.5973 54.1398C44.7835 54.1132 44.9564 54.0689 45.116 54.0068C45.2756 53.9448 45.4041 53.8561 45.5016 53.7408C45.608 53.6167 45.6568 53.4571 45.6479 53.2621C45.6391 53.067 45.5681 52.9074 45.4351 52.7833C45.3022 52.6592 45.1293 52.5616 44.9165 52.4907C44.7126 52.4109 44.4776 52.3444 44.2116 52.2912C43.9456 52.238 43.6752 52.1804 43.4004 52.1183C43.1166 52.0563 42.8418 51.9809 42.5758 51.8922C42.3187 51.8036 42.0837 51.6839 41.871 51.5332C41.667 51.3824 41.503 51.1918 41.3789 50.9613C41.2548 50.7219 41.1927 50.4293 41.1927 50.0835C41.1927 49.7112 41.2814 49.4009 41.4587 49.1526C41.6449 48.8955 41.8754 48.6916 42.1502 48.5408C42.434 48.3812 42.7443 48.2704 43.0812 48.2084C43.427 48.1463 43.755 48.1153 44.0653 48.1153C44.42 48.1153 44.7569 48.1552 45.0761 48.235C45.4041 48.3059 45.6967 48.4256 45.9538 48.594C46.2198 48.7625 46.437 48.9841 46.6055 49.259C46.7828 49.525 46.8936 49.8486 46.938 50.2298H45.3554C45.2844 49.8663 45.116 49.6225 44.85 49.4984C44.5929 49.3743 44.2958 49.3122 43.9589 49.3122C43.8525 49.3122 43.724 49.3211 43.5733 49.3388C43.4314 49.3565 43.294 49.392 43.161 49.4452C43.0369 49.4895 42.9305 49.5604 42.8418 49.658C42.7531 49.7466 42.7088 49.8663 42.7088 50.0171C42.7088 50.2032 42.7709 50.354 42.895 50.4692C43.028 50.5845 43.1964 50.682 43.4004 50.7618C43.6132 50.8327 43.8525 50.8948 44.1185 50.948C44.3845 51.0012 44.6594 51.0588 44.9431 51.1209C45.2179 51.183 45.4883 51.2583 45.7543 51.347C46.0203 51.4356 46.2553 51.5553 46.4592 51.7061C46.672 51.8568 46.8404 52.0474 46.9646 52.2779C47.0976 52.5084 47.1641 52.7922 47.1641 53.1291C47.1641 53.5369 47.071 53.8827 46.8848 54.1664C46.6986 54.4501 46.4548 54.6806 46.1533 54.858C45.8607 55.0353 45.5327 55.1639 45.1692 55.2437C44.8057 55.3234 44.4466 55.3633 44.0919 55.3633C43.6575 55.3633 43.2541 55.3146 42.8817 55.2171C42.5182 55.1195 42.199 54.9732 41.9242 54.7782C41.6582 54.5743 41.4454 54.326 41.2858 54.0334C41.1351 53.732 41.0553 53.3773 41.0464 52.9695H42.5625Z" fill="#4E4E4E"/>
<path d="M16.7374 31.816C16.5232 31.816 16.3477 31.99 16.3477 32.2024V38.6138C16.3477 38.8262 16.5232 39 16.7374 39H23.2082C23.4226 39 23.5979 38.8262 23.5979 38.6138V31.816H16.7374Z" fill="#FB8276"/>
<path d="M29.3774 29.1912C29.3774 28.1537 29.6795 27.2096 30.2458 26.4314C29.2923 26.8788 28.2266 27.0171 27.2033 26.8468V29.4519C27.9268 29.5309 28.6592 29.5085 29.3774 29.3856V29.1912Z" fill="#A2F9F9"/>
<path d="M38.2354 25.2066C37.4341 25.5873 36.5424 25.7985 35.6117 25.7985H33.796C32.8901 25.7985 32.0332 25.6404 31.266 25.3421C30.0755 26.197 29.3189 27.5254 29.3189 29.1912V30.0157L29.5608 30.0399L29.5303 29.9518L29.4855 29.833C29.4438 29.7232 29.4477 29.6035 29.496 29.4966C29.5443 29.3895 29.6317 29.3075 29.7416 29.2659L29.8686 29.218C29.9188 29.199 29.9712 29.1894 30.024 29.1894C30.206 29.1894 30.3715 29.3038 30.4358 29.4741L30.9203 30.741L30.9247 30.7469C30.9778 30.8227 31.0247 30.9035 31.0641 30.987L31.076 31.0122L31.1028 31.0189C31.491 31.1171 31.8913 31.1667 32.2927 31.1667C34.1435 31.1667 35.8647 30.1038 36.6779 28.4588C36.8763 28.0571 37.2796 27.8079 37.7303 27.8079C37.9077 27.8079 38.0789 27.847 38.2395 27.9246C38.5195 28.0601 38.7289 28.2956 38.8294 28.5881C38.9294 28.8795 38.909 29.1926 38.7721 29.4698C38.167 30.6943 37.2279 31.7163 36.0565 32.4251C34.9162 33.1152 33.6099 33.48 32.2792 33.48C32.2792 33.48 32.2792 33.48 32.279 33.48C31.7766 33.48 31.2776 33.4265 30.789 33.323V35.6935H31.824L31.8299 35.6416C31.9002 35.028 32.4239 34.5654 33.0476 34.5654C33.5067 34.5654 33.924 34.8165 34.1361 35.2207L34.1879 35.3195L34.2398 35.2207C34.452 34.8165 34.869 34.5654 35.3284 34.5654C35.9521 34.5654 36.4755 35.0282 36.546 35.6416L36.5522 35.6935H40.3446V29.1308C40.3446 27.3904 39.519 26.0382 38.2354 25.2066V25.2066Z" fill="#48E5E1"/>
<path d="M29.5608 30.0399L29.5303 29.9518L29.4855 29.833C29.4438 29.7232 29.4477 29.6035 29.496 29.4966C29.5443 29.3895 29.6317 29.3075 29.7416 29.2659L29.8686 29.218C29.9188 29.199 29.9712 29.1894 30.024 29.1894C30.206 29.1894 30.3715 29.3038 30.4358 29.4741L30.9203 30.741L30.9247 30.7469C30.9778 30.8227 31.0247 30.9035 31.0641 30.987L31.076 31.0122L31.1028 31.0189C31.1263 31.025 31.1504 31.0301 31.174 31.0358V29.1912C31.174 27.7495 31.7411 26.5605 32.6653 25.7125C32.1744 25.6374 31.7054 25.5129 31.266 25.3421C30.0755 26.197 29.3189 27.5257 29.3189 29.1912V30.0157L29.5608 30.0399Z" fill="#41CECA"/>
<path d="M34.102 35.7798C34.102 35.5942 34.1455 35.4189 34.221 35.2614C34.0205 34.8167 33.5708 34.5068 33.0476 34.5068C32.3875 34.5068 31.8446 35.0002 31.7718 35.6347H30.789V38.6136C30.789 38.8262 30.6134 39 30.3992 39H33.1352V38.9956C33.6209 38.9631 34.0318 38.663 34.2206 38.2433C34.1453 38.086 34.102 37.9112 34.102 37.7269V35.7798Z" fill="#A2F9F9"/>
<path d="M35.2407 38.9956V39H40.4484C41.3862 39 42.1465 38.2467 42.1465 37.3172C42.1465 36.3882 41.3862 35.6347 40.4484 35.6347H36.6044C36.5314 35.0002 35.9885 34.5068 35.3284 34.5068C34.6188 34.5068 34.0434 35.0767 34.0434 35.7798V37.7269C34.0434 38.4007 34.5721 38.9507 35.2407 38.9956V38.9956Z" fill="#A2F9F9"/>
<path d="M35.8823 37.7269V35.7798C35.8823 35.4344 36.0219 35.1213 36.2473 34.892C36.0141 34.6549 35.6891 34.5068 35.3284 34.5068C34.6188 34.5068 34.0434 35.0769 34.0434 35.7798V37.7269C34.0434 38.4007 34.5721 38.951 35.2407 38.9956V39H37.0798V38.9956C36.4112 38.9507 35.8823 38.4007 35.8823 37.7269V37.7269Z" fill="#91E0E0"/>
<path d="M35.6117 25.7985H33.796C33.5127 25.7985 33.2348 25.7818 32.9622 25.7516V25.8029C32.9622 26.6065 33.6198 27.2581 34.4307 27.2581C35.2419 27.2581 35.8995 26.6065 35.8995 25.8029V25.7912C35.8038 25.7958 35.7081 25.7985 35.6117 25.7985Z" fill="#FFC987"/>
<path d="M41.7965 16.4441C41.7883 16.4441 41.7801 16.4448 41.7718 16.4448V15.5863C41.7718 15.5208 41.7704 15.4556 41.7684 15.3906C41.6375 15.4945 41.4889 15.5771 41.323 15.636C40.9561 15.7657 40.5977 15.8314 40.258 15.8314C40.258 15.8314 40.258 15.8314 40.2578 15.8314C38.413 15.8314 37.5782 13.8903 37.57 13.8706L37.5146 13.7383L37.4615 13.8715C37.4514 13.8967 36.4396 16.3885 34.7497 16.3885C34.5643 16.3885 34.3744 16.3581 34.1855 16.2986C33.3842 16.0461 33.1194 15.4366 33.3982 14.4872L33.2915 14.4405C32.7722 15.3073 31.9754 16.3407 31.1297 16.3407C31.0309 16.3407 30.9322 16.3265 30.8361 16.2983C30.5214 16.2063 30.2959 16.0228 30.1664 15.7527C29.9551 15.3126 30.0061 14.6428 30.3064 13.9155L30.1996 13.8679C29.4996 15.3357 28.7546 16.0491 27.9222 16.0491C27.8283 16.0491 27.7327 16.0395 27.6361 16.0205V19.7194C27.6361 23.7052 30.3939 25.8571 33.7957 25.8571H35.6115C38.4681 25.8571 40.8693 23.9199 41.5667 21.2925C41.642 21.304 41.7187 21.3106 41.7965 21.3106C42.8515 21.3106 43.7066 20.2212 43.7066 18.8774C43.7066 17.5336 42.8515 16.4441 41.7965 16.4441Z" fill="#FFD5B3"/>
<path d="M29.4838 19.7194V15.5863C29.4838 15.4066 29.4921 15.2288 29.5072 15.053C29.0103 15.7209 28.4864 16.0491 27.9222 16.0491C27.8283 16.0491 27.7327 16.0395 27.6361 16.0205V19.7194C27.6361 23.7052 30.3939 25.8571 33.796 25.8571H35.6117C35.6151 25.8571 35.6183 25.8569 35.6218 25.8569C32.23 25.8477 29.4838 23.6967 29.4838 19.7194V19.7194Z" fill="#E5BFA1"/>
<path d="M37.0022 19.6345C36.7593 19.6345 36.5627 19.4379 36.5627 19.1951V18.4524C36.5627 18.2097 36.7593 18.0129 37.0022 18.0129C37.2448 18.0129 37.4416 18.2097 37.4416 18.4524V19.1951C37.4416 19.4379 37.2448 19.6345 37.0022 19.6345Z" fill="#775436"/>
<path d="M30.3129 19.6345C30.0703 19.6345 29.8734 19.4379 29.8734 19.1951V18.4524C29.8734 18.2097 30.0703 18.0129 30.3129 18.0129C30.5557 18.0129 30.7523 18.2097 30.7523 18.4524V19.1951C30.7523 19.4379 30.5557 19.6345 30.3129 19.6345Z" fill="#775436"/>
<path d="M33.951 20.2862H33.6573C33.2533 20.2862 32.9244 19.9536 32.9244 19.545V18.9742C32.9244 18.7314 33.121 18.5348 33.3639 18.5348C33.6067 18.5348 33.8033 18.7314 33.8033 18.9742V19.4073H33.951C34.1936 19.4073 34.3904 19.6041 34.3904 19.8467C34.3904 20.0896 34.1936 20.2862 33.951 20.2862Z" fill="#775436"/>
<path d="M33.7596 23.9091C32.6165 23.9091 31.6866 22.9876 31.6866 21.8551C31.6866 21.6418 31.8612 21.4688 32.0764 21.4688H35.4428C35.6581 21.4688 35.8325 21.6418 35.8325 21.8551C35.8325 22.9879 34.9026 23.9091 33.7596 23.9091V23.9091Z" fill="#FB8276"/>
<path d="M33.5472 21.8551C33.5472 21.6418 33.7216 21.469 33.9369 21.469H32.0764C31.861 21.469 31.6866 21.6418 31.6866 21.8551C31.6866 22.9879 32.6165 23.9091 33.7596 23.9091C34.094 23.9091 34.4098 23.8299 34.6897 23.6901C34.0129 23.3516 33.5472 22.6564 33.5472 21.8551V21.8551Z" fill="#E1756A"/>
<path d="M35.4916 9H33.5275C29.8473 9 26.8641 11.9725 26.8641 15.6392V15.7385C26.9868 15.8326 27.131 15.915 27.3008 15.982C28.7128 16.5419 29.667 15.1212 30.2524 13.8933C29.8164 14.9491 29.8308 16.0658 30.8198 16.3547C31.7738 16.6332 32.6898 15.5588 33.3419 14.4707C33.1185 15.2315 33.1677 16.0393 34.1679 16.3547C36.2725 17.0182 37.5162 13.8933 37.5162 13.8933C37.5162 13.8933 38.6641 16.6389 41.3427 15.6911C41.6894 15.5682 41.9458 15.3577 42.1305 15.0848C41.8474 11.6777 38.9843 9 35.4916 9V9Z" fill="#F7931E"/>
<path d="M28.7045 15.7385V15.6392C28.7045 11.9725 31.6878 9 35.368 9H33.5275C29.8473 9 26.8641 11.9725 26.8641 15.6392V15.7385C26.9868 15.8326 27.131 15.915 27.3008 15.982C27.8821 16.2125 28.3857 16.1068 28.818 15.8175C28.7787 15.7921 28.7402 15.766 28.7045 15.7385Z" fill="#DE841B"/>
<path d="M25.7419 24.6907V24.1913C25.7419 23.7221 25.3579 23.3417 24.8843 23.3417H22.3897C21.9159 23.3417 21.5321 23.7221 21.5321 24.1913V24.6907H25.7419Z" fill="#89C947"/>
<path d="M23.403 24.6907V24.1913C23.403 23.7221 23.7868 23.3417 24.2604 23.3417H22.3895C21.9159 23.3417 21.5319 23.7221 21.5319 24.1913V24.6907H23.403Z" fill="#7BB540"/>
<path d="M27.2621 31.4299C27.2621 31.6423 27.0866 31.8161 26.8723 31.8161H20.4016C20.1871 31.8161 20.0118 31.6423 20.0118 31.4299V25.0185C20.0118 24.8061 20.1871 24.6321 20.4016 24.6321H26.8723C27.0866 24.6321 27.2621 24.8061 27.2621 25.0185V31.4299Z" fill="#D5E962"/>
<path d="M24.6597 29.9944C24.6245 29.9944 24.589 29.9861 24.5565 29.969L23.6369 29.4927L22.7172 29.969C22.6847 29.9861 22.6492 29.9944 22.614 29.9944C22.568 29.9944 22.5224 29.9804 22.4835 29.9525C22.4151 29.9037 22.381 29.8207 22.3954 29.7385L22.571 28.7294L21.8269 28.0146C21.7664 27.9566 21.7447 27.8694 21.7708 27.7905C21.7969 27.7113 21.8662 27.6534 21.9498 27.6413L22.9781 27.4943L23.438 26.576C23.4753 26.5014 23.5526 26.4543 23.6369 26.4543C23.7213 26.4543 23.7984 26.5014 23.836 26.576L24.2958 27.4943L25.3239 27.6413C25.4075 27.6534 25.4768 27.7113 25.5029 27.7905C25.5292 27.8697 25.5075 27.9566 25.4468 28.0146L24.703 28.7294L24.8785 29.7385C24.893 29.8207 24.8586 29.9037 24.7904 29.9525C24.7517 29.9804 24.7057 29.9944 24.6597 29.9944V29.9944Z" fill="#89C947"/>
<path d="M17.7811 38.6136V32.2022C17.7811 31.9898 17.9565 31.816 18.1709 31.816H16.7374C16.5232 31.816 16.3477 31.9898 16.3477 32.2022V38.6136C16.3477 38.8262 16.5232 39 16.7374 39H18.1709C17.9565 39 17.7811 38.8262 17.7811 38.6136Z" fill="#E1756A"/>
<path d="M19.9727 37.0673C19.9242 37.0673 19.8778 37.0485 19.8434 37.0149L18.2229 35.4301C17.8302 35.0458 17.8302 34.4212 18.2229 34.0371C18.4131 33.8513 18.6661 33.7487 18.935 33.7487C19.2039 33.7487 19.4568 33.8513 19.647 34.0373L19.9727 34.3559L20.2987 34.0373C20.4889 33.8513 20.7418 33.7487 21.0107 33.7487C21.2797 33.7487 21.5326 33.8513 21.7228 34.0371C22.1155 34.4212 22.1155 35.046 21.7228 35.4301L20.1023 37.0146C20.068 37.0483 20.0215 37.0673 19.9727 37.0673V37.0673Z" fill="#EF5050"/>
<path d="M30.1526 33.1587L30.1346 33.1529L30.1165 33.1591C29.9457 33.2166 29.7677 33.2456 29.5873 33.2456C29.5312 33.2456 29.4745 33.2429 29.4186 33.2372L27.9185 33.0863C27.6972 33.0639 27.5352 32.8657 27.5574 32.6444L27.5699 32.5192C27.5908 32.312 27.7631 32.1559 27.9709 32.1559C27.9845 32.1559 27.9982 32.1566 28.0119 32.158L29.1538 32.2729L29.1737 32.0756L27.7929 31.9367C27.6972 31.927 27.61 31.8845 27.5439 31.816H23.5979V38.6136C23.5979 38.8262 23.7733 39 23.9877 39H30.4584C30.6727 39 30.848 38.8262 30.848 38.6136V33.3354C30.6138 33.2878 30.3815 33.2296 30.1526 33.1587V33.1587Z" fill="#FFC502"/>
<path d="M25.2093 38.6136V31.816H23.5979V38.6138C23.5979 38.8262 23.7733 39 23.9877 39H25.599C25.3846 39 25.2093 38.8262 25.2093 38.6136Z" fill="#E5B102"/>
<path d="M26.6581 37.0464C26.4437 37.0464 26.1807 36.8961 26.0736 36.7121L25.5085 35.7425C25.4013 35.5585 25.4013 35.2575 25.5085 35.0735L26.0736 34.1039C26.1807 33.9199 26.4437 33.7695 26.6581 33.7695H27.7879C28.0023 33.7695 28.2656 33.9199 28.3727 34.1039L28.9376 35.0735C29.0449 35.2575 29.0449 35.5585 28.9376 35.7425L28.3727 36.7121C28.2656 36.8961 28.0023 37.0464 27.7879 37.0464H26.6581Z" fill="#FCDB67"/>
<path d="M21.56 31.4299V25.0185C21.56 24.8061 21.7353 24.6321 21.9498 24.6321H20.4016C20.1871 24.6321 20.0118 24.8061 20.0118 25.0185V31.4299C20.0118 31.6423 20.1871 31.8161 20.4016 31.8161H21.9498C21.7353 31.8161 21.56 31.6423 21.56 31.4299Z" fill="#BFD158"/>
<path d="M41.7581 20.2825C41.6018 20.2825 41.4505 20.1989 41.3711 20.0518C41.2557 19.8382 41.3351 19.5718 41.5487 19.4562C42.0463 19.1873 41.7567 18.5016 41.7442 18.4725C41.6478 18.2498 41.7503 17.9911 41.973 17.8948C42.1957 17.7984 42.4546 17.901 42.5507 18.1237C42.5663 18.1591 42.7016 18.4828 42.7132 18.8838C42.7311 19.4819 42.4658 19.9598 41.9664 20.2296C41.9003 20.2655 41.8286 20.2825 41.7581 20.2825V20.2825Z" fill="#FFB98A"/>
<path d="M38.2649 27.8717C37.6575 27.5783 36.9234 27.8294 36.6252 28.4327C35.5934 30.5201 33.2197 31.5316 31.0409 30.9433C31.1767 31.2111 31.2357 31.5119 31.2057 31.8112C31.1387 32.4771 30.6656 33.0094 30.0387 33.1843C33.4222 34.2845 37.2104 32.7611 38.8245 29.4956C39.1228 28.8923 38.8721 28.1654 38.2649 27.8717V27.8717Z" fill="#A2F9F9"/>
<path d="M27.499 32.6386L27.5119 32.5132C27.5373 32.2594 27.7639 32.0742 28.0179 32.0996L29.1014 32.2086L29.1097 32.128L27.787 31.9948C27.5331 31.9694 27.348 31.7428 27.3736 31.489L27.3862 31.3635C27.4116 31.1097 27.6382 30.9245 27.8923 30.95L29.2147 31.0832L29.223 31.0024L28.1392 30.8934C27.8852 30.868 27.7 30.6414 27.7256 30.3874L27.7382 30.2619C27.7639 30.0081 27.9904 29.8229 28.2443 29.8483L29.4725 29.9722L29.4754 29.9724L29.4306 29.8536C29.3333 29.5959 29.4633 29.3082 29.7208 29.2109L29.8481 29.1628C30.1058 29.0656 30.3933 29.1956 30.4908 29.4533L30.9726 30.7131C31.1921 31.0255 31.3047 31.4116 31.2641 31.817C31.1724 32.7272 30.3436 33.3891 29.4127 33.2953L27.9126 33.1445C27.6588 33.1191 27.4736 32.8925 27.499 32.6386V32.6386Z" fill="#FFD5B3"/>
</svg>
