<svg width="65" height="62" viewBox="0 0 65 62" fill="none" xmlns="http://www.w3.org/2000/svg">
<rect x="0.942749" width="61.1143" height="61.1143" rx="8" fill="#FFF9D9"/>
<path d="M5.74 51.144C5.74 51.472 5.796 51.752 5.908 51.984C6.02 52.216 6.176 52.408 6.376 52.56C6.576 52.704 6.804 52.812 7.06 52.884C7.324 52.948 7.608 52.98 7.912 52.98C8.24 52.98 8.52 52.944 8.752 52.872C8.984 52.792 9.172 52.692 9.316 52.572C9.46 52.452 9.564 52.316 9.628 52.164C9.692 52.004 9.724 51.844 9.724 51.684C9.724 51.356 9.648 51.116 9.496 50.964C9.352 50.804 9.192 50.692 9.016 50.628C8.712 50.516 8.356 50.412 7.948 50.316C7.548 50.212 7.052 50.08 6.46 49.92C6.092 49.824 5.784 49.7 5.536 49.548C5.296 49.388 5.104 49.212 4.96 49.02C4.816 48.828 4.712 48.624 4.648 48.408C4.592 48.192 4.564 47.972 4.564 47.748C4.564 47.316 4.652 46.944 4.828 46.632C5.012 46.312 5.252 46.048 5.548 45.84C5.844 45.632 6.18 45.48 6.556 45.384C6.932 45.28 7.312 45.228 7.696 45.228C8.144 45.228 8.564 45.288 8.956 45.408C9.356 45.52 9.704 45.692 10 45.924C10.304 46.156 10.544 46.444 10.72 46.788C10.896 47.124 10.984 47.516 10.984 47.964H9.484C9.444 47.412 9.256 47.024 8.92 46.8C8.584 46.568 8.156 46.452 7.636 46.452C7.46 46.452 7.28 46.472 7.096 46.512C6.912 46.544 6.744 46.604 6.592 46.692C6.44 46.772 6.312 46.884 6.208 47.028C6.112 47.172 6.064 47.352 6.064 47.568C6.064 47.872 6.156 48.112 6.34 48.288C6.532 48.456 6.78 48.584 7.084 48.672C7.116 48.68 7.24 48.716 7.456 48.78C7.68 48.836 7.928 48.9 8.2 48.972C8.472 49.044 8.736 49.116 8.992 49.188C9.256 49.252 9.444 49.3 9.556 49.332C9.836 49.42 10.08 49.54 10.288 49.692C10.496 49.844 10.668 50.02 10.804 50.22C10.948 50.412 11.052 50.62 11.116 50.844C11.188 51.068 11.224 51.292 11.224 51.516C11.224 51.996 11.124 52.408 10.924 52.752C10.732 53.088 10.476 53.364 10.156 53.58C9.836 53.796 9.472 53.952 9.064 54.048C8.656 54.152 8.24 54.204 7.816 54.204C7.328 54.204 6.868 54.144 6.436 54.024C6.004 53.904 5.628 53.72 5.308 53.472C4.988 53.224 4.732 52.908 4.54 52.524C4.348 52.132 4.248 51.672 4.24 51.144H5.74ZM12.9105 45.432H14.2785V48.612H14.3025C14.4705 48.332 14.7185 48.1 15.0465 47.916C15.3825 47.724 15.7545 47.628 16.1625 47.628C16.8425 47.628 17.3785 47.804 17.7705 48.156C18.1625 48.508 18.3585 49.036 18.3585 49.74V54H16.9905V50.1C16.9745 49.612 16.8705 49.26 16.6785 49.044C16.4865 48.82 16.1865 48.708 15.7785 48.708C15.5465 48.708 15.3385 48.752 15.1545 48.84C14.9705 48.92 14.8145 49.036 14.6865 49.188C14.5585 49.332 14.4585 49.504 14.3865 49.704C14.3145 49.904 14.2785 50.116 14.2785 50.34V54H12.9105V45.432ZM23.2103 54.168C22.7143 54.168 22.2703 54.088 21.8783 53.928C21.4943 53.76 21.1663 53.532 20.8943 53.244C20.6303 52.956 20.4263 52.612 20.2823 52.212C20.1463 51.812 20.0783 51.372 20.0783 50.892C20.0783 50.42 20.1463 49.984 20.2823 49.584C20.4263 49.184 20.6303 48.84 20.8943 48.552C21.1663 48.264 21.4943 48.04 21.8783 47.88C22.2703 47.712 22.7143 47.628 23.2103 47.628C23.7063 47.628 24.1463 47.712 24.5303 47.88C24.9223 48.04 25.2503 48.264 25.5143 48.552C25.7863 48.84 25.9903 49.184 26.1263 49.584C26.2703 49.984 26.3423 50.42 26.3423 50.892C26.3423 51.372 26.2703 51.812 26.1263 52.212C25.9903 52.612 25.7863 52.956 25.5143 53.244C25.2503 53.532 24.9223 53.76 24.5303 53.928C24.1463 54.088 23.7063 54.168 23.2103 54.168ZM23.2103 53.088C23.5143 53.088 23.7783 53.024 24.0023 52.896C24.2263 52.768 24.4103 52.6 24.5543 52.392C24.6983 52.184 24.8023 51.952 24.8663 51.696C24.9383 51.432 24.9743 51.164 24.9743 50.892C24.9743 50.628 24.9383 50.364 24.8663 50.1C24.8023 49.836 24.6983 49.604 24.5543 49.404C24.4103 49.196 24.2263 49.028 24.0023 48.9C23.7783 48.772 23.5143 48.708 23.2103 48.708C22.9063 48.708 22.6423 48.772 22.4183 48.9C22.1943 49.028 22.0103 49.196 21.8663 49.404C21.7223 49.604 21.6143 49.836 21.5423 50.1C21.4783 50.364 21.4463 50.628 21.4463 50.892C21.4463 51.164 21.4783 51.432 21.5423 51.696C21.6143 51.952 21.7223 52.184 21.8663 52.392C22.0103 52.6 22.1943 52.768 22.4183 52.896C22.6423 53.024 22.9063 53.088 23.2103 53.088ZM28.0808 47.796H29.3768V48.636H29.4008C29.5928 48.276 29.8608 48.02 30.2048 47.868C30.5488 47.708 30.9208 47.628 31.3208 47.628C31.8088 47.628 32.2328 47.716 32.5928 47.892C32.9608 48.06 33.2648 48.296 33.5048 48.6C33.7448 48.896 33.9248 49.244 34.0448 49.644C34.1648 50.044 34.2248 50.472 34.2248 50.928C34.2248 51.344 34.1688 51.748 34.0568 52.14C33.9528 52.532 33.7888 52.88 33.5648 53.184C33.3488 53.48 33.0728 53.72 32.7368 53.904C32.4008 54.08 32.0048 54.168 31.5488 54.168C31.3488 54.168 31.1488 54.148 30.9488 54.108C30.7488 54.076 30.5568 54.02 30.3728 53.94C30.1888 53.86 30.0168 53.76 29.8568 53.64C29.7048 53.512 29.5768 53.364 29.4728 53.196H29.4488V56.292H28.0808V47.796ZM32.8568 50.904C32.8568 50.624 32.8208 50.352 32.7488 50.088C32.6768 49.824 32.5688 49.592 32.4248 49.392C32.2808 49.184 32.1008 49.02 31.8848 48.9C31.6688 48.772 31.4208 48.708 31.1408 48.708C30.5648 48.708 30.1288 48.908 29.8328 49.308C29.5448 49.708 29.4008 50.24 29.4008 50.904C29.4008 51.216 29.4368 51.508 29.5088 51.78C29.5888 52.044 29.7048 52.272 29.8568 52.464C30.0088 52.656 30.1888 52.808 30.3968 52.92C30.6128 53.032 30.8608 53.088 31.1408 53.088C31.4528 53.088 31.7168 53.024 31.9328 52.896C32.1488 52.768 32.3248 52.604 32.4608 52.404C32.6048 52.196 32.7048 51.964 32.7608 51.708C32.8248 51.444 32.8568 51.176 32.8568 50.904ZM35.982 47.796H37.278V48.636H37.302C37.494 48.276 37.762 48.02 38.106 47.868C38.45 47.708 38.822 47.628 39.222 47.628C39.71 47.628 40.134 47.716 40.494 47.892C40.862 48.06 41.166 48.296 41.406 48.6C41.646 48.896 41.826 49.244 41.946 49.644C42.066 50.044 42.126 50.472 42.126 50.928C42.126 51.344 42.07 51.748 41.958 52.14C41.854 52.532 41.69 52.88 41.466 53.184C41.25 53.48 40.974 53.72 40.638 53.904C40.302 54.08 39.906 54.168 39.45 54.168C39.25 54.168 39.05 54.148 38.85 54.108C38.65 54.076 38.458 54.02 38.274 53.94C38.09 53.86 37.918 53.76 37.758 53.64C37.606 53.512 37.478 53.364 37.374 53.196H37.35V56.292H35.982V47.796ZM40.758 50.904C40.758 50.624 40.722 50.352 40.65 50.088C40.578 49.824 40.47 49.592 40.326 49.392C40.182 49.184 40.002 49.02 39.786 48.9C39.57 48.772 39.322 48.708 39.042 48.708C38.466 48.708 38.03 48.908 37.734 49.308C37.446 49.708 37.302 50.24 37.302 50.904C37.302 51.216 37.338 51.508 37.41 51.78C37.49 52.044 37.606 52.272 37.758 52.464C37.91 52.656 38.09 52.808 38.298 52.92C38.514 53.032 38.762 53.088 39.042 53.088C39.354 53.088 39.618 53.024 39.834 52.896C40.05 52.768 40.226 52.604 40.362 52.404C40.506 52.196 40.606 51.964 40.662 51.708C40.726 51.444 40.758 51.176 40.758 50.904ZM43.8831 45.432H45.2511V46.728H43.8831V45.432ZM43.8831 47.796H45.2511V54H43.8831V47.796ZM47.3069 47.796H48.6029V48.708L48.6269 48.732C48.8349 48.388 49.1069 48.12 49.4429 47.928C49.7789 47.728 50.1509 47.628 50.5589 47.628C51.2389 47.628 51.7749 47.804 52.1669 48.156C52.5589 48.508 52.7549 49.036 52.7549 49.74V54H51.3869V50.1C51.3709 49.612 51.2669 49.26 51.0749 49.044C50.8829 48.82 50.5829 48.708 50.1749 48.708C49.9429 48.708 49.7349 48.752 49.5509 48.84C49.3669 48.92 49.2109 49.036 49.0829 49.188C48.9549 49.332 48.8549 49.504 48.7829 49.704C48.7109 49.904 48.6749 50.116 48.6749 50.34V54H47.3069V47.796ZM60.4987 53.676C60.4987 54.612 60.2347 55.308 59.7067 55.764C59.1867 56.228 58.4347 56.46 57.4507 56.46C57.1387 56.46 56.8227 56.428 56.5027 56.364C56.1907 56.3 55.9027 56.192 55.6387 56.04C55.3827 55.888 55.1667 55.688 54.9907 55.44C54.8147 55.192 54.7107 54.888 54.6787 54.528H56.0467C56.0867 54.72 56.1547 54.876 56.2507 54.996C56.3467 55.116 56.4587 55.208 56.5867 55.272C56.7227 55.344 56.8707 55.388 57.0307 55.404C57.1907 55.428 57.3587 55.44 57.5347 55.44C58.0867 55.44 58.4907 55.304 58.7467 55.032C59.0027 54.76 59.1307 54.368 59.1307 53.856V52.908H59.1067C58.9147 53.252 58.6507 53.52 58.3147 53.712C57.9867 53.904 57.6307 54 57.2467 54C56.7507 54 56.3267 53.916 55.9747 53.748C55.6307 53.572 55.3427 53.336 55.1107 53.04C54.8867 52.736 54.7227 52.388 54.6187 51.996C54.5147 51.604 54.4627 51.184 54.4627 50.736C54.4627 50.32 54.5267 49.924 54.6547 49.548C54.7827 49.172 54.9667 48.844 55.2067 48.564C55.4467 48.276 55.7387 48.048 56.0827 47.88C56.4347 47.712 56.8307 47.628 57.2707 47.628C57.6627 47.628 58.0227 47.712 58.3507 47.88C58.6787 48.04 58.9307 48.296 59.1067 48.648H59.1307V47.796H60.4987V53.676ZM57.4627 52.92C57.7667 52.92 58.0227 52.86 58.2307 52.74C58.4467 52.612 58.6187 52.448 58.7467 52.248C58.8827 52.04 58.9787 51.808 59.0347 51.552C59.0987 51.288 59.1307 51.024 59.1307 50.76C59.1307 50.496 59.0987 50.24 59.0347 49.992C58.9707 49.744 58.8707 49.524 58.7347 49.332C58.6067 49.14 58.4347 48.988 58.2187 48.876C58.0107 48.764 57.7587 48.708 57.4627 48.708C57.1587 48.708 56.9027 48.772 56.6947 48.9C56.4867 49.028 56.3187 49.196 56.1907 49.404C56.0627 49.604 55.9707 49.836 55.9147 50.1C55.8587 50.356 55.8307 50.612 55.8307 50.868C55.8307 51.124 55.8627 51.376 55.9267 51.624C55.9907 51.864 56.0867 52.08 56.2147 52.272C56.3507 52.464 56.5187 52.62 56.7187 52.74C56.9267 52.86 57.1747 52.92 57.4627 52.92Z" fill="#4E4E4E"/>
<path d="M32.4062 20.25C32.2819 20.25 32.1627 20.2006 32.0748 20.1127C31.9869 20.0248 31.9375 19.9056 31.9375 19.7812V15.0938C31.9375 14.2235 31.5918 13.3889 30.9764 12.7736C30.3611 12.1582 29.5265 11.8125 28.6562 11.8125C27.786 11.8125 26.9514 12.1582 26.3361 12.7736C25.7207 13.3889 25.375 14.2235 25.375 15.0938V19.7812C25.375 19.9056 25.3256 20.0248 25.2377 20.1127C25.1498 20.2006 25.0306 20.25 24.9062 20.25C24.7819 20.25 24.6627 20.2006 24.5748 20.1127C24.4869 20.0248 24.4375 19.9056 24.4375 19.7812V15.0938C24.4375 13.9749 24.882 12.9018 25.6731 12.1106C26.4643 11.3195 27.5374 10.875 28.6562 10.875C29.7751 10.875 30.8482 11.3195 31.6394 12.1106C32.4305 12.9018 32.875 13.9749 32.875 15.0938V19.7812C32.875 19.9056 32.8256 20.0248 32.7377 20.1127C32.6498 20.2006 32.5306 20.25 32.4062 20.25Z" fill="#DADCDE"/>
<path d="M33.3438 36.6562H17.4062L18.3438 17.9062H32.4062L33.3438 36.6562Z" fill="#EB423F"/>
<path d="M37.0938 36.6562H33.3438L32.4062 17.9062H36.1562L37.0938 36.6562Z" fill="#D13330"/>
<path d="M35.2463 34.3119C35.2369 34.3125 35.2275 34.3125 35.2182 34.3125C35.0987 34.3124 34.9837 34.2667 34.8968 34.1847C34.8099 34.1027 34.7576 33.9906 34.7506 33.8713L33.8131 17.9338C33.8125 17.9244 33.8125 17.9156 33.8125 17.9062H34.7512L35.6869 33.8162C35.6942 33.9404 35.6518 34.0623 35.5692 34.1553C35.4866 34.2482 35.3704 34.3046 35.2463 34.3119V34.3119Z" fill="#A82A27"/>
<path d="M44.5938 36.6562H40.8438L40.7852 35.8986V35.898L39.9062 24.4688H43.6562L44.5205 35.7006V35.7012L44.5938 36.6562Z" fill="#EBA72E"/>
<path d="M42.7656 34.3102C42.7499 34.3118 42.734 34.3126 42.7182 34.3125C42.602 34.3124 42.4901 34.2691 42.4041 34.1912C42.318 34.1133 42.2639 34.0062 42.2523 33.8906L42.2353 33.7231L41.3148 24.5156C41.3132 24.5001 41.3124 24.4844 41.3125 24.4688H42.2523L43.1734 33.6803L43.1851 33.7969C43.1913 33.8581 43.1853 33.92 43.1676 33.9789C43.1498 34.0379 43.1206 34.0928 43.0817 34.1404C43.0427 34.1881 42.9948 34.2276 42.9405 34.2567C42.8863 34.2859 42.8269 34.304 42.7656 34.3102V34.3102Z" fill="#E09F2C"/>
<path d="M44.5938 36.6563H44.0301L42.7188 34.6887L41.4074 36.6563H40.8438L40.7852 35.8986V35.898L42.2354 33.723L42.3285 33.5836C42.3714 33.5194 42.4294 33.4668 42.4975 33.4304C42.5656 33.3941 42.6416 33.375 42.7188 33.375C42.7959 33.375 42.8719 33.3941 42.94 33.4304C43.0081 33.4668 43.0661 33.5194 43.109 33.5836L43.1734 33.6803L44.5205 35.7006V35.7012L44.5938 36.6563Z" fill="#E09F2C"/>
<path d="M40.8438 36.6562H28.6562L29.5938 24.4688H39.9062L40.8438 36.6562Z" fill="#F7B030"/>
<path d="M35.2188 33.375H34.2812C33.6599 33.3743 33.0641 33.1271 32.6247 32.6878C32.1854 32.2484 31.9382 31.6526 31.9375 31.0312V27.2812C31.9375 27.1569 31.9869 27.0377 32.0748 26.9498C32.1627 26.8619 32.2819 26.8125 32.4062 26.8125C32.5306 26.8125 32.6498 26.8619 32.7377 26.9498C32.8256 27.0377 32.875 27.1569 32.875 27.2812V31.0312C32.8754 31.4041 33.0237 31.7615 33.2873 32.0252C33.551 32.2888 33.9084 32.4371 34.2812 32.4375H35.2188C35.5916 32.4371 35.949 32.2888 36.2127 32.0252C36.4763 31.7615 36.6246 31.4041 36.625 31.0312V27.2812C36.625 27.1569 36.6744 27.0377 36.7623 26.9498C36.8502 26.8619 36.9694 26.8125 37.0938 26.8125C37.2181 26.8125 37.3373 26.8619 37.4252 26.9498C37.5131 27.0377 37.5625 27.1569 37.5625 27.2812V31.0312C37.5618 31.6526 37.3146 32.2484 36.8753 32.6878C36.4359 33.1271 35.8401 33.3743 35.2188 33.375V33.375Z" fill="#E9EEF2"/>
<path d="M21.625 19.7812H22.5625V22.5938H21.625V19.7812Z" fill="#DADCDE"/>
<path d="M22.0938 20.25C21.9694 20.25 21.8502 20.2006 21.7623 20.1127C21.6744 20.0248 21.625 19.9056 21.625 19.7812V15.0938C21.625 13.9749 22.0695 12.9018 22.8606 12.1106C23.6518 11.3195 24.7249 10.875 25.8438 10.875C26.9626 10.875 28.0357 11.3195 28.8269 12.1106C29.618 12.9018 30.0625 13.9749 30.0625 15.0938V19.7812C30.0625 19.9056 30.0131 20.0248 29.9252 20.1127C29.8373 20.2006 29.7181 20.25 29.5938 20.25C29.4694 20.25 29.3502 20.2006 29.2623 20.1127C29.1744 20.0248 29.125 19.9056 29.125 19.7812V15.0938C29.125 14.2235 28.7793 13.3889 28.1639 12.7736C27.5486 12.1582 26.714 11.8125 25.8438 11.8125C24.9735 11.8125 24.1389 12.1582 23.5236 12.7736C22.9082 13.3889 22.5625 14.2235 22.5625 15.0938V19.7812C22.5625 19.9056 22.5131 20.0248 22.4252 20.1127C22.3373 20.2006 22.2181 20.25 22.0938 20.25Z" fill="#E9EEF2"/>
<path d="M23.5 26.3438H20.6875V22.5938L22.0938 21.6562L23.5 22.5938V26.3438Z" fill="#F7B030"/>
</svg>
