<svg width="26" height="25" viewBox="0 0 26 25" fill="none" xmlns="http://www.w3.org/2000/svg">
<path d="M6.63568 2.56779L6.63992 2.57203C7.26475 2.60279 7.85558 2.86572 8.2967 3.30932C8.9631 4.06304 9.44604 4.96075 9.70771 5.9322L7.52551 8.3644C6.47897 8.11648 5.5097 7.61438 4.70347 6.90254C4.25846 6.4624 3.99528 5.87099 3.96619 5.24576L4.55093 3.16101L6.63568 2.56779Z" fill="#DC1500"/>
<path d="M7.25849 0.889839C7.26386 1.50184 7.04707 2.09502 6.64832 2.55933C6.64408 2.56357 6.63984 2.5678 6.63561 2.5678C5.88984 3.30509 4.55086 3.16102 4.55086 3.16102C4.55086 3.16102 4.40679 1.80509 5.15256 1.06357C5.61686 0.664821 6.21004 0.448024 6.82205 0.453399C6.93911 0.448949 7.05272 0.493501 7.13555 0.576333C7.21839 0.659166 7.26294 0.77278 7.25849 0.889839V0.889839Z" fill="#0FB13F"/>
<path d="M3.96612 5.24577L3.95341 5.25849C3.48877 5.65618 2.89547 5.87151 2.28391 5.86442C2.16685 5.86887 2.05324 5.82432 1.97041 5.74148C1.88757 5.65865 1.84302 5.54504 1.84747 5.42798C1.84007 4.81562 2.05712 4.22175 2.45764 3.75848C3.19917 3.01272 4.55086 3.16103 4.55086 3.16103C4.55086 3.16103 4.69917 4.49577 3.96612 5.24577V5.24577Z" fill="#0FB13F"/>
<path d="M4.55303 3.58518C4.43891 3.58539 4.32952 3.53956 4.24964 3.45806C2.86913 2.04026 2.27676 1.93391 2.27125 1.93348C2.16063 1.93287 2.05497 1.88746 1.9784 1.80761C1.90183 1.72777 1.86088 1.62031 1.86489 1.50975C1.8727 1.27227 2.06839 1.08429 2.306 1.08603C2.49752 1.08603 3.24879 1.21314 4.85684 2.86569C4.97643 2.98768 5.01105 3.16956 4.94467 3.32697C4.87828 3.48437 4.72386 3.58651 4.55303 3.58603V3.58518Z" fill="#4C8056"/>
<path d="M7.35598 5.08475C7.59 5.08475 7.77971 4.89504 7.77971 4.66102C7.77971 4.427 7.59 4.23729 7.35598 4.23729C7.12196 4.23729 6.93225 4.427 6.93225 4.66102C6.93225 4.89504 7.12196 5.08475 7.35598 5.08475Z" fill="#FFCB00"/>
<path d="M6.08486 6.35594C6.31888 6.35594 6.50859 6.16623 6.50859 5.93221C6.50859 5.69819 6.31888 5.50848 6.08486 5.50848C5.85084 5.50848 5.66113 5.69819 5.66113 5.93221C5.66113 6.16623 5.85084 6.35594 6.08486 6.35594Z" fill="#FFCB00"/>
<path d="M9.34324 24.4407C8.68908 24.9204 7.86108 25.0978 7.06782 24.928C6.87084 24.8765 6.6814 24.7996 6.50426 24.6992C6.3253 24.7989 6.13455 24.8757 5.93647 24.928C4.11867 25.3941 2.02969 23.5805 1.27121 20.8687C0.512736 18.1568 1.38138 15.5805 3.20341 15.1144C3.97239 14.9439 4.7776 15.1071 5.41952 15.5636C6.08031 15.9831 6.92398 15.9831 7.58477 15.5636C7.80677 15.4229 8.04243 15.3051 8.28816 15.2119L9.89833 19.4915C9.9068 19.5593 9.31358 24.3814 9.34324 24.4407V24.4407Z" fill="#DC1500"/>
<path d="M2.90673 20.8377C2.71651 20.8377 2.54966 20.7108 2.49868 20.5276C2.06521 18.9716 2.32072 17.7076 2.70461 17.0437C2.86888 16.7092 3.16308 16.4566 3.5186 16.3449C3.66529 16.3071 3.82103 16.3504 3.92715 16.4585C4.03327 16.5666 4.07365 16.7231 4.03308 16.8691C3.99251 17.015 3.87715 17.1283 3.73046 17.1661C3.60087 17.229 3.49774 17.3357 3.43936 17.4674C3.04417 18.3627 3.00016 19.3738 3.31606 20.3C3.35176 20.4279 3.3255 20.5651 3.2451 20.6707C3.16471 20.7763 3.03947 20.8381 2.90673 20.8377Z" fill="white"/>
<path d="M6.75427 14.5297C6.60173 15.1356 5.61868 15.4153 4.55088 15.1525C3.81359 14.9703 2.74579 14.1271 2.16105 13.6271C2.07775 13.5576 2.04197 13.4462 2.06914 13.3412C2.09631 13.2361 2.18158 13.1561 2.28817 13.1356C3.03393 12.9831 4.3602 12.767 5.09749 12.9492C6.16529 13.2119 6.90681 13.9195 6.75427 14.5297V14.5297Z" fill="#0FB13F"/>
<path d="M18.9025 24.5127C18.7621 24.8093 18.4638 24.9989 18.1356 25H10.1356C9.77912 25.0019 9.46081 24.7772 9.3432 24.4407C9.31542 24.379 9.29823 24.3131 9.29235 24.2458L8.28812 15.2119L7.70337 9.94067L9.05083 10.6144C10.1177 11.1483 11.3738 11.1483 12.4407 10.6144C13.5067 10.0833 14.7602 10.0833 15.8263 10.6144L15.8305 10.6186C16.8969 11.1483 18.1497 11.1483 19.2161 10.6186L20.5678 9.94067L19.7754 17.072L18.9025 24.5127Z" fill="#FF9700"/>
<path d="M20.9111 6.87288L20.5679 9.94068L19.2162 10.6186C18.1498 11.1483 16.897 11.1483 15.8306 10.6186L15.8264 10.6144C14.7603 10.0833 13.5068 10.0833 12.4408 10.6144C11.3739 11.1483 10.1178 11.1483 9.05093 10.6144L7.70347 9.94068H7.69923L7.5255 8.36441L7.36025 6.87288C7.33441 6.63335 7.4115 6.3941 7.57231 6.2147C7.73312 6.0353 7.96254 5.93262 8.20347 5.93221H20.0679C20.3088 5.93262 20.5382 6.0353 20.699 6.2147C20.8598 6.3941 20.9369 6.63335 20.9111 6.87288V6.87288Z" fill="white"/>
<path d="M11.1695 23.3051C11.0309 23.3051 10.901 23.2373 10.8217 23.1235C10.7425 23.0097 10.7239 22.8644 10.7721 22.7343L17.9755 3.2428C18.0055 3.16195 18.0594 3.09218 18.1301 3.0428L22.3674 0.0766998C22.5589 -0.0488799 22.8156 0.000483413 22.9469 0.188154C23.0782 0.375825 23.0366 0.633866 22.853 0.770768L18.7246 3.66102L11.567 23.0284C11.5054 23.1947 11.3468 23.3051 11.1695 23.3051V23.3051Z" fill="#FFCF53"/>
<path d="M10.9576 14.8305C11.5427 14.8305 12.017 14.3563 12.017 13.7712C12.017 13.1862 11.5427 12.7119 10.9576 12.7119C10.3726 12.7119 9.89832 13.1862 9.89832 13.7712C9.89832 14.3563 10.3726 14.8305 10.9576 14.8305Z" fill="white"/>
<path d="M10.322 17.3729C10.5561 17.3729 10.7458 17.1832 10.7458 16.9492C10.7458 16.7151 10.5561 16.5254 10.322 16.5254C10.088 16.5254 9.89832 16.7151 9.89832 16.9492C9.89832 17.1832 10.088 17.3729 10.322 17.3729Z" fill="white"/>
<path d="M10.7458 19.4916C10.9798 19.4916 11.1695 19.3018 11.1695 19.0678C11.1695 18.8338 10.9798 18.6441 10.7458 18.6441C10.5117 18.6441 10.322 18.8338 10.322 19.0678C10.322 19.3018 10.5117 19.4916 10.7458 19.4916Z" fill="white"/>
<path d="M25.5043 23.4619C24.3521 24.4606 22.8765 25.0072 21.3517 25C19.6624 25.0008 18.0421 24.3301 16.8476 23.1355C15.653 21.941 14.9823 20.3207 14.9831 18.6314C14.9759 17.1066 15.5225 15.631 16.5212 14.4788C16.5967 14.386 16.7078 14.3293 16.8273 14.3229C16.9467 14.3164 17.0634 14.3607 17.1484 14.4449L18.0382 15.3348C16.2282 17.1627 16.2354 20.1097 18.0545 21.9287C19.8735 23.7477 22.8204 23.7549 24.6484 21.9449L25.5382 22.8347C25.6224 22.9197 25.6667 23.0364 25.6603 23.1558C25.6538 23.2753 25.5972 23.3864 25.5043 23.4619V23.4619Z" fill="#FFCB00"/>
<path d="M24.6483 21.9449C23.9793 22.616 23.1196 23.0644 22.1864 23.2288C21.9101 23.2833 21.6291 23.3103 21.3475 23.3093H21.339C20.2506 23.3055 19.198 22.9201 18.3644 22.2204C18.1419 22.043 17.94 21.8412 17.7627 21.6187C17.0629 20.785 16.6776 19.7325 16.6737 18.6441V18.6356C16.6728 18.354 16.6998 18.0729 16.7542 17.7966C16.9187 16.8635 17.3671 16.0037 18.0381 15.3348L24.6483 21.9449Z" fill="#F3D55B"/>
<path d="M22.1864 23.2288C21.9101 23.2833 21.6291 23.3103 21.3475 23.3093H21.339L21.3347 19.2458L18.3644 22.2204C18.1419 22.043 17.94 21.8412 17.7627 21.6187L20.7373 18.6483L16.6737 18.6441V18.6356C16.6728 18.354 16.6998 18.0729 16.7542 17.7966L20.5042 17.8009L22.1822 19.4788L22.1864 23.2288Z" fill="#FF9700"/>
<path d="M6.50429 17.3686C6.27028 17.3686 6.08057 17.1789 6.08057 16.9449V16.0975C6.08057 13.9364 7.16192 12.9449 7.80683 12.5462C8.00519 12.4312 8.25904 12.4948 8.37969 12.6898C8.50034 12.8848 8.44402 13.1403 8.2526 13.2665C7.75768 13.572 6.92802 14.3458 6.92802 16.0966V16.9441C6.92825 17.0566 6.8837 17.1646 6.80422 17.2442C6.72473 17.3239 6.61682 17.3686 6.50429 17.3686V17.3686Z" fill="#805333"/>
<path d="M17.8856 5.93221L16.1102 10.7415C16.017 10.7034 15.9238 10.6653 15.8305 10.6186L15.8263 10.6144C15.6657 10.5325 15.4984 10.4645 15.3263 10.411L16.9788 5.93221H17.8856Z" fill="#FF6711"/>
<path d="M15.8306 10.6187C15.9238 10.6653 16.017 10.7034 16.1102 10.7415L11.5679 23.0297C11.5058 23.1958 11.3469 23.3057 11.1695 23.3051C11.119 23.3049 11.0689 23.2963 11.0212 23.2797C10.8028 23.1961 10.6916 22.953 10.7712 22.7331L15.3263 10.411C15.4985 10.4645 15.6657 10.5325 15.8263 10.6144L15.8306 10.6187Z" fill="white"/>
</svg>
