<svg width="25" height="25" viewBox="0 0 25 25" fill="none" xmlns="http://www.w3.org/2000/svg">
<path d="M19.4648 17.0757V24.7351C19.4648 24.9676 19.2757 25.1567 19.0432 25.1567C18.8106 25.1567 18.6215 24.9676 18.6215 24.7351V23.0486C18.6215 22.3512 18.0541 21.7837 17.3567 21.7837C16.6592 21.7837 16.0918 22.3512 16.0918 23.0486V25.5783C16.0918 25.8112 16.2806 26 16.5134 26C16.7463 26 16.9351 25.8112 16.9351 25.5783V23.0486C16.9351 22.8161 17.1242 22.627 17.3567 22.627C17.5892 22.627 17.7783 22.8161 17.7783 23.0486V24.7351C17.7783 25.4325 18.3457 26 19.0432 26C19.7407 26 20.3081 25.4325 20.3081 24.7351V17.0757H19.4648Z" fill="#AFC3C3"/>
<path d="M12.5784 17.427V25.5784C12.5784 25.8112 12.7671 26 13 26C13.2329 26 13.4216 25.8113 13.4216 25.5784V17.427H12.5784Z" fill="#D7E1E1"/>
<path d="M8.64325 21.7838C7.94577 21.7838 7.37839 22.3512 7.37839 23.0486V24.7351C7.37839 24.9677 7.18928 25.1568 6.95675 25.1568C6.72423 25.1568 6.53512 24.9677 6.53512 24.7351V17.0757H5.69189V24.7351C5.69189 25.4325 6.25927 26 6.95675 26C7.65424 26 8.22161 25.4325 8.22161 24.7351V23.0486C8.22161 22.8161 8.41072 22.627 8.64325 22.627C8.87578 22.627 9.06489 22.8161 9.06489 23.0486V25.5783C9.06489 25.8112 9.25364 26 9.48652 26C9.71936 26 9.90816 25.8112 9.90816 25.5783V23.0486C9.90816 22.3512 9.34073 21.7838 8.64325 21.7838Z" fill="#D7E1E1"/>
<path d="M19.8865 15.9514L19.3243 16.7946L19.8865 17.6378H21.573C21.573 16.7064 20.8179 15.9514 19.8865 15.9514Z" fill="#10744A"/>
<path d="M18.2 17.6379H19.8864V15.9514C18.955 15.9514 18.2 16.7064 18.2 17.6379Z" fill="#169B62"/>
<path d="M19.8865 1.68649V15.9514C23.3252 14.7358 25.7892 11.4442 25.7892 7.5892C25.7892 4.3292 23.1464 1.68649 19.8865 1.68649Z" fill="#10744A"/>
<path d="M24.1027 7.5892C24.1027 4.3292 22.215 1.68649 19.8865 1.68649C16.6265 1.68649 13.9838 4.3292 13.9838 7.5892C13.9838 11.4442 16.4477 14.7358 19.8865 15.9514C22.3427 14.7358 24.1027 11.4442 24.1027 7.5892Z" fill="#169B62"/>
<path d="M6.11354 15.9514L5.55139 16.7946L6.11354 17.6378H7.80004C7.80004 16.7064 7.04502 15.9514 6.11354 15.9514Z" fill="#FF6638"/>
<path d="M4.427 17.6379H6.1135V15.9514C5.18207 15.9514 4.427 16.7064 4.427 17.6379Z" fill="#FF883E"/>
<path d="M6.25693 1.68827C6.20925 1.68715 6.16146 1.68649 6.11353 1.68649C2.85352 1.68649 0.210815 4.3292 0.210815 7.5892C0.210815 11.4442 2.67477 14.7358 6.11353 15.9514C6.76911 15.7196 7.38915 15.4122 7.96354 15.04L6.25693 1.68827Z" fill="#FF883E"/>
<path d="M12.0161 7.58921C12.0161 4.37719 9.45058 1.7645 6.25684 1.68832C5.19658 3.09832 4.5675 4.85001 4.5675 6.74598C4.5675 9.91499 5.83683 12.8736 7.96345 15.0401C10.402 13.46 12.0161 10.7093 12.0161 7.58921Z" fill="#FF6638"/>
<path d="M13 16.3027L12.4379 17.1459L13 17.9892H14.6865C14.6865 17.0577 13.9314 16.3027 13 16.3027Z" fill="#FFE1AA"/>
<path d="M11.3135 17.9892H13V16.3027C12.0685 16.3027 11.3135 17.0577 11.3135 17.9892Z" fill="#FFF5E3"/>
<path d="M13 0V16.3027C16.93 14.9135 19.7459 11.1517 19.7459 6.74593C19.7459 3.02027 16.7257 0 13 0Z" fill="#FFE1AA"/>
<path d="M18.0594 6.74593C18.0594 3.02027 15.7943 0 13 0C9.2743 0 6.25403 3.02027 6.25403 6.74593C6.25403 11.1517 9.06995 14.9135 13 16.3027C15.9475 14.9135 18.0594 11.1517 18.0594 6.74593Z" fill="#FFF5E3"/>
</svg>
