<svg width="26" height="26" viewBox="0 0 26 26" fill="none" xmlns="http://www.w3.org/2000/svg">
<path d="M15.2859 19.3998V25.2366C15.2859 25.4957 15.1487 25.7395 14.9202 25.8919C14.7221 26.0139 14.463 26.0442 14.1888 25.9224L11.1409 24.3985C10.8817 24.2613 10.7141 24.0022 10.7141 23.7127V19.3998L13 17.7897L13.3505 17.5458L15.2859 19.3998Z" fill="#9ED0FF"/>
<path d="M24.201 10.4898L22.4485 12.2424C22.4485 12.2424 20.7721 13.0653 19.3244 13.7663H7.91004L3.55154 12.2424L1.79903 10.4898C1.57036 10.2764 1.50947 9.95643 1.63135 9.66692C1.75332 9.37737 2.02759 9.1945 2.33243 9.1945H23.6677C23.9725 9.1945 24.2468 9.37737 24.3688 9.66692C24.4906 9.95648 24.4297 10.2764 24.201 10.4898Z" fill="#9ED0FF"/>
<path d="M22.4485 12.2424L21.1531 13.5377L15.2859 19.3998H10.7141L4.84694 13.5377L3.55151 12.2424H22.4485Z" fill="#3AAAFF"/>
<path d="M13.3505 17.5457L15.286 19.3998V25.2366C15.286 25.4957 15.1488 25.7395 14.9202 25.8919C14.7221 26.0139 14.4631 26.0442 14.1888 25.9224L13 25.3078V17.7693L13.3505 17.5457Z" fill="#73BCFF"/>
<path d="M24.201 10.4898L22.4485 12.2424C22.4485 12.2424 20.7721 13.0653 19.3243 13.7663H13V9.1945H23.6677C23.9724 9.1945 24.2468 9.37737 24.3687 9.66692C24.4905 9.95648 24.4296 10.2764 24.201 10.4898Z" fill="#73BCFF"/>
<path d="M22.4485 12.2424L21.1531 13.5377L15.2859 19.3998H13V12.2424H22.4485Z" fill="#0095FF"/>
<path d="M6.90421 7.61973C5.64371 7.61973 4.61829 6.59431 4.61829 5.33381C4.61829 4.07332 5.64371 3.0479 6.90421 3.0479C8.1647 3.0479 9.19013 4.07332 9.19013 5.33381C9.19013 6.59431 8.1647 7.61973 6.90421 7.61973Z" fill="#FFD400"/>
<path d="M19.8577 7.61973C19.0176 7.61973 18.3337 6.93586 18.3337 6.09578C18.3337 5.25571 19.0176 4.57184 19.8577 4.57184C20.6978 4.57184 21.3816 5.25571 21.3816 6.09578C21.3816 6.93586 20.6978 7.61973 19.8577 7.61973Z" fill="#FDBF00"/>
<path d="M13.762 0C13.503 0 13.2438 0.0305195 13 0.106691C11.6894 0.441898 10.7141 1.63064 10.7141 3.04789C10.7141 4.46514 11.6895 5.65388 13 5.98914C13.2438 6.06536 13.503 6.09583 13.762 6.09583C15.4383 6.09583 16.8099 4.72423 16.8099 3.04794C16.8099 1.37165 15.4383 0 13.762 0Z" fill="#FFD400"/>
<path d="M13.762 6.09578C13.5029 6.09578 13.2438 6.06526 13 5.98909V0.106691C13.2438 0.0304688 13.503 0 13.762 0C15.4383 0 16.8099 1.3716 16.8099 3.04789C16.8099 4.72418 15.4383 6.09578 13.762 6.09578Z" fill="#FDBF00"/>
</svg>
