<svg width="26" height="26" viewBox="0 0 26 26" fill="none" xmlns="http://www.w3.org/2000/svg">
<path d="M13 26C20.1797 26 26 20.1797 26 13C26 5.8203 20.1797 0 13 0C5.8203 0 0 5.8203 0 13C0 20.1797 5.8203 26 13 26Z" fill="#FFD300"/>
<path d="M25.9917 13.4434L19.0185 6.47018L6.48242 15.5731L16.4466 25.5372C21.8168 24.0643 25.7975 19.2341 25.9917 13.4434V13.4434Z" fill="#FFB742"/>
<path d="M12.3373 7.72514C11.6462 6.59359 10.4614 5.62966 9.08241 5.4664C6.32118 5.13952 4.09 7.22353 4.13042 10.0037C4.17973 13.3965 6.01497 15.7144 8.98008 17.4638L12.3396 19.4459C12.3408 19.4466 12.3421 19.4459 12.3434 19.4459L13.359 12.4394L12.3434 7.72865C12.341 7.7286 12.3387 7.72748 12.3373 7.72514Z" fill="#FF641A"/>
<path d="M15.6044 5.4664C14.2253 5.62966 13.0406 6.59359 12.3495 7.72515C12.3481 7.72748 12.3458 7.7286 12.3434 7.7286V19.4459C12.3447 19.4459 12.346 19.4465 12.3471 19.4459L15.7067 17.4638C18.6718 15.7144 20.5071 13.3966 20.5564 10.0037C20.5968 7.22353 18.3656 5.13952 15.6044 5.4664V5.4664Z" fill="#EF3800"/>
<path d="M12.9117 15.768C12.9117 18.1047 14.806 19.999 17.1427 19.999V11.537C14.806 11.537 12.9117 13.4313 12.9117 15.768V15.768Z" fill="#A7EAF9"/>
<path d="M17.1427 11.537V19.999C19.4794 19.999 21.3736 18.1047 21.3736 15.768C21.3736 13.4313 19.4794 11.537 17.1427 11.537V11.537Z" fill="#A7EAF9"/>
<path d="M13.1375 15.768C13.1375 17.9766 14.9342 19.7733 17.1428 19.7733L18.1584 16.1545L17.1428 11.7627C14.9342 11.7627 13.1375 13.5595 13.1375 15.768Z" fill="#A7EAF9"/>
<path d="M17.1427 19.7733C19.3512 19.7733 21.148 17.9766 21.148 15.768C21.148 13.5595 19.3512 11.7627 17.1427 11.7627V19.7733Z" fill="#2AD7F5"/>
<path d="M13.1374 15.768C13.1374 13.5595 14.9342 11.7627 17.1428 11.7627L17.6506 11.3689L17.1428 10.9686C14.4964 10.9686 12.3434 13.1216 12.3434 15.768C12.3434 18.4143 14.4964 20.5674 17.1428 20.5674L17.6506 20.1195L17.1428 19.7733C14.9342 19.7733 13.1374 17.9766 13.1374 15.768Z" fill="#5A5A5A"/>
<path d="M17.1427 10.9686V11.7627C19.3512 11.7627 21.148 13.5595 21.148 15.768C21.148 17.9765 19.3512 19.7733 17.1427 19.7733V20.5674C19.7891 20.5674 21.9421 18.4143 21.9421 15.768C21.9421 13.1216 19.7891 10.9686 17.1427 10.9686V10.9686Z" fill="#32393F"/>
<path d="M17.1427 12.7561C16.8623 12.7561 16.6349 12.9835 16.6349 13.264V16.1373C16.6349 16.3136 16.7263 16.4773 16.8765 16.5697C16.9579 16.6198 17.0502 16.6451 17.1427 16.6451L17.3966 15.1856L17.1427 12.7561Z" fill="#5A5A5A"/>
<path d="M19.0953 15.1521C18.969 14.9017 18.6635 14.8011 18.4131 14.9275L17.6505 15.3123V13.264C17.6505 12.9835 17.4231 12.7561 17.1427 12.7561V16.6451C17.221 16.6451 17.2994 16.627 17.3715 16.5906L18.8706 15.8342C19.121 15.7079 19.2216 15.4025 19.0953 15.1521V15.1521Z" fill="#32393F"/>
</svg>
