<svg width="30" height="30" viewBox="0 0 30 30" fill="none" xmlns="http://www.w3.org/2000/svg">
<path d="M1.73744 22.816C1.52321 22.816 1.34766 22.99 1.34766 23.2024V29.6138C1.34766 29.8262 1.52321 30 1.73744 30H8.20816C8.42262 30 8.59795 29.8262 8.59795 29.6138V22.816H1.73744Z" fill="#FB8276"/>
<path d="M14.3774 20.1912C14.3774 19.1537 14.6795 18.2096 15.2458 17.4314C14.2923 17.8788 13.2266 18.0171 12.2032 17.8468V20.4519C12.9267 20.5309 13.6592 20.5085 14.3774 20.3856V20.1912Z" fill="#A2F9F9"/>
<path d="M23.2354 16.2066C22.4341 16.5873 21.5424 16.7985 20.6117 16.7985H18.796C17.8901 16.7985 17.0332 16.6404 16.2659 16.3421C15.0755 17.197 14.3188 18.5254 14.3188 20.1912V21.0157L14.5608 21.0399L14.5303 20.9518L14.4855 20.833C14.4438 20.7232 14.4477 20.6035 14.496 20.4966C14.5443 20.3895 14.6317 20.3075 14.7416 20.2659L14.8686 20.218C14.9187 20.199 14.9712 20.1894 15.024 20.1894C15.206 20.1894 15.3715 20.3038 15.4358 20.4741L15.9203 21.741L15.9247 21.7469C15.9778 21.8227 16.0247 21.9035 16.0641 21.987L16.076 22.0122L16.1028 22.0189C16.4909 22.1171 16.8913 22.1667 17.2927 22.1667C19.1434 22.1667 20.8646 21.1038 21.6779 19.4588C21.8763 19.0571 22.2796 18.8079 22.7303 18.8079C22.9076 18.8079 23.0788 18.847 23.2395 18.9246C23.5194 19.0601 23.7289 19.2956 23.8293 19.5881C23.9294 19.8795 23.909 20.1926 23.7721 20.4698C23.167 21.6943 22.2279 22.7163 21.0564 23.4251C19.9162 24.1152 18.6099 24.48 17.2792 24.48C17.2792 24.48 17.2792 24.48 17.279 24.48C16.7766 24.48 16.2776 24.4265 15.789 24.323V26.6935H16.824L16.8299 26.6416C16.9002 26.028 17.4239 25.5654 18.0476 25.5654C18.5067 25.5654 18.924 25.8165 19.1361 26.2207L19.1879 26.3195L19.2398 26.2207C19.452 25.8165 19.869 25.5654 20.3284 25.5654C20.9521 25.5654 21.4755 26.0282 21.546 26.6416L21.5522 26.6935H25.3445V20.1308C25.3445 18.3904 24.519 17.0382 23.2354 16.2066V16.2066Z" fill="#48E5E1"/>
<path d="M14.5608 21.0399L14.5303 20.9518L14.4855 20.833C14.4438 20.7232 14.4477 20.6035 14.496 20.4966C14.5443 20.3895 14.6317 20.3075 14.7416 20.2659L14.8686 20.218C14.9187 20.199 14.9712 20.1894 15.024 20.1894C15.206 20.1894 15.3715 20.3038 15.4358 20.4741L15.9203 21.741L15.9247 21.7469C15.9778 21.8227 16.0247 21.9035 16.0641 21.987L16.076 22.0122L16.1028 22.0189C16.1263 22.025 16.1504 22.0301 16.1739 22.0358V20.1912C16.1739 18.7495 16.7411 17.5605 17.6653 16.7125C17.1744 16.6374 16.7054 16.5129 16.2659 16.3421C15.0755 17.197 14.3188 18.5257 14.3188 20.1912V21.0157L14.5608 21.0399Z" fill="#41CECA"/>
<path d="M19.102 26.7798C19.102 26.5942 19.1455 26.4189 19.221 26.2614C19.0205 25.8167 18.5708 25.5068 18.0476 25.5068C17.3875 25.5068 16.8446 26.0002 16.7718 26.6347H15.789V29.6136C15.789 29.8262 15.6134 30 15.3992 30H18.1352V29.9956C18.6209 29.9631 19.0318 29.663 19.2206 29.2433C19.1453 29.086 19.102 28.9112 19.102 28.7269V26.7798Z" fill="#A2F9F9"/>
<path d="M20.2407 29.9956V30H25.4485C26.3862 30 27.1466 29.2467 27.1466 28.3172C27.1466 27.3882 26.3862 26.6347 25.4485 26.6347H21.6044C21.5314 26.0002 20.9885 25.5068 20.3284 25.5068C19.6189 25.5068 19.0435 26.0767 19.0435 26.7798V28.7269C19.0435 29.4007 19.5722 29.9507 20.2407 29.9956V29.9956Z" fill="#A2F9F9"/>
<path d="M20.8823 28.7269V26.7798C20.8823 26.4344 21.0219 26.1213 21.2474 25.892C21.0141 25.6549 20.6891 25.5068 20.3284 25.5068C19.6189 25.5068 19.0435 26.0769 19.0435 26.7798V28.7269C19.0435 29.4007 19.5722 29.951 20.2407 29.9956V30H22.0798V29.9956C21.4112 29.9507 20.8823 29.4007 20.8823 28.7269V28.7269Z" fill="#91E0E0"/>
<path d="M20.6117 16.7985H18.796C18.5126 16.7985 18.2348 16.7818 17.9622 16.7516V16.8029C17.9622 17.6065 18.6197 18.2581 19.4307 18.2581C20.2418 18.2581 20.8994 17.6065 20.8994 16.8029V16.7912C20.8037 16.7958 20.7081 16.7985 20.6117 16.7985Z" fill="#FFC987"/>
<path d="M26.7966 7.44414C26.7883 7.44414 26.7801 7.44482 26.7719 7.44482V6.58629C26.7719 6.52083 26.7705 6.4556 26.7684 6.39059C26.6375 6.49451 26.489 6.57713 26.323 6.63596C25.9561 6.76573 25.5977 6.83142 25.258 6.83142C25.258 6.83142 25.258 6.83142 25.2578 6.83142C23.413 6.83142 22.5783 4.89027 22.57 4.87059L22.5146 4.7383L22.4615 4.87151C22.4515 4.89668 21.4396 7.38852 19.7498 7.38852C19.5644 7.38852 19.3744 7.35808 19.1856 7.29857C18.3842 7.04611 18.1194 6.4366 18.3982 5.4872L18.2915 5.44051C17.7722 6.30728 16.9755 7.34068 16.1298 7.34068C16.0309 7.34068 15.9322 7.32649 15.8361 7.29834C15.5214 7.20633 15.2959 7.02277 15.1664 6.75269C14.9551 6.31255 15.0062 5.64284 15.3065 4.91545L15.1996 4.86784C14.4997 6.33566 13.7547 7.04909 12.9222 7.04909C12.8284 7.04909 12.7327 7.03947 12.6361 7.02048V10.7194C12.6361 14.7052 15.3939 16.8571 18.7958 16.8571H20.6115C23.4682 16.8571 25.8694 14.9199 26.5668 12.2925C26.6421 12.304 26.7188 12.3106 26.7966 12.3106C27.8515 12.3106 28.7066 11.2211 28.7066 9.87738C28.7066 8.53361 27.8515 7.44414 26.7966 7.44414Z" fill="#FFD5B3"/>
<path d="M14.4839 10.7194V6.58627C14.4839 6.4066 14.4921 6.22876 14.5072 6.05298C14.0103 6.72086 13.4864 7.04907 12.9222 7.04907C12.8284 7.04907 12.7327 7.03946 12.6361 7.02046V10.7194C12.6361 14.7052 15.3939 16.8571 18.796 16.8571H20.6117C20.6152 16.8571 20.6184 16.8569 20.6218 16.8569C17.23 16.8477 14.4839 14.6967 14.4839 10.7194V10.7194Z" fill="#E5BFA1"/>
<path d="M22.0022 10.6345C21.7594 10.6345 21.5627 10.4379 21.5627 10.1951V9.45236C21.5627 9.20975 21.7594 9.01291 22.0022 9.01291C22.2448 9.01291 22.4417 9.20975 22.4417 9.45236V10.1951C22.4417 10.4379 22.2448 10.6345 22.0022 10.6345Z" fill="#775436"/>
<path d="M15.3129 10.6345C15.0703 10.6345 14.8734 10.4379 14.8734 10.1951V9.45236C14.8734 9.20975 15.0703 9.01291 15.3129 9.01291C15.5557 9.01291 15.7523 9.20975 15.7523 9.45236V10.1951C15.7523 10.4379 15.5557 10.6345 15.3129 10.6345Z" fill="#775436"/>
<path d="M18.951 11.2862H18.6573C18.2533 11.2862 17.9244 10.9536 17.9244 10.545V9.97421C17.9244 9.73137 18.121 9.53476 18.3639 9.53476C18.6067 9.53476 18.8033 9.73137 18.8033 9.97421V10.4073H18.951C19.1936 10.4073 19.3904 10.6041 19.3904 10.8467C19.3904 11.0896 19.1936 11.2862 18.951 11.2862Z" fill="#775436"/>
<path d="M18.7595 14.9091C17.6165 14.9091 16.6865 13.9876 16.6865 12.8551C16.6865 12.6418 16.8612 12.4688 17.0763 12.4688H20.4427C20.6581 12.4688 20.8325 12.6418 20.8325 12.8551C20.8325 13.9879 19.9025 14.9091 18.7595 14.9091V14.9091Z" fill="#FB8276"/>
<path d="M18.5471 12.8551C18.5471 12.6418 18.7215 12.469 18.9369 12.469H17.0763C16.8609 12.469 16.6865 12.6418 16.6865 12.8551C16.6865 13.9879 17.6165 14.9091 18.7595 14.9091C19.0939 14.9091 19.4098 14.8299 19.6897 14.6901C19.0129 14.3515 18.5471 13.6564 18.5471 12.8551V12.8551Z" fill="#E1756A"/>
<path d="M20.4916 0H18.5276C14.8474 0 11.8641 2.97249 11.8641 6.63918V6.73851C11.9868 6.83258 12.131 6.91498 12.3008 6.98204C13.7128 7.54189 14.667 6.12122 15.2525 4.89327C14.8165 5.9491 14.8309 7.06581 15.8199 7.35466C16.7739 7.63321 17.6899 6.55884 18.3419 5.47073C18.1186 6.23154 18.1678 7.03926 19.168 7.35466C21.2726 8.01819 22.5163 4.89327 22.5163 4.89327C22.5163 4.89327 23.6641 7.63893 26.3427 6.69113C26.6895 6.56822 26.9458 6.35765 27.1306 6.08482C26.8474 2.67769 23.9843 0 20.4916 0V0Z" fill="#F7931E"/>
<path d="M13.7046 6.73851V6.63918C13.7046 2.97249 16.6878 0 20.368 0H18.5276C14.8474 0 11.8641 2.97249 11.8641 6.63918V6.73851C11.9868 6.83258 12.131 6.91498 12.3008 6.98204C12.8822 7.21252 13.3857 7.10678 13.8181 6.81747C13.7787 6.79207 13.7403 6.76598 13.7046 6.73851Z" fill="#DE841B"/>
<path d="M10.7419 15.6907V15.1913C10.7419 14.7221 10.3579 14.3417 9.88431 14.3417H7.38972C6.91594 14.3417 6.5321 14.7221 6.5321 15.1913V15.6907H10.7419Z" fill="#89C947"/>
<path d="M8.40297 15.6907V15.1913C8.40297 14.7221 8.7868 14.3417 9.26036 14.3417H7.38948C6.91592 14.3417 6.53186 14.7221 6.53186 15.1913V15.6907H8.40297Z" fill="#7BB540"/>
<path d="M12.2621 22.4299C12.2621 22.6423 12.0866 22.8161 11.8723 22.8161H5.40163C5.18716 22.8161 5.01184 22.6423 5.01184 22.4299V16.0185C5.01184 15.8061 5.18716 15.6321 5.40163 15.6321H11.8723C12.0866 15.6321 12.2621 15.8061 12.2621 16.0185V22.4299Z" fill="#D5E962"/>
<path d="M9.6597 20.9944C9.62445 20.9944 9.58897 20.9861 9.55647 20.969L8.63683 20.4927L7.71718 20.969C7.68468 20.9861 7.6492 20.9944 7.61395 20.9944C7.56795 20.9944 7.5224 20.9804 7.48349 20.9525C7.41506 20.9037 7.38095 20.8207 7.39537 20.7385L7.57092 19.7294L6.82683 19.0146C6.76641 18.9566 6.74466 18.8694 6.77076 18.7905C6.79685 18.7113 6.8662 18.6534 6.94974 18.6413L7.9781 18.4943L8.43793 17.576C8.47524 17.5014 8.5526 17.4543 8.63683 17.4543C8.72128 17.4543 8.79842 17.5014 8.83595 17.576L9.29577 18.4943L10.3239 18.6413C10.4075 18.6534 10.4768 18.7113 10.5029 18.7905C10.5292 18.8697 10.5075 18.9566 10.4468 19.0146L9.70295 19.7294L9.87851 20.7385C9.89293 20.8207 9.85859 20.9037 9.79039 20.9525C9.75171 20.9804 9.7057 20.9944 9.6597 20.9944V20.9944Z" fill="#89C947"/>
<path d="M2.78114 29.6136V23.2022C2.78114 22.9898 2.95647 22.816 3.17093 22.816H1.73744C1.52321 22.816 1.34766 22.9898 1.34766 23.2022V29.6136C1.34766 29.8262 1.52321 30 1.73744 30H3.17093C2.95647 30 2.78114 29.8262 2.78114 29.6136Z" fill="#E1756A"/>
<path d="M4.97272 28.0673C4.92419 28.0673 4.87773 28.0485 4.8434 28.0149L3.22292 26.4301C2.83015 26.0458 2.83015 25.4212 3.22292 25.0371C3.41312 24.8513 3.66603 24.7487 3.93497 24.7487C4.2039 24.7487 4.45682 24.8513 4.64702 25.0373L4.97272 25.3559L5.29865 25.0373C5.48885 24.8513 5.74176 24.7487 6.0107 24.7487C6.27963 24.7487 6.53255 24.8513 6.72275 25.0371C7.11551 25.4212 7.11551 26.046 6.72275 26.4301L5.10226 28.0146C5.06793 28.0483 5.02147 28.0673 4.97272 28.0673V28.0673Z" fill="#EF5050"/>
<path d="M15.1526 24.1587L15.1345 24.1529L15.1165 24.1591C14.9457 24.2166 14.7676 24.2456 14.5873 24.2456C14.5312 24.2456 14.4744 24.2429 14.4186 24.2372L12.9185 24.0863C12.6972 24.0639 12.5351 23.8657 12.5573 23.6444L12.5699 23.5192C12.5907 23.312 12.7631 23.1559 12.9709 23.1559C12.9844 23.1559 12.9982 23.1566 13.0119 23.158L14.1538 23.2729L14.1737 23.0756L12.7928 22.9367C12.6972 22.927 12.61 22.8845 12.5438 22.816H8.5979V29.6136C8.5979 29.8262 8.77322 30 8.98769 30H15.4584C15.6726 30 15.848 29.8262 15.848 29.6136V24.3354C15.6138 24.2878 15.3815 24.2296 15.1526 24.1587V24.1587Z" fill="#FFC502"/>
<path d="M10.2092 29.6136V22.816H8.5979V29.6138C8.5979 29.8262 8.77322 30 8.98769 30H10.599C10.3846 30 10.2092 29.8262 10.2092 29.6136Z" fill="#E5B102"/>
<path d="M11.6581 28.0464C11.4436 28.0464 11.1807 27.8961 11.0735 27.712L10.5084 26.7425C10.4013 26.5585 10.4013 26.2575 10.5084 26.0735L11.0735 25.1039C11.1807 24.9199 11.4436 24.7695 11.6581 24.7695H12.7879C13.0023 24.7695 13.2655 24.9199 13.3727 25.1039L13.9375 26.0735C14.0449 26.2575 14.0449 26.5585 13.9375 26.7425L13.3727 27.712C13.2655 27.8961 13.0023 28.0464 12.7879 28.0464H11.6581Z" fill="#FCDB67"/>
<path d="M6.56 22.4299V16.0185C6.56 15.8061 6.73532 15.6321 6.94978 15.6321H5.40163C5.18716 15.6321 5.01184 15.8061 5.01184 16.0185V22.4299C5.01184 22.6423 5.18716 22.8161 5.40163 22.8161H6.94978C6.73532 22.8161 6.56 22.6423 6.56 22.4299Z" fill="#BFD158"/>
<path d="M26.7581 11.2825C26.6018 11.2825 26.4505 11.1989 26.371 11.0518C26.2557 10.8382 26.3351 10.5718 26.5487 10.4562C27.0463 10.1873 26.7567 9.50155 26.7441 9.47248C26.6478 9.24978 26.7503 8.99115 26.973 8.89479C27.1957 8.79843 27.4546 8.90097 27.5507 9.12367C27.5663 9.15914 27.7015 9.48278 27.7132 9.88378C27.7311 10.4819 27.4658 10.9598 26.9664 11.2296C26.9002 11.2655 26.8286 11.2825 26.7581 11.2825V11.2825Z" fill="#FFB98A"/>
<path d="M23.2649 18.8717C22.6575 18.5783 21.9235 18.8294 21.6252 19.4327C20.5934 21.5201 18.2197 22.5316 16.041 21.9433C16.1767 22.2111 16.2357 22.5119 16.2058 22.8113C16.1387 23.4771 15.6656 24.0095 15.0387 24.1843C18.4223 25.2846 22.2105 23.7611 23.8245 20.4957C24.1228 19.8923 23.8721 19.1654 23.2649 18.8717V18.8717Z" fill="#A2F9F9"/>
<path d="M12.499 23.6386L12.5118 23.5132C12.5372 23.2594 12.7638 23.0742 13.0179 23.0996L14.1014 23.2086L14.1097 23.128L12.7869 22.9948C12.5331 22.9694 12.348 22.7428 12.3736 22.489L12.3862 22.3635C12.4116 22.1097 12.6382 21.9245 12.8922 21.95L14.2147 22.0832L14.223 22.0024L13.1392 21.8934C12.8851 21.868 12.7 21.6414 12.7256 21.3874L12.7382 21.2619C12.7638 21.0081 12.9904 20.8229 13.2443 20.8483L14.4724 20.9722L14.4754 20.9724L14.4306 20.8536C14.3333 20.5959 14.4633 20.3082 14.7208 20.2109L14.848 20.1628C15.1058 20.0656 15.3932 20.1956 15.4907 20.4533L15.9725 21.7131C16.192 22.0255 16.3046 22.4116 16.2641 22.817C16.1723 23.7272 15.3436 24.3891 14.4127 24.2953L12.9126 24.1445C12.6588 24.1191 12.4736 23.8925 12.499 23.6386V23.6386Z" fill="#FFD5B3"/>
</svg>
