<svg width="24" height="24" viewBox="0 0 24 24" fill="none" xmlns="http://www.w3.org/2000/svg">
<g clip-path="url(#clip0_139_9)">
<path d="M19.5164 3.95607L11.2087 23.9837C11.4696 23.9942 11.7333 24 11.9999 24C17.0251 24 21.0988 22.089 21.0988 19.7317C21.0988 17.3743 21.0988 3.95607 21.0988 3.95607H19.5164V3.95607Z" fill="#A2B1B7"/>
<path d="M19.5165 19.7317C19.5165 17.3743 19.5165 3.95607 19.5165 3.95607H2.90112C2.90112 3.95607 2.90112 17.3743 2.90112 19.7317C2.90112 21.9639 6.55419 23.7956 11.2088 23.9838C15.8635 23.7956 19.5165 21.9639 19.5165 19.7317Z" fill="#C4D3D9"/>
<path d="M21.0989 3.95606C21.0989 1.77122 17.0252 0 12 0L10.9451 3.95606L12 7.91208V19.7802C12 20.3629 12.4723 20.8352 13.0549 20.8352C13.6376 20.8352 14.1099 20.3629 14.1099 19.7802V7.80497C14.6582 7.74839 15.1874 7.67016 15.6923 7.57256V16.6154C15.6923 17.1981 16.1646 17.6703 16.7472 17.6703C17.3298 17.6703 17.8021 17.198 17.8021 16.6154V7.00341C19.816 6.27778 21.0989 5.18208 21.0989 3.95606Z" fill="#E0315B"/>
<path d="M12 0C6.97484 0 2.90112 1.77122 2.90112 3.95606C2.90112 5.18208 4.184 6.27778 6.19784 7.00341V13.4505C6.19784 14.0332 6.67016 14.5055 7.25277 14.5055C7.83538 14.5055 8.30769 14.0332 8.30769 13.4505V7.57256C9.43616 7.79067 10.6854 7.91208 12 7.91208V0H12Z" fill="#EA5A7D"/>
<path d="M12 1.58241C7.99449 1.58241 4.74731 2.64512 4.74731 3.95602C4.74731 4.3884 5.10071 4.79368 5.71786 5.14285H18.2822C18.8994 4.79373 19.2528 4.3884 19.2528 3.95602C19.2528 2.64512 16.0056 1.58241 12 1.58241Z" fill="#F5849F"/>
<path d="M5.71777 5.14285C6.97182 5.8523 9.31552 6.32968 12 6.32968C14.6844 6.32968 17.0281 5.8523 18.2821 5.14285C17.0281 4.4334 14.6845 3.95607 12 3.95607C9.31543 3.95607 6.97177 4.4334 5.71777 5.14285Z" fill="#E0315B"/>
</g>
<defs>
<clipPath id="clip0_139_9">
<rect width="24" height="24" fill="white"/>
</clipPath>
</defs>
</svg>
