<svg width="62" height="62" viewBox="0 0 62 62" fill="none" xmlns="http://www.w3.org/2000/svg">
<rect x="0.885742" y="0.822845" width="61.1143" height="61.1143" rx="8" fill="#EBFFF5"/>
<path d="M17.7597 46.5043H21.6963C22.4233 46.5043 23.0528 46.6285 23.5848 46.8767C24.1168 47.125 24.5512 47.4663 24.8881 47.9008C25.225 48.3263 25.4733 48.8273 25.6329 49.4036C25.8013 49.9799 25.8856 50.5961 25.8856 51.2522C25.8856 51.9083 25.8013 52.5245 25.6329 53.1008C25.4733 53.6771 25.225 54.1824 24.8881 54.6169C24.5512 55.0425 24.1168 55.3794 23.5848 55.6276C23.0528 55.8759 22.4233 56 21.6963 56H17.7597V46.5043ZM19.4221 54.6435H21.058C21.7052 54.6435 22.2327 54.5592 22.6406 54.3908C23.0573 54.2135 23.3809 53.9741 23.6114 53.6726C23.8508 53.3623 24.0104 53.0032 24.0902 52.5954C24.1788 52.1787 24.2232 51.7309 24.2232 51.2522C24.2232 50.7734 24.1788 50.3301 24.0902 49.9222C24.0104 49.5055 23.8508 49.1465 23.6114 48.845C23.3809 48.5347 23.0573 48.2953 22.6406 48.1269C22.2327 47.9495 21.7052 47.8609 21.058 47.8609H19.4221V54.6435ZM33.4685 54.4706C33.4685 54.6568 33.4907 54.7898 33.535 54.8696C33.5882 54.9494 33.6857 54.9893 33.8276 54.9893C33.8719 54.9893 33.9251 54.9893 33.9872 54.9893C34.0493 54.9893 34.1202 54.9804 34.2 54.9627V56.0133C34.1468 56.031 34.0759 56.0488 33.9872 56.0665C33.9074 56.0931 33.8232 56.1153 33.7345 56.133C33.6458 56.1507 33.5572 56.164 33.4685 56.1729C33.3799 56.1818 33.3045 56.1862 33.2424 56.1862C32.9321 56.1862 32.675 56.1241 32.4711 56C32.2672 55.8759 32.1342 55.6587 32.0721 55.3483C31.7707 55.6409 31.3983 55.8537 30.955 55.9867C30.5205 56.1197 30.0994 56.1862 29.6915 56.1862C29.3812 56.1862 29.0842 56.1419 28.8005 56.0532C28.5168 55.9734 28.2641 55.8537 28.0424 55.6941C27.8297 55.5257 27.6568 55.3173 27.5238 55.0691C27.3996 54.8119 27.3376 54.5149 27.3376 54.178C27.3376 53.7524 27.4129 53.4066 27.5637 53.1407C27.7233 52.8747 27.9272 52.6663 28.1754 52.5156C28.4325 52.3649 28.7163 52.2585 29.0266 52.1964C29.3458 52.1255 29.6649 52.0723 29.9841 52.0368C30.259 51.9836 30.5205 51.9482 30.7688 51.9304C31.017 51.9038 31.2343 51.8639 31.4204 51.8107C31.6155 51.7575 31.7662 51.6777 31.8726 51.5714C31.9879 51.4561 32.0455 51.2876 32.0455 51.066C32.0455 50.8709 31.9967 50.7113 31.8992 50.5872C31.8106 50.4631 31.6953 50.37 31.5534 50.3079C31.4204 50.237 31.2697 50.1927 31.1013 50.1749C30.9328 50.1483 30.7732 50.135 30.6225 50.135C30.1969 50.135 29.8467 50.2237 29.5719 50.401C29.297 50.5783 29.1418 50.8532 29.1064 51.2256H27.5903C27.6169 50.7823 27.7233 50.4143 27.9094 50.1217C28.0956 49.8292 28.3306 49.5942 28.6143 49.4169C28.9069 49.2396 29.2349 49.1154 29.5984 49.0445C29.962 48.9736 30.3343 48.9381 30.7156 48.9381C31.0525 48.9381 31.385 48.9736 31.713 49.0445C32.0411 49.1154 32.3337 49.2307 32.5908 49.3903C32.8568 49.5499 33.0695 49.7582 33.2291 50.0153C33.3887 50.2636 33.4685 50.5695 33.4685 50.933V54.4706ZM31.9524 52.5555C31.7219 52.7062 31.4382 52.7993 31.1013 52.8348C30.7643 52.8614 30.4274 52.9057 30.0905 52.9678C29.9309 52.9944 29.7758 53.0343 29.625 53.0875C29.4743 53.1318 29.3413 53.1983 29.2261 53.287C29.1108 53.3668 29.0177 53.4776 28.9468 53.6194C28.8847 53.7524 28.8537 53.9165 28.8537 54.1115C28.8537 54.28 28.9025 54.4218 29 54.5371C29.0975 54.6523 29.2128 54.7454 29.3458 54.8164C29.4876 54.8784 29.6383 54.9228 29.7979 54.9494C29.9664 54.976 30.1171 54.9893 30.2501 54.9893C30.4186 54.9893 30.6003 54.9671 30.7954 54.9228C30.9904 54.8784 31.1722 54.8031 31.3406 54.6967C31.518 54.5903 31.6643 54.4573 31.7795 54.2977C31.8948 54.1292 31.9524 53.9253 31.9524 53.6859V52.5555ZM34.9735 49.1243H36.1173V47.0629H37.6334V49.1243H39.0032V50.2547H37.6334V53.9253C37.6334 54.0849 37.6378 54.2223 37.6467 54.3376C37.6644 54.4529 37.6954 54.5504 37.7398 54.6302C37.793 54.71 37.8683 54.772 37.9658 54.8164C38.0634 54.8518 38.1964 54.8696 38.3648 54.8696C38.4712 54.8696 38.5776 54.8696 38.684 54.8696C38.7904 54.8607 38.8968 54.843 39.0032 54.8164V55.9867C38.8347 56.0044 38.6707 56.0222 38.5111 56.0399C38.3515 56.0576 38.1875 56.0665 38.019 56.0665C37.6201 56.0665 37.2965 56.031 37.0482 55.9601C36.8088 55.8803 36.6182 55.7695 36.4763 55.6276C36.3433 55.4769 36.2502 55.2907 36.197 55.0691C36.1527 54.8474 36.1261 54.5947 36.1173 54.311V50.2547H34.9735V49.1243ZM45.3803 51.957C45.3625 51.7176 45.3093 51.4871 45.2207 51.2655C45.1409 51.0438 45.0256 50.8532 44.8749 50.6936C44.733 50.5251 44.5557 50.3922 44.3429 50.2946C44.139 50.1882 43.9085 50.135 43.6514 50.135C43.3854 50.135 43.1416 50.1838 42.9199 50.2813C42.7071 50.37 42.5209 50.4985 42.3614 50.667C42.2106 50.8266 42.0865 51.0172 41.989 51.2389C41.9003 51.4605 41.8515 51.6999 41.8427 51.957H45.3803ZM41.8427 52.9545C41.8427 53.2205 41.8781 53.4776 41.9491 53.7258C42.0289 53.9741 42.1441 54.1913 42.2949 54.3775C42.4456 54.5637 42.6362 54.7144 42.8667 54.8297C43.0972 54.9361 43.3721 54.9893 43.6913 54.9893C44.1346 54.9893 44.4892 54.8962 44.7552 54.71C45.0301 54.5149 45.234 54.2268 45.367 53.8455H46.8033C46.7235 54.2179 46.5861 54.5504 46.391 54.843C46.196 55.1355 45.961 55.3838 45.6862 55.5877C45.4113 55.7828 45.101 55.9291 44.7552 56.0266C44.4183 56.133 44.0637 56.1862 43.6913 56.1862C43.1504 56.1862 42.6717 56.0975 42.255 55.9202C41.8382 55.7429 41.4836 55.4946 41.191 55.1754C40.9073 54.8563 40.6901 54.475 40.5394 54.0317C40.3975 53.5884 40.3266 53.1008 40.3266 52.5688C40.3266 52.0812 40.4019 51.6201 40.5527 51.1857C40.7122 50.7424 40.9339 50.3567 41.2176 50.0286C41.5102 49.6917 41.8604 49.4257 42.2683 49.2307C42.6761 49.0356 43.1371 48.9381 43.6514 48.9381C44.1922 48.9381 44.6754 49.0534 45.101 49.2839C45.5354 49.5055 45.8945 49.8026 46.1782 50.1749C46.4619 50.5473 46.6659 50.9773 46.79 51.465C46.923 51.9437 46.9585 52.4402 46.8964 52.9545H41.8427Z" fill="#4E4E4E"/>
<path d="M32 37C39.1797 37 45 31.1797 45 24C45 16.8203 39.1797 11 32 11C24.8203 11 19 16.8203 19 24C19 31.1797 24.8203 37 32 37Z" fill="#FFD300"/>
<path d="M44.9917 24.4434L38.0185 17.4702L25.4824 26.5731L35.4466 36.5372C40.8168 35.0643 44.7975 30.2341 44.9917 24.4434V24.4434Z" fill="#FFB742"/>
<path d="M31.3373 18.7251C30.6462 17.5936 29.4614 16.6297 28.0824 16.4664C25.3212 16.1395 23.09 18.2235 23.1304 21.0037C23.1797 24.3965 25.015 26.7144 27.9801 28.4638L31.3396 30.4459C31.3408 30.4466 31.3421 30.4459 31.3434 30.4459L32.359 23.4394L31.3434 18.7286C31.341 18.7286 31.3387 18.7275 31.3373 18.7251Z" fill="#FF641A"/>
<path d="M34.6043 16.4664C33.2252 16.6297 32.0404 17.5936 31.3494 18.7251C31.348 18.7275 31.3456 18.7286 31.3433 18.7286V30.4459C31.3445 30.4459 31.3459 30.4465 31.347 30.4459L34.7066 28.4638C37.6717 26.7144 39.507 24.3966 39.5563 21.0037C39.5966 18.2235 37.3655 16.1395 34.6043 16.4664V16.4664Z" fill="#EF3800"/>
<path d="M31.9116 26.768C31.9116 29.1047 33.8059 30.999 36.1426 30.999V22.537C33.8059 22.537 31.9116 24.4313 31.9116 26.768V26.768Z" fill="#A7EAF9"/>
<path d="M36.1426 22.537V30.999C38.4793 30.999 40.3735 29.1047 40.3735 26.768C40.3735 24.4313 38.4793 22.537 36.1426 22.537V22.537Z" fill="#A7EAF9"/>
<path d="M32.1372 26.768C32.1372 28.9766 33.934 30.7733 36.1425 30.7733L37.1582 27.1545L36.1425 22.7627C33.9339 22.7627 32.1372 24.5595 32.1372 26.768Z" fill="#A7EAF9"/>
<path d="M36.1426 30.7733C38.3511 30.7733 40.1479 28.9766 40.1479 26.768C40.1479 24.5595 38.3511 22.7627 36.1426 22.7627V30.7733Z" fill="#2AD7F5"/>
<path d="M32.1373 26.768C32.1373 24.5595 33.9341 22.7627 36.1426 22.7627L36.6505 22.3689L36.1426 21.9686C33.4962 21.9686 31.3433 24.1216 31.3433 26.768C31.3433 29.4143 33.4963 31.5674 36.1426 31.5674L36.6505 31.1195L36.1426 30.7733C33.9341 30.7733 32.1373 28.9766 32.1373 26.768Z" fill="#5A5A5A"/>
<path d="M36.1426 21.9686V22.7627C38.3511 22.7627 40.1479 24.5595 40.1479 26.768C40.1479 28.9765 38.3511 30.7733 36.1426 30.7733V31.5674C38.789 31.5674 40.942 29.4143 40.942 26.768C40.942 24.1216 38.7889 21.9686 36.1426 21.9686V21.9686Z" fill="#32393F"/>
<path d="M36.1426 23.7561C35.8622 23.7561 35.6348 23.9835 35.6348 24.264V27.1373C35.6348 27.3136 35.7262 27.4773 35.8764 27.5697C35.9578 27.6198 36.0501 27.6451 36.1426 27.6451L36.3965 26.1856L36.1426 23.7561Z" fill="#5A5A5A"/>
<path d="M38.0952 26.1521C37.9689 25.9017 37.6634 25.8011 37.413 25.9275L36.6504 26.3123V24.264C36.6504 23.9835 36.423 23.7561 36.1426 23.7561V27.6451C36.2208 27.6451 36.2992 27.627 36.3713 27.5906L37.8705 26.8342C38.1209 26.7079 38.2215 26.4025 38.0952 26.1521V26.1521Z" fill="#32393F"/>
</svg>
