<svg width="86" height="86" viewBox="0 0 86 86" fill="none" xmlns="http://www.w3.org/2000/svg">
<g filter="url(#filter0_d_111_148)">
<rect x="12" y="12.8228" width="61.1143" height="61.1143" rx="8" fill="white"/>
</g>
<path d="M27.3152 58.5043H33.8718V59.9407H28.9776V62.4276H33.2733V63.7841H28.9776V68H27.3152V58.5043ZM35.591 58.5043H37.1071V59.9407H35.591V58.5043ZM35.591 61.1243H37.1071V68H35.591V61.1243ZM39.3641 58.5043H40.8802V68H39.3641V58.5043ZM42.4058 61.1243H43.5495V59.0629H45.0657V61.1243H46.4355V62.2547H45.0657V65.9253C45.0657 66.0849 45.0701 66.2223 45.079 66.3376C45.0967 66.4529 45.1277 66.5504 45.1721 66.6302C45.2253 66.71 45.3006 66.772 45.3981 66.8164C45.4957 66.8518 45.6287 66.8696 45.7971 66.8696C45.9035 66.8696 46.0099 66.8696 46.1163 66.8696C46.2227 66.8607 46.3291 66.843 46.4355 66.8164V67.9867C46.267 68.0044 46.103 68.0222 45.9434 68.0399C45.7838 68.0576 45.6198 68.0665 45.4513 68.0665C45.0524 68.0665 44.7287 68.031 44.4805 67.9601C44.2411 67.8803 44.0505 67.7695 43.9086 67.6276C43.7756 67.4769 43.6825 67.2907 43.6293 67.0691C43.585 66.8474 43.5584 66.5947 43.5495 66.311V62.2547H42.4058V61.1243ZM52.8126 63.957C52.7948 63.7176 52.7416 63.4871 52.653 63.2655C52.5732 63.0438 52.4579 62.8532 52.3072 62.6936C52.1653 62.5251 51.988 62.3922 51.7752 62.2946C51.5713 62.1882 51.3408 62.135 51.0837 62.135C50.8177 62.135 50.5739 62.1838 50.3522 62.2813C50.1394 62.37 49.9532 62.4985 49.7936 62.667C49.6429 62.8266 49.5188 63.0172 49.4213 63.2389C49.3326 63.4605 49.2838 63.6999 49.275 63.957H52.8126ZM49.275 64.9545C49.275 65.2205 49.3104 65.4776 49.3814 65.7258C49.4612 65.9741 49.5764 66.1913 49.7271 66.3775C49.8779 66.5637 50.0685 66.7144 50.299 66.8297C50.5295 66.9361 50.8044 66.9893 51.1236 66.9893C51.5669 66.9893 51.9215 66.8962 52.1875 66.71C52.4624 66.5149 52.6663 66.2268 52.7993 65.8455H54.2356C54.1558 66.2179 54.0184 66.5504 53.8233 66.843C53.6283 67.1355 53.3933 67.3838 53.1185 67.5877C52.8436 67.7828 52.5333 67.9291 52.1875 68.0266C51.8506 68.133 51.4959 68.1862 51.1236 68.1862C50.5827 68.1862 50.104 68.0975 49.6872 67.9202C49.2705 67.7429 48.9159 67.4946 48.6233 67.1754C48.3396 66.8563 48.1224 66.475 47.9716 66.0317C47.8298 65.5884 47.7589 65.1008 47.7589 64.5688C47.7589 64.0812 47.8342 63.6201 47.9849 63.1857C48.1445 62.7424 48.3662 62.3567 48.6499 62.0286C48.9425 61.6917 49.2927 61.4257 49.7005 61.2307C50.1084 61.0356 50.5694 60.9381 51.0837 60.9381C51.6245 60.9381 52.1077 61.0534 52.5333 61.2839C52.9677 61.5055 53.3268 61.8026 53.6105 62.1749C53.8942 62.5473 54.0982 62.9773 54.2223 63.465C54.3553 63.9437 54.3907 64.4402 54.3287 64.9545H49.275ZM56.0465 61.1243H57.4695V62.4542H57.4961C57.5404 62.268 57.6246 62.0863 57.7488 61.909C57.8818 61.7316 58.0369 61.572 58.2142 61.4302C58.4004 61.2795 58.6044 61.1598 58.826 61.0711C59.0477 60.9824 59.2737 60.9381 59.5043 60.9381C59.6816 60.9381 59.8013 60.9425 59.8633 60.9514C59.9343 60.9603 60.0052 60.9691 60.0761 60.978V62.4409C59.9697 62.4232 59.8589 62.4099 59.7437 62.401C59.6373 62.3833 59.5309 62.3744 59.4245 62.3744C59.1674 62.3744 58.9235 62.4276 58.693 62.534C58.4714 62.6315 58.2763 62.7823 58.1078 62.9862C57.9394 63.1812 57.8064 63.4251 57.7089 63.7176C57.6113 64.0102 57.5626 64.3471 57.5626 64.7284V68H56.0465V61.1243Z" fill="#4E4E4E"/>
<path d="M45.2862 42.3998V48.2366C45.2862 48.4957 45.149 48.7395 44.9205 48.8919C44.7224 49.0139 44.4633 49.0442 44.189 48.9224L41.1411 47.3985C40.882 47.2613 40.7144 47.0022 40.7144 46.7127V42.3998L43.0003 40.7897L43.3507 40.5458L45.2862 42.3998Z" fill="#9ED0FF"/>
<path d="M54.201 33.4898L52.4485 35.2424C52.4485 35.2424 50.7721 36.0653 49.3244 36.7663H37.91L33.5515 35.2424L31.799 33.4898C31.5704 33.2764 31.5095 32.9564 31.6313 32.6669C31.7533 32.3774 32.0276 32.1945 32.3324 32.1945H53.6677C53.9725 32.1945 54.2468 32.3774 54.3688 32.6669C54.4906 32.9565 54.4297 33.2764 54.201 33.4898Z" fill="#9ED0FF"/>
<path d="M52.4483 35.2424L51.1529 36.5377L45.2857 42.3998H40.7139L34.8467 36.5377L33.5513 35.2424H52.4483Z" fill="#3AAAFF"/>
<path d="M43.3505 40.5457L45.286 42.3998V48.2366C45.286 48.4957 45.1488 48.7395 44.9202 48.8919C44.7221 49.0139 44.4631 49.0442 44.1888 48.9224L43 48.3078V40.7693L43.3505 40.5457Z" fill="#73BCFF"/>
<path d="M54.201 33.4898L52.4485 35.2424C52.4485 35.2424 50.7721 36.0653 49.3243 36.7663H43V32.1945H53.6677C53.9724 32.1945 54.2468 32.3774 54.3687 32.6669C54.4905 32.9565 54.4296 33.2764 54.201 33.4898Z" fill="#73BCFF"/>
<path d="M52.4485 35.2424L51.1531 36.5377L45.2859 42.3998H43V35.2424H52.4485Z" fill="#0095FF"/>
<path d="M36.9041 30.6197C35.6436 30.6197 34.6182 29.5943 34.6182 28.3338C34.6182 27.0733 35.6436 26.0479 36.9041 26.0479C38.1646 26.0479 39.19 27.0733 39.19 28.3338C39.19 29.5943 38.1646 30.6197 36.9041 30.6197Z" fill="#FFD400"/>
<path d="M49.8579 30.6197C49.0178 30.6197 48.334 29.9359 48.334 29.0958C48.334 28.2557 49.0179 27.5718 49.8579 27.5718C50.698 27.5718 51.3819 28.2557 51.3819 29.0958C51.3819 29.9359 50.698 30.6197 49.8579 30.6197Z" fill="#FDBF00"/>
<path d="M43.7618 23C43.5028 23 43.2436 23.0305 42.9998 23.1067C41.6892 23.4419 40.7139 24.6306 40.7139 26.0479C40.7139 27.4651 41.6892 28.6539 42.9998 28.9891C43.2436 29.0654 43.5027 29.0958 43.7618 29.0958C45.4381 29.0958 46.8097 27.7242 46.8097 26.0479C46.8097 24.3717 45.4381 23 43.7618 23Z" fill="#FFD400"/>
<path d="M43.762 29.0958C43.5029 29.0958 43.2438 29.0653 43 28.9891V23.1067C43.2438 23.0305 43.503 23 43.762 23C45.4383 23 46.8099 24.3716 46.8099 26.0479C46.8099 27.7242 45.4383 29.0958 43.762 29.0958Z" fill="#FDBF00"/>
<defs>
<filter id="filter0_d_111_148" x="0" y="0.822845" width="85.1143" height="85.1143" filterUnits="userSpaceOnUse" color-interpolation-filters="sRGB">
<feFlood flood-opacity="0" result="BackgroundImageFix"/>
<feColorMatrix in="SourceAlpha" type="matrix" values="0 0 0 0 0 0 0 0 0 0 0 0 0 0 0 0 0 0 127 0" result="hardAlpha"/>
<feOffset/>
<feGaussianBlur stdDeviation="6"/>
<feColorMatrix type="matrix" values="0 0 0 0 0 0 0 0 0 0 0 0 0 0 0 0 0 0 0.08 0"/>
<feBlend mode="normal" in2="BackgroundImageFix" result="effect1_dropShadow_111_148"/>
<feBlend mode="normal" in="SourceGraphic" in2="effect1_dropShadow_111_148" result="shape"/>
</filter>
</defs>
</svg>
