<svg width="63" height="62" viewBox="0 0 63 62" fill="none" xmlns="http://www.w3.org/2000/svg">
<rect x="0.942871" y="0.822845" width="61.1143" height="61.1143" rx="8" fill="#FFF9D9"/>
<path d="M15.2498 46.5043H19.439C20.1129 46.5043 20.6626 46.6019 21.0882 46.7969C21.5137 46.992 21.8418 47.2358 22.0723 47.5284C22.3028 47.821 22.458 48.1402 22.5378 48.4859C22.6264 48.8317 22.6708 49.1509 22.6708 49.4435C22.6708 49.7361 22.6264 50.0552 22.5378 50.401C22.458 50.7379 22.3028 51.0527 22.0723 51.3453C21.8418 51.6379 21.5137 51.8817 21.0882 52.0767C20.6626 52.2629 20.1129 52.356 19.439 52.356H16.9122V56H15.2498V46.5043ZM16.9122 50.9995H19.346C19.5321 50.9995 19.7228 50.9729 19.9178 50.9197C20.1129 50.8665 20.2902 50.7823 20.4498 50.667C20.6182 50.5429 20.7512 50.3833 20.8488 50.1882C20.9552 49.9843 21.0084 49.7316 21.0084 49.4302C21.0084 49.1199 20.964 48.8627 20.8754 48.6588C20.7867 48.4549 20.667 48.2953 20.5163 48.1801C20.3656 48.0559 20.1927 47.9717 19.9976 47.9274C19.8026 47.883 19.5942 47.8609 19.3726 47.8609H16.9122V50.9995ZM30.2313 54.4706C30.2313 54.6568 30.2534 54.7898 30.2978 54.8696C30.351 54.9494 30.4485 54.9893 30.5904 54.9893C30.6347 54.9893 30.6879 54.9893 30.7499 54.9893C30.812 54.9893 30.8829 54.9804 30.9627 54.9627V56.0133C30.9095 56.031 30.8386 56.0488 30.7499 56.0665C30.6701 56.0931 30.5859 56.1153 30.4973 56.133C30.4086 56.1507 30.3199 56.164 30.2313 56.1729C30.1426 56.1818 30.0672 56.1862 30.0052 56.1862C29.6949 56.1862 29.4378 56.1241 29.2338 56C29.0299 55.8759 28.8969 55.6587 28.8349 55.3483C28.5334 55.6409 28.161 55.8537 27.7177 55.9867C27.2833 56.1197 26.8621 56.1862 26.4543 56.1862C26.144 56.1862 25.847 56.1419 25.5632 56.0532C25.2795 55.9734 25.0268 55.8537 24.8052 55.6941C24.5924 55.5257 24.4195 55.3173 24.2865 55.0691C24.1624 54.8119 24.1003 54.5149 24.1003 54.178C24.1003 53.7524 24.1757 53.4066 24.3264 53.1407C24.486 52.8747 24.6899 52.6663 24.9382 52.5156C25.1953 52.3649 25.479 52.2585 25.7893 52.1964C26.1085 52.1255 26.4277 52.0723 26.7469 52.0368C27.0217 51.9836 27.2833 51.9482 27.5315 51.9304C27.7798 51.9038 27.997 51.8639 28.1832 51.8107C28.3782 51.7575 28.529 51.6777 28.6354 51.5714C28.7506 51.4561 28.8083 51.2876 28.8083 51.066C28.8083 50.8709 28.7595 50.7113 28.662 50.5872C28.5733 50.4631 28.458 50.37 28.3162 50.3079C28.1832 50.237 28.0325 50.1927 27.864 50.1749C27.6956 50.1483 27.536 50.135 27.3852 50.135C26.9597 50.135 26.6094 50.2237 26.3346 50.401C26.0597 50.5783 25.9046 50.8532 25.8691 51.2256H24.353C24.3796 50.7823 24.486 50.4143 24.6722 50.1217C24.8584 49.8292 25.0933 49.5942 25.3771 49.4169C25.6696 49.2396 25.9977 49.1154 26.3612 49.0445C26.7247 48.9736 27.0971 48.9381 27.4783 48.9381C27.8152 48.9381 28.1477 48.9736 28.4758 49.0445C28.8038 49.1154 29.0964 49.2307 29.3535 49.3903C29.6195 49.5499 29.8323 49.7582 29.9919 50.0153C30.1515 50.2636 30.2313 50.5695 30.2313 50.933V54.4706ZM28.7152 52.5555C28.4846 52.7062 28.2009 52.7993 27.864 52.8348C27.5271 52.8614 27.1902 52.9057 26.8533 52.9678C26.6937 52.9944 26.5385 53.0343 26.3878 53.0875C26.2371 53.1318 26.1041 53.1983 25.9888 53.287C25.8736 53.3668 25.7805 53.4776 25.7095 53.6194C25.6475 53.7524 25.6164 53.9165 25.6164 54.1115C25.6164 54.28 25.6652 54.4218 25.7627 54.5371C25.8603 54.6523 25.9755 54.7454 26.1085 54.8164C26.2504 54.8784 26.4011 54.9228 26.5607 54.9494C26.7291 54.976 26.8799 54.9893 27.0129 54.9893C27.1813 54.9893 27.3631 54.9671 27.5581 54.9228C27.7532 54.8784 27.9349 54.8031 28.1034 54.6967C28.2807 54.5903 28.427 54.4573 28.5423 54.2977C28.6575 54.1292 28.7152 53.9253 28.7152 53.6859V52.5555ZM32.4278 49.1243H33.8508V50.4542H33.8774C33.9218 50.268 34.006 50.0863 34.1301 49.909C34.2631 49.7316 34.4183 49.572 34.5956 49.4302C34.7818 49.2795 34.9857 49.1598 35.2074 49.0711C35.429 48.9824 35.6551 48.9381 35.8856 48.9381C36.063 48.9381 36.1826 48.9425 36.2447 48.9514C36.3156 48.9603 36.3866 48.9691 36.4575 48.978V50.4409C36.3511 50.4232 36.2403 50.4099 36.125 50.401C36.0186 50.3833 35.9122 50.3744 35.8058 50.3744C35.5487 50.3744 35.3049 50.4276 35.0744 50.534C34.8527 50.6315 34.6577 50.7823 34.4892 50.9862C34.3208 51.1812 34.1878 51.4251 34.0902 51.7176C33.9927 52.0102 33.9439 52.3471 33.9439 52.7284V56H32.4278V49.1243ZM36.977 49.1243H38.1207V47.0629H39.6368V49.1243H41.0067V50.2547H39.6368V53.9253C39.6368 54.0849 39.6413 54.2223 39.6501 54.3376C39.6679 54.4529 39.6989 54.5504 39.7432 54.6302C39.7964 54.71 39.8718 54.772 39.9693 54.8164C40.0669 54.8518 40.1998 54.8696 40.3683 54.8696C40.4747 54.8696 40.5811 54.8696 40.6875 54.8696C40.7939 54.8607 40.9003 54.843 41.0067 54.8164V55.9867C40.8382 56.0044 40.6742 56.0222 40.5146 56.0399C40.355 56.0576 40.191 56.0665 40.0225 56.0665C39.6235 56.0665 39.2999 56.031 39.0517 55.9601C38.8123 55.8803 38.6217 55.7695 38.4798 55.6276C38.3468 55.4769 38.2537 55.2907 38.2005 55.0691C38.1562 54.8474 38.1296 54.5947 38.1207 54.311V50.2547H36.977V49.1243ZM41.9045 49.1243H43.5669L45.3623 54.2578H45.3889L47.1311 49.1243H48.7137L46.0405 56.3724C45.9164 56.6827 45.7923 56.9797 45.6682 57.2634C45.5529 57.5471 45.4066 57.7954 45.2293 58.0082C45.0608 58.2298 44.848 58.4027 44.5909 58.5269C44.3338 58.6598 44.0057 58.7263 43.6068 58.7263C43.2521 58.7263 42.9019 58.6997 42.5561 58.6465V57.3698C42.6803 57.3876 42.8 57.4053 42.9152 57.423C43.0305 57.4496 43.1502 57.4629 43.2743 57.4629C43.4516 57.4629 43.5979 57.4408 43.7132 57.3964C43.8284 57.3521 43.9215 57.2856 43.9924 57.1969C44.0722 57.1171 44.1387 57.0196 44.1919 56.9043C44.2451 56.7891 44.2939 56.6561 44.3382 56.5054L44.5111 55.9734L41.9045 49.1243Z" fill="#4E4E4E"/>
<path d="M38.4648 28.0757V35.7351C38.4648 35.9676 38.2757 36.1567 38.0432 36.1567C37.8106 36.1567 37.6215 35.9676 37.6215 35.7351V34.0486C37.6215 33.3512 37.0541 32.7837 36.3567 32.7837C35.6592 32.7837 35.0918 33.3512 35.0918 34.0486V36.5783C35.0918 36.8112 35.2806 37 35.5134 37C35.7463 37 35.9351 36.8112 35.9351 36.5783V34.0486C35.9351 33.8161 36.1242 33.627 36.3567 33.627C36.5892 33.627 36.7783 33.8161 36.7783 34.0486V35.7351C36.7783 36.4325 37.3457 37 38.0432 37C38.7407 37 39.3081 36.4325 39.3081 35.7351V28.0757H38.4648Z" fill="#AFC3C3"/>
<path d="M31.5786 28.427V36.5784C31.5786 36.8112 31.7674 37 32.0002 37C32.2331 37 32.4219 36.8113 32.4219 36.5784V28.427H31.5786Z" fill="#D7E1E1"/>
<path d="M27.6433 32.7838C26.9458 32.7838 26.3784 33.3512 26.3784 34.0486V35.7351C26.3784 35.9677 26.1893 36.1568 25.9568 36.1568C25.7242 36.1568 25.5351 35.9677 25.5351 35.7351V28.0757H24.6919V35.7351C24.6919 36.4325 25.2593 37 25.9568 37C26.6542 37 27.2216 36.4325 27.2216 35.7351V34.0486C27.2216 33.8161 27.4107 33.627 27.6433 33.627C27.8758 33.627 28.0649 33.8161 28.0649 34.0486V36.5783C28.0649 36.8112 28.2536 37 28.4865 37C28.7194 37 28.9082 36.8112 28.9082 36.5783V34.0486C28.9082 33.3512 28.3407 32.7838 27.6433 32.7838Z" fill="#D7E1E1"/>
<path d="M38.8864 26.9514L38.3242 27.7946L38.8864 28.6378H40.5729C40.5729 27.7064 39.8178 26.9514 38.8864 26.9514Z" fill="#10744A"/>
<path d="M37.2002 28.6379H38.8867V26.9514C37.9552 26.9514 37.2002 27.7064 37.2002 28.6379Z" fill="#169B62"/>
<path d="M38.8867 12.6865V26.9514C42.3255 25.7358 44.7894 22.4442 44.7894 18.5892C44.7894 15.3292 42.1467 12.6865 38.8867 12.6865Z" fill="#10744A"/>
<path d="M43.1028 18.5892C43.1028 15.3292 41.2151 12.6865 38.8866 12.6865C35.6266 12.6865 32.9839 15.3292 32.9839 18.5892C32.9839 22.4442 35.4478 25.7358 38.8866 26.9514C41.3428 25.7358 43.1028 22.4442 43.1028 18.5892Z" fill="#169B62"/>
<path d="M25.1134 26.9514L24.5513 27.7946L25.1134 28.6378H26.7999C26.7999 27.7064 26.0449 26.9514 25.1134 26.9514Z" fill="#FF6638"/>
<path d="M23.4272 28.6379H25.1137V26.9514C24.1823 26.9514 23.4272 27.7064 23.4272 28.6379Z" fill="#FF883E"/>
<path d="M25.2571 12.6883C25.2094 12.6872 25.1616 12.6865 25.1136 12.6865C21.8536 12.6865 19.2109 15.3292 19.2109 18.5892C19.2109 22.4442 21.6749 25.7358 25.1136 26.9514C25.7692 26.7196 26.3893 26.4122 26.9637 26.04L25.2571 12.6883Z" fill="#FF883E"/>
<path d="M31.016 18.5892C31.016 15.3772 28.4505 12.7645 25.2567 12.6883C24.1965 14.0983 23.5674 15.85 23.5674 17.746C23.5674 20.915 24.8367 23.8736 26.9633 26.0401C29.4018 24.46 31.016 21.7093 31.016 18.5892Z" fill="#FF6638"/>
<path d="M32.0001 27.3027L31.438 28.1459L32.0001 28.9892H33.6866C33.6866 28.0577 32.9316 27.3027 32.0001 27.3027Z" fill="#FFE1AA"/>
<path d="M30.3135 28.9892H32V27.3027C31.0685 27.3027 30.3135 28.0577 30.3135 28.9892Z" fill="#FFF5E3"/>
<path d="M32 11V27.3027C35.93 25.9135 38.7459 22.1517 38.7459 17.7459C38.7459 14.0203 35.7257 11 32 11Z" fill="#FFE1AA"/>
<path d="M37.0593 17.7459C37.0593 14.0203 34.7941 11 31.9998 11C28.2742 11 25.2539 14.0203 25.2539 17.7459C25.2539 22.1517 28.0698 25.9135 31.9998 27.3027C34.9473 25.9135 37.0593 22.1517 37.0593 17.7459Z" fill="#FFF5E3"/>
</svg>
