<svg width="28" height="28" viewBox="0 0 28 28" fill="none" xmlns="http://www.w3.org/2000/svg">
<path d="M16.625 6.5625C16.625 6.5625 20.5625 7 21 11.375C21 11.375 17.5 10.9375 16.1875 8.3125" fill="#06535B"/>
<path d="M14 25.678V27.5625L6.52761 27.5607C6.30612 27.5708 6.08489 27.5359 5.87728 27.4581C5.66967 27.3802 5.47999 27.2611 5.31969 27.108C5.15939 26.9548 5.0318 26.7707 4.94463 26.5669C4.85746 26.363 4.81251 26.1436 4.8125 25.9219V25.1088C4.8125 24.7169 4.95278 24.338 5.20794 24.0405C5.46311 23.7431 5.81631 23.5468 6.20364 23.4872L10.0625 22.75H17.9375L21.6637 23.0787C22.0776 23.1082 22.4649 23.2935 22.7476 23.5971C23.0303 23.9008 23.1875 24.3002 23.1875 24.7151V25.9219C23.1875 26.357 23.0146 26.7743 22.707 27.082C22.3993 27.3896 21.982 27.5625 21.5469 27.5625H15.3125V25.827L14 25.678Z" fill="#0F8CA8"/>
<path d="M24.0625 17.0625C24.7874 17.0625 25.375 16.4749 25.375 15.75C25.375 15.0251 24.7874 14.4375 24.0625 14.4375C23.3376 14.4375 22.75 15.0251 22.75 15.75C22.75 16.4749 23.3376 17.0625 24.0625 17.0625Z" fill="#F69038"/>
<path d="M5.43348 7.87566L6.92951 7.4375L6.4913 8.93348L6.92951 10.4295L5.43348 9.9913L3.9375 10.4295L4.37566 8.93348L3.9375 7.4375L5.43348 7.87566Z" fill="#90E3F5"/>
<path d="M3.9375 15.3125H4.8125V16.1875H3.9375V15.3125Z" fill="#F69038"/>
<path d="M22.75 7.4375H23.625V8.3125H22.75V7.4375Z" fill="#90E3F5"/>
<path d="M14 24.9375H15.3125L15.75 24.0625C15.75 24.0625 19.25 24.9375 19.6875 25.8125L14 26.25V24.9375Z" fill="#FFBE92"/>
<path d="M14 14.4375C14.6962 14.4375 15.3639 14.1609 15.8562 13.6687C16.3484 13.1764 16.625 12.5087 16.625 11.8125H15.3125V9.1875H12.6875V11.8125H11.375C11.375 12.5087 11.6516 13.1764 12.1438 13.6687C12.6361 14.1609 13.3038 14.4375 14 14.4375Z" fill="#FFBE92"/>
<path d="M17.9375 11.8125H16.625C16.625 12.5087 16.3484 13.1764 15.8562 13.6687C15.3639 14.1609 14.6962 14.4375 14 14.4375C13.3038 14.4375 12.6361 14.1609 12.1438 13.6687C11.6516 13.1764 11.375 12.5087 11.375 11.8125H10.0625V17.5L10.9375 19.25L10.0625 22.75H17.9375L17.0625 19.25L17.9375 17.5V11.8125Z" fill="#90E3F5"/>
<path d="M10.0625 11.8125H9.51562C9.0805 11.8125 8.6632 11.9854 8.35553 12.293C8.04785 12.6007 7.875 13.018 7.875 13.4531V19.25L4.8125 21.4375C4.8125 21.4375 3.5 20.125 2.625 20.5625L3.0625 21.875L0.875 23.1875L1.32442 23.7867C1.56324 24.105 1.90962 24.3257 2.29906 24.4077C2.68849 24.4896 3.09443 24.4272 3.44127 24.232L9.1875 21L10.0625 17.5V11.8125Z" fill="#FFBE92"/>
<path d="M17.9375 11.8125H18.4844C18.9195 11.8125 19.3368 11.9854 19.6445 12.293C19.9521 12.6007 20.125 13.018 20.125 13.4531V19.25L23.1875 21.4375C23.1875 21.4375 24.5 20.125 25.375 20.5625L24.9375 21.875L27.125 23.1875L26.6756 23.7867C26.4368 24.1051 26.0904 24.3258 25.701 24.4078C25.3115 24.4897 24.9056 24.4274 24.5587 24.2322L18.8125 21L17.9375 17.5V11.8125Z" fill="#FFBE92"/>
<path d="M8.28516 24.0602L13.9723 23.621L14.0397 24.4934L8.35253 24.9326L8.28516 24.0602Z" fill="#076372"/>
<path d="M20.5625 24.9375H23.1875V24.7151C23.1876 24.4906 23.1415 24.2684 23.052 24.0625H20.5625V24.9375Z" fill="#076372"/>
<path opacity="0.2" d="M15.3125 9.1875H12.6875V10.7319C13.6024 10.6306 14.4916 10.3653 15.3125 9.9487V9.1875Z" fill="#232626"/>
<path d="M11.375 6.87236C10.9616 6.50342 10.6309 6.05119 10.4047 5.54537C10.1785 5.03955 10.0619 4.4916 10.0625 3.9375C10.0625 1.76285 11.8254 0.4375 14 0.4375C16.1747 0.4375 17.9375 1.76285 17.9375 3.9375C17.9381 4.4916 17.8215 5.03955 17.5953 5.54537C17.3691 6.05119 17.0384 6.50342 16.625 6.87236" fill="#076372"/>
<path d="M14 9.625C12.4469 9.625 11.375 8.11562 11.375 6.5625V4.375L16.625 3.5V6.5625C16.625 8.11562 15.5531 9.625 14 9.625Z" fill="#FFBE92"/>
<path d="M14.875 5.25H15.75V6.125H14.875V5.25Z" fill="#843F0C"/>
<path d="M12.25 5.25H13.125V6.125H12.25V5.25Z" fill="#843F0C"/>
<path opacity="0.3" d="M14.2113 0.441875C14.1413 0.438958 14.0709 0.4375 14 0.4375C11.8254 0.4375 10.0625 1.76285 10.0625 3.9375C10.0618 4.5089 10.1861 5.07353 10.4264 5.59191C10.9494 3.07891 13.104 1.2407 14.2113 0.441875V0.441875Z" fill="#FAFCFC"/>
</svg>
