<svg width="31" height="31" viewBox="0 0 31 31" fill="none" xmlns="http://www.w3.org/2000/svg">
<path d="M8.23438 5.32812H5.32812C2.65298 5.32812 0.484375 7.93049 0.484375 11.1406C0.484375 14.3508 2.65298 16.9531 5.32812 16.9531H8.23438" fill="#90E3F5"/>
<path d="M11.1406 15.791C10.3311 16.5208 9.32482 16.9531 8.23438 16.9531C5.55923 16.9531 3.39062 14.3508 3.39062 11.1406C3.39062 7.93049 5.55923 5.32812 8.23438 5.32812C10.0271 5.32812 11.5924 6.49668 12.4299 8.23401" fill="#0F8CA8"/>
<path d="M15.5 12.5938H8.96094C8.63978 12.5938 8.33177 12.4662 8.10468 12.2391C7.87758 12.012 7.75 11.704 7.75 11.3828V10.8984C7.75 10.5773 7.87758 10.2693 8.10468 10.0422C8.33177 9.81508 8.63978 9.6875 8.96094 9.6875H9.6875" fill="#076372"/>
<path d="M12.5938 31V18.4062L10.6562 15.0156V11.8811L19.2971 8.71875V15.1973L17.9219 18.4062V31" fill="#F9AC78"/>
<path d="M10.6562 12.3838C10.6562 12.3838 11.0552 13.2598 12.4299 13.2598H14.9767C14.9767 13.2598 14.5918 16.3477 15.5 16.4688L18.2549 12.1916L17.9366 11.597L10.6562 12.3838Z" fill="#E57F39"/>
<path d="M22.481 3.39062C23.2835 3.39062 23.9341 2.74004 23.9341 1.9375C23.9341 1.13496 23.2835 0.484375 22.481 0.484375C21.6784 0.484375 21.0278 1.13496 21.0278 1.9375C21.0278 2.74004 21.6784 3.39062 22.481 3.39062Z" fill="#F69038"/>
<path d="M23.7344 22.2812C24.5369 22.2812 25.1875 21.6307 25.1875 20.8281C25.1875 20.0256 24.5369 19.375 23.7344 19.375C22.9318 19.375 22.2812 20.0256 22.2812 20.8281C22.2812 21.6307 22.9318 22.2812 23.7344 22.2812Z" fill="#90E3F5"/>
<path d="M5.38922 20.8892L6.21732 19.375L7.04548 20.8892L8.55969 21.7173L7.04548 22.5455L6.21732 24.0597L5.38922 22.5455L3.875 21.7173L5.38922 20.8892Z" fill="#F69038"/>
<path d="M13.1392 2.64201L13.9673 1.12779L14.7955 2.64201L16.3097 3.47017L14.7955 4.29827L13.9673 5.81249L13.1392 4.29827L11.625 3.47017L13.1392 2.64201Z" fill="#90E3F5"/>
<path d="M4.35938 1.9375H5.32812V2.90625H4.35938V1.9375Z" fill="#F69038"/>
<path d="M22.2812 24.2188H23.25V25.1875H22.2812V24.2188Z" fill="#F69038"/>
<path d="M18.6095 12.5938H11.5039C11.0222 12.5938 10.5602 12.4024 10.2195 12.0617C9.87887 11.7211 9.6875 11.2591 9.6875 10.7773V10.0508C9.6875 9.56904 9.87887 9.10703 10.2195 8.76639C10.5602 8.42575 11.0222 8.23438 11.5039 8.23438H18.6095V12.5938Z" fill="#FCCDAC"/>
<path d="M14.5122 12.8359C14.5122 12.5684 14.2954 12.1094 14.0279 12.1094C13.8994 12.1092 13.7763 12.0582 13.6855 11.9673C13.5947 11.8765 13.5436 11.7534 13.5435 11.625V9.6875H12.5747V11.625C12.5747 11.79 12.6028 11.9539 12.6581 12.1094H12.5937C12.4653 12.1092 12.3422 12.0582 12.2514 11.9673C12.1606 11.8765 12.1095 11.7534 12.1094 11.625V9.6875H11.1406V11.625C11.1406 11.9969 11.374 12.5787 11.6046 12.8359H14.5122Z" fill="#E57F39"/>
<path d="M19.2969 12.7766V15.1973L18.0381 18.135H15.5V16.4688C15.0156 14.5313 16.4688 13.5625 16.4688 13.5625L15.0156 11.625V9.20312L15.8082 9.99568L17.9219 12.1094L19.2969 12.7766Z" fill="#F9AC78"/>
<path opacity="0.2" d="M18.6096 8.23438H17.0301C16.8465 10.1736 16.7164 14.3799 18.6643 16.6738L19.2969 15.1973V12.7766L18.6096 12.443V8.23438Z" fill="#232626"/>
<path d="M25.6719 5.32812H22.7656C20.0905 5.32812 17.9219 7.93049 17.9219 11.1406C17.9219 14.3508 20.0905 16.9531 22.7656 16.9531H25.6719" fill="#90E3F5"/>
<path d="M25.6719 16.9531C28.347 16.9531 30.5156 14.3508 30.5156 11.1406C30.5156 7.93047 28.347 5.32812 25.6719 5.32812C22.9967 5.32812 20.8281 7.93047 20.8281 11.1406C20.8281 14.3508 22.9967 16.9531 25.6719 16.9531Z" fill="#0F8CA8"/>
<path d="M26.3984 12.5938C27.0672 12.5938 27.6094 11.9432 27.6094 11.1406C27.6094 10.3381 27.0672 9.6875 26.3984 9.6875C25.7297 9.6875 25.1875 10.3381 25.1875 11.1406C25.1875 11.9432 25.7297 12.5938 26.3984 12.5938Z" fill="#076372"/>
</svg>
