<svg width="25" height="25" viewBox="0 0 25 25" fill="none" xmlns="http://www.w3.org/2000/svg">
<g clip-path="url(#clip0_140_16)">
<path d="M12.5 25C19.4036 25 25 19.4036 25 12.5C25 5.59644 19.4036 0 12.5 0C5.59644 0 0 5.59644 0 12.5C0 19.4036 5.59644 25 12.5 25Z" fill="#D0FFF0"/>
<g opacity="0.6">
<path opacity="0.6" d="M9.42383 2.44141C9.34697 2.44141 9.27437 2.45654 9.20474 2.47847C8.98428 2.16152 8.61851 1.95312 8.20312 1.95312C7.78774 1.95312 7.42197 2.16152 7.20151 2.47847C7.13188 2.45654 7.05928 2.44141 6.98242 2.44141C6.57793 2.44141 6.25 2.76934 6.25 3.17383H10.1562C10.1562 2.76934 9.82832 2.44141 9.42383 2.44141Z" fill="white"/>
</g>
<g opacity="0.6">
<path opacity="0.6" d="M14.8438 7.02831C14.8438 6.62172 15.1733 6.29213 15.5799 6.29213C15.6413 6.29213 15.7 6.30185 15.7569 6.31601C15.949 6.10854 16.2214 5.97665 16.5264 5.97665C17.1072 5.97665 17.5781 6.4475 17.5781 7.02831H14.8438Z" fill="white"/>
</g>
<path d="M2.34375 11.3281C2.34375 11.3281 6.64062 8.59375 7.03125 8.59375C7.42188 8.59375 8.98438 9.375 8.98438 9.375C8.98438 9.375 12.1094 7.8125 12.5 7.8125C12.8906 7.8125 16.0156 9.76562 16.0156 9.76562V11.7188H2.34375V11.3281Z" fill="#BFE8DC"/>
<path d="M0 12.5C0 19.4036 5.59644 25 12.5 25C19.4036 25 25 19.4036 25 12.5C25 12.2374 24.9892 11.9773 24.9732 11.7188H0.0267578C0.010791 11.9773 0 12.2374 0 12.5Z" fill="#64AFC7"/>
<path d="M13.3138 19.3034C12.5651 18.8477 12.6627 18.6279 12.1094 18.4326C11.556 18.2373 10.2886 17.9586 9.92837 17.4154C9.68018 17.041 9.76323 16.5786 10.2864 16.5365C11.145 16.4673 11.6902 15.7878 12.3779 15.5395C12.8495 15.3693 13.4415 14.8846 12.9394 14.5996C12.4877 14.3433 11.7024 14.2415 11.7024 14.2415L11.499 15.2344L8.52051 16.6504L8.54492 17.9932C8.54492 17.9932 13.501 20.5322 13.623 20.5566C13.7141 20.5748 18.3011 21.5167 20.6261 21.9941C21.0382 21.641 21.4284 21.2632 21.7915 20.86C19.947 20.6571 13.9899 19.7149 13.3138 19.3034Z" fill="#82A5A0"/>
<path d="M23.0221 14.7457C23.3889 15.0043 22.9819 15.5599 22.0866 15.5924C20.7342 15.6416 14.9097 14.2444 16.9109 13.5905C19.3481 12.7941 23.0221 14.7457 23.0221 14.7457Z" fill="#64C8D7"/>
<path d="M14.0625 12.1094H5.46875L6.12793 11.1328L10.7117 10.4276C10.828 10.4097 10.9468 10.4201 11.0582 10.4578L13.916 11.4258L14.0625 12.1094Z" fill="#AFD2C8"/>
<path d="M12.9232 12.207H6.96619L7.10452 11.7676L9.35139 11.4562C9.49694 11.436 9.64426 11.4316 9.79074 11.4432L11.0505 11.5427C11.2986 11.5623 11.5482 11.5361 11.7869 11.4656L12.0774 11.3798C12.3559 11.2975 12.6488 11.2758 12.9364 11.3162L13.8916 11.4502L12.9232 12.207Z" fill="#84D27E"/>
<path d="M15.7227 8.33335C15.6401 8.34756 12.6038 12.2267 12.9557 12.5651C13.6863 13.2676 22.4149 14.4543 24.7913 14.7662C24.926 14.0308 25.0001 13.2742 25.0001 12.5C25.0001 9.28628 23.7863 6.35669 21.7934 4.14219C21.3135 4.04053 20.5567 4.16665 19.0918 4.98047C18.8059 5.13936 17.1875 8.08105 15.7227 8.33335Z" fill="#96BEB4"/>
<path d="M22.2864 14.4241L21.5332 7.2998C21.5332 7.2998 19.6534 8.8623 19.629 9.0332C19.6045 9.2041 19.2872 10.376 19.0918 10.4736C18.8965 10.5713 17.5782 11.1084 17.5782 11.3281C17.5782 11.5479 17.5457 12.6627 17.3829 12.8255C17.2242 12.9842 15.9852 12.9892 15.5308 13.3209C17.5027 13.7191 20.2081 14.1297 22.2864 14.4241Z" fill="#82A5A0"/>
<path d="M8.53564 10.0668L8.00029 11.9405L7.32305 9.57032L6.84351 11.2488L6.04541 8.45543L5.16416 11.5398L3.88999 7.08009L2.95181 10.3638L2.00195 7.03941L1.39683 9.15733L0.970361 7.66475C0.345801 9.15221 0 10.7857 0 12.5C0 13.2929 0.0771484 14.0674 0.218262 14.8193H9.89351L8.53564 10.0668Z" fill="#6EAA64"/>
<path d="M21.4546 21.2174C14.9089 21.5006 6.30303 18.1993 8.96812 16.4225C10.14 15.6413 12.9829 15.3266 12.1094 14.4531C11.3281 13.6719 5.27344 11.8164 0.0354492 11.6048C0.0144531 11.9008 0 12.1986 0 12.5C0 19.4036 5.59644 25 12.5 25C16.0121 25 19.1839 23.5495 21.4546 21.2174Z" fill="#73BE6E"/>
<path d="M10.5469 14.917C10.5469 15.4707 8.89712 15.9156 8.91606 17.0324C8.93945 16.8136 9.08032 16.6027 9.375 16.4062C10.5469 15.625 12.9829 15.3266 12.1094 14.4531C11.3281 13.6719 5.27344 11.8164 0.0354492 11.6048C0.0144531 11.9008 0 12.1986 0 12.5C0 12.5682 0.00405273 12.6354 0.00512695 12.7034C5.30601 12.9557 10.5469 14.0625 10.5469 14.917Z" fill="#84D27E"/>
<path d="M12.5 25C16.0122 25 19.184 23.5495 21.4547 21.2174C18.7375 21.1556 10.523 20.7215 4.81777 17.3502C3.38545 16.5039 1.95317 14.9088 0.174561 14.5742C1.16304 20.4901 6.30352 25 12.5 25Z" fill="#6EAA64"/>
<path d="M5.02539 8.10649L3.72852 12.6455H6.32222L5.02539 8.10649Z" fill="#6EAA64"/>
<path d="M5.02527 8.10649L4.70105 9.24121L5.67365 12.6455H6.32209L5.02527 8.10649Z" fill="#73BE6E"/>
<path d="M3.01099 7.34047L1.26245 13.4603H4.75947L3.01099 7.34047Z" fill="#6EAA64"/>
<path d="M3.01113 7.34047L2.57397 8.87045L3.88535 13.4603H4.75962L3.01113 7.34047Z" fill="#73BE6E"/>
<path d="M18.929 4.93164C18.8114 4.99043 17.456 5.98145 17.2851 6.17676C17.1142 6.37207 17.2363 6.64062 17.1142 6.90918C17.0301 7.09419 16.4248 7.78887 16.0562 8.20322C15.8462 8.10459 15.6526 8.03808 15.5598 8.0729C15.2994 8.17055 11.914 12.5325 12.0442 12.5977C12.1744 12.6627 13.6229 12.9394 13.8183 12.8418C14.0136 12.7441 14.9413 10.6445 15.1854 10.6934C15.4296 10.7422 15.2343 12.5488 15.7714 12.1094C16.2256 11.7377 16.6728 9.52749 16.832 8.86113C17.0165 8.08921 17.631 7.08677 18.0988 6.55923C18.8638 5.69658 20.087 4.55396 20.1333 4.49219C20.2066 4.39453 19.1406 4.82583 18.929 4.93164Z" fill="#AFD2C8"/>
<path d="M23.6741 6.89419C23.2753 6.10132 22.7933 5.35796 22.2419 4.67261L18.896 13.9157C18.897 13.9158 18.8978 13.916 18.8988 13.9161C19.0685 13.9433 19.2384 13.9701 19.4081 13.9966C19.4131 13.9974 19.4182 13.9981 19.4232 13.9989C19.589 14.0248 19.7545 14.0504 19.9192 14.0757C19.9272 14.0769 19.9353 14.0781 19.9433 14.0793C20.103 14.1038 20.2621 14.128 20.42 14.1517C20.4344 14.1539 20.4487 14.156 20.4631 14.1582C20.6119 14.1805 20.7594 14.2025 20.9057 14.2242C20.929 14.2276 20.9523 14.2311 20.9755 14.2345C21.1152 14.2551 21.2533 14.2753 21.39 14.2952C21.4153 14.2989 21.4408 14.3026 21.466 14.3063C21.5988 14.3256 21.7295 14.3444 21.8587 14.363C21.8851 14.3667 21.9119 14.3706 21.9381 14.3744C22.0666 14.3928 22.1925 14.4107 22.3167 14.4283C22.3428 14.432 22.3696 14.4358 22.3955 14.4394C22.5271 14.4581 22.656 14.4761 22.7819 14.4937C22.792 14.4951 22.8026 14.4966 22.8126 14.498L23.6741 6.89419Z" fill="#BEE1EB"/>
<path d="M23.0528 5.80479C22.8448 5.47852 22.6205 5.16402 22.3842 4.85909C22.1105 5.82261 21.4222 8.27778 21.5007 8.31704C21.5983 8.36587 22.1842 6.91734 22.1842 6.91734L21.4844 11.2467L23.0528 5.80479Z" fill="white"/>
<path d="M23.4676 6.50987L21.7313 14.3447C21.7736 14.3508 21.8168 14.357 21.8586 14.363C21.8849 14.3668 21.9117 14.3707 21.938 14.3744C22.0664 14.3928 22.1924 14.4108 22.3166 14.4283C22.3427 14.432 22.3695 14.4358 22.3953 14.4395C22.527 14.4581 22.6558 14.4762 22.7818 14.4938C22.7919 14.4952 22.8025 14.4967 22.8125 14.4981L23.674 6.89415C23.6086 6.76402 23.5375 6.63736 23.4676 6.50987Z" fill="#A7DAE6"/>
<path d="M20.3287 13.7695C20.3287 13.7695 21.5332 9.04136 21.4355 8.96812C21.3379 8.89488 19.5963 13.5905 19.5963 13.5905L20.3287 13.7695Z" fill="#91D4E1"/>
<path d="M21.3867 14.0137L23.1131 5.90396C23.0793 5.84981 23.048 5.794 23.0134 5.74043C22.3027 8.1439 20.5078 13.9649 20.5078 13.9649L21.3867 14.0137Z" fill="#91D4E1"/>
<path d="M22.1355 14.388L23.5387 6.64215C23.4876 6.54625 23.4379 6.44947 23.3844 6.35509C22.7999 8.65367 21.1792 14.2822 21.1792 14.2822L22.1355 14.388Z" fill="#91D4E1"/>
<path d="M22.2412 14.8438L17.9199 14.0625C17.9199 14.0625 18.099 13.5335 18.7256 13.6312C18.7256 13.6312 19.1 13.1917 19.5719 13.4033C19.5719 13.4033 20.2555 13.0045 20.5566 13.5254C20.5566 13.5254 21.0287 13.1999 21.3135 13.5905C21.3135 13.5905 22.5504 13.7451 22.2412 14.8438Z" fill="white"/>
<path d="M24.9511 11.4258C24.9511 11.4258 24.1556 11.3919 23.8934 11.4258C23.3888 11.4909 22.9656 11.735 22.6238 12.1094C22.2665 12.5007 21.4845 14.5508 21.6472 14.7787C21.7787 14.9628 23.8653 15.2744 24.6612 15.3872C24.8805 14.46 25.0001 13.4942 25.0001 12.5C25.0001 12.1378 24.9812 11.7802 24.9511 11.4258Z" fill="#AFD2C8"/>
<path d="M21.9313 14.9004C22.5552 15.0783 24.0225 15.2967 24.661 15.3871C24.8803 14.4599 24.9999 13.4942 24.9999 12.5C24.9999 12.2727 24.9906 12.0477 24.9776 11.8237C24.3792 11.8068 23.6015 11.8041 23.5676 12.2558C23.5188 12.9069 23.4851 13.6355 23.2096 13.7207C22.8149 13.8428 22.2289 14.1601 21.9313 14.9004Z" fill="#96BEB4"/>
<path d="M14.4568 13.2274C14.3617 13.4141 14.4696 13.6392 14.6752 13.6797C15.4803 13.8388 16.8231 14.1113 17.0021 13.9323C17.0712 13.8632 16.7969 11.6373 16.2272 11.6211C15.6575 11.6048 15.4134 11.6862 15.218 11.8815C15.0844 12.0152 14.6914 12.7666 14.4568 13.2274Z" fill="#96BEB4"/>
<path d="M16.2272 11.6211C15.6575 11.6048 15.4134 11.6862 15.2181 11.8815C15.0844 12.0152 14.6914 12.7665 14.4568 13.2274C14.3617 13.4141 14.4696 13.6392 14.6752 13.6797C14.7272 13.69 14.7829 13.7008 14.841 13.7119C14.8661 13.5956 14.8992 13.4582 14.9414 13.3138C15.0553 12.9231 15.4785 12.8581 15.6412 12.5163C15.7784 12.2281 16.1583 11.8969 16.5083 11.8283C16.4236 11.7031 16.3301 11.624 16.2272 11.6211Z" fill="#AFD2C8"/>
<path d="M24.2153 16.8643C18.6279 16.1865 15.568 15.3809 14.0869 14.6973C14.5589 15.5762 14.0951 16.0156 13.3789 16.7318C12.6597 17.451 17.9628 19.7145 18.693 19.2953C18.8263 19.2187 18.278 18.8558 18.5303 18.6768C18.8395 18.4573 21.3379 19.4824 22.4922 20.0101C23.2089 19.0581 23.792 18.0001 24.2153 16.8643Z" fill="#64C8D7"/>
<path d="M9.37495 16.4063C10.5468 15.625 12.9828 15.3266 12.1093 14.4531C11.9096 14.2534 11.3635 13.9832 10.576 13.6884C11.3246 14.0735 11.4583 14.5344 11.2792 14.9088C11.1002 15.2832 10.2376 15.1856 9.71675 15.446C9.26748 15.6706 8.87051 16.0743 8.5123 16.3249C8.25903 16.5021 7.53354 16.7517 7.42183 16.9596C6.74717 18.2152 9.72226 19.6007 13.1061 20.6876C14.6824 21.1939 16.5427 21.2241 17.9687 21.5576C18.2708 21.6282 18.3667 22.1053 18.6443 22.1658C19.1735 22.2813 19.6524 22.3775 20.0594 22.4518C20.5545 22.0749 21.0212 21.6625 21.4545 21.2174C16.0318 20.3613 12.858 20.0684 10.0911 18.7174C9.31567 18.3389 9.33657 17.836 9.09829 17.4479C8.86064 17.0609 8.87524 16.7394 9.37495 16.4063Z" fill="#96BEB4"/>
<g opacity="0.6">
<path opacity="0.6" d="M16.6016 2.14844C16.5401 2.14844 16.482 2.16055 16.4263 2.17808C16.2499 1.92451 15.9573 1.75781 15.625 1.75781C15.2927 1.75781 15.0001 1.92451 14.8237 2.17808C14.768 2.16055 14.7099 2.14844 14.6484 2.14844C14.3249 2.14844 14.0625 2.41079 14.0625 2.73438H17.1875C17.1875 2.41079 16.9251 2.14844 16.6016 2.14844Z" fill="white"/>
</g>
<g opacity="0.6">
<path opacity="0.6" d="M7.8125 6.98242H10.1562C10.1562 6.7397 9.95952 6.54297 9.7168 6.54297C9.6707 6.54297 9.6271 6.55205 9.58535 6.56523C9.45308 6.37505 9.23359 6.25 8.98438 6.25C8.93345 6.25 8.88486 6.25845 8.83691 6.26836C8.75898 6.19805 8.65811 6.15234 8.54492 6.15234C8.49883 6.15234 8.45522 6.16143 8.41348 6.17461C8.2812 5.98442 8.06172 5.85938 7.8125 5.85938C7.56328 5.85938 7.3438 5.98442 7.21152 6.17461C7.16978 6.16143 7.12617 6.15234 7.08008 6.15234C6.83735 6.15234 6.64062 6.34907 6.64062 6.5918H8.05967C7.9146 6.66357 7.8125 6.80962 7.8125 6.98242Z" fill="white"/>
</g>
<path d="M10.7737 5.56181C10.7737 5.0728 11.1701 4.67636 11.6591 4.67636C11.733 4.67636 11.8035 4.68803 11.8721 4.70508C12.1031 4.45556 12.4307 4.29692 12.7976 4.29692C13.4962 4.29687 14.0625 4.86318 14.0625 5.56181H10.7737Z" fill="white"/>
<path d="M3.1228 4.23897H9.375C9.375 3.51084 8.78476 2.92061 8.05664 2.92061C7.91831 2.92061 7.7876 2.94785 7.6623 2.98736C7.26543 2.41685 6.60703 2.0417 5.85937 2.0417C5.78315 2.0417 5.70859 2.04815 5.63442 2.05576C4.70239 2.66968 3.8582 3.40484 3.1228 4.23897Z" fill="white"/>
</g>
<defs>
<clipPath id="clip0_140_16">
<rect width="25" height="25" fill="white"/>
</clipPath>
</defs>
</svg>
