<svg width="63" height="62" viewBox="0 0 63 62" fill="none" xmlns="http://www.w3.org/2000/svg">
<rect x="0.97168" y="0.822845" width="61.1143" height="61.1143" rx="8" fill="#DEEEEA"/>
<path d="M12.2504 46.5043H13.9793L16.3599 54.0184H16.3865L18.8202 46.5043H20.5092L17.2642 56H15.4156L12.2504 46.5043ZM21.98 46.5043H23.4961V47.9407H21.98V46.5043ZM21.98 49.1243H23.4961V56H21.98V49.1243ZM30.4345 51.957C30.4168 51.7176 30.3636 51.4871 30.2749 51.2655C30.1951 51.0438 30.0799 50.8532 29.9291 50.6936C29.7873 50.5251 29.61 50.3922 29.3972 50.2946C29.1932 50.1882 28.9627 50.135 28.7056 50.135C28.4396 50.135 28.1958 50.1838 27.9741 50.2813C27.7614 50.37 27.5752 50.4985 27.4156 50.667C27.2649 50.8266 27.1407 51.0172 27.0432 51.2389C26.9545 51.4605 26.9058 51.6999 26.8969 51.957H30.4345ZM26.8969 52.9545C26.8969 53.2205 26.9324 53.4776 27.0033 53.7258C27.0831 53.9741 27.1984 54.1913 27.3491 54.3775C27.4998 54.5637 27.6904 54.7144 27.9209 54.8297C28.1515 54.9361 28.4263 54.9893 28.7455 54.9893C29.1888 54.9893 29.5435 54.8962 29.8094 54.71C30.0843 54.5149 30.2882 54.2268 30.4212 53.8455H31.8575C31.7777 54.2179 31.6403 54.5504 31.4452 54.843C31.2502 55.1355 31.0152 55.3838 30.7404 55.5877C30.4655 55.7828 30.1552 55.9291 29.8094 56.0266C29.4725 56.133 29.1179 56.1862 28.7455 56.1862C28.2047 56.1862 27.7259 56.0975 27.3092 55.9202C26.8925 55.7429 26.5378 55.4946 26.2452 55.1754C25.9615 54.8563 25.7443 54.475 25.5936 54.0317C25.4517 53.5884 25.3808 53.1008 25.3808 52.5688C25.3808 52.0812 25.4562 51.6201 25.6069 51.1857C25.7665 50.7424 25.9881 50.3567 26.2718 50.0286C26.5644 49.6917 26.9146 49.4257 27.3225 49.2307C27.7303 49.0356 28.1914 48.9381 28.7056 48.9381C29.2464 48.9381 29.7296 49.0534 30.1552 49.2839C30.5897 49.5055 30.9487 49.8026 31.2325 50.1749C31.5162 50.5473 31.7201 50.9773 31.8442 51.465C31.9772 51.9437 32.0127 52.4402 31.9506 52.9545H26.8969ZM33.0433 49.1243H34.6525L35.9958 54.2578H36.0224L37.3124 49.1243H38.8418L40.0786 54.2578H40.1052L41.5016 49.1243H43.0444L40.8899 56H39.3339L38.0571 50.8931H38.0305L36.7671 56H35.1712L33.0433 49.1243ZM45.7284 53.7923C45.7727 54.2356 45.9412 54.546 46.2338 54.7233C46.5264 54.9006 46.8766 54.9893 47.2844 54.9893C47.4263 54.9893 47.5859 54.9804 47.7632 54.9627C47.9494 54.9361 48.1223 54.8917 48.2819 54.8297C48.4415 54.7676 48.57 54.6789 48.6675 54.5637C48.7739 54.4396 48.8227 54.28 48.8138 54.0849C48.805 53.8899 48.734 53.7303 48.601 53.6061C48.4681 53.482 48.2952 53.3845 48.0824 53.3136C47.8785 53.2338 47.6435 53.1673 47.3775 53.1141C47.1115 53.0609 46.8411 53.0032 46.5663 52.9412C46.2825 52.8791 46.0077 52.8038 45.7417 52.7151C45.4846 52.6264 45.2496 52.5067 45.0369 52.356C44.8329 52.2053 44.6689 52.0147 44.5448 51.7841C44.4207 51.5448 44.3586 51.2522 44.3586 50.9064C44.3586 50.534 44.4473 50.2237 44.6246 49.9754C44.8108 49.7183 45.0413 49.5144 45.3161 49.3637C45.5999 49.2041 45.9102 49.0933 46.2471 49.0312C46.5929 48.9691 46.9209 48.9381 47.2312 48.9381C47.5859 48.9381 47.9228 48.978 48.242 49.0578C48.57 49.1287 48.8626 49.2484 49.1197 49.4169C49.3857 49.5853 49.6029 49.807 49.7714 50.0818C49.9487 50.3478 50.0595 50.6714 50.1039 51.0527H48.5213C48.4503 50.6892 48.2819 50.4454 48.0159 50.3212C47.7588 50.1971 47.4617 50.135 47.1248 50.135C47.0184 50.135 46.8899 50.1439 46.7392 50.1616C46.5973 50.1794 46.4599 50.2148 46.3269 50.268C46.2028 50.3124 46.0964 50.3833 46.0077 50.4808C45.919 50.5695 45.8747 50.6892 45.8747 50.8399C45.8747 51.0261 45.9368 51.1768 46.0609 51.2921C46.1939 51.4073 46.3623 51.5049 46.5663 51.5847C46.7791 51.6556 47.0184 51.7176 47.2844 51.7708C47.5504 51.824 47.8253 51.8817 48.109 51.9437C48.3838 52.0058 48.6542 52.0812 48.9202 52.1698C49.1862 52.2585 49.4212 52.3782 49.6251 52.5289C49.8379 52.6796 50.0063 52.8702 50.1305 53.1008C50.2635 53.3313 50.3299 53.615 50.3299 53.9519C50.3299 54.3598 50.2369 54.7055 50.0507 54.9893C49.8645 55.273 49.6207 55.5035 49.3192 55.6808C49.0266 55.8581 48.6986 55.9867 48.3351 56.0665C47.9716 56.1463 47.6125 56.1862 47.2578 56.1862C46.8234 56.1862 46.42 56.1374 46.0476 56.0399C45.6841 55.9424 45.3649 55.7961 45.0901 55.601C44.8241 55.3971 44.6113 55.1488 44.4517 54.8563C44.301 54.5548 44.2212 54.2002 44.2123 53.7923H45.7284Z" fill="#4E4E4E"/>
<g clip-path="url(#clip0_111_62)">
<path d="M31.5 36C38.4036 36 44 30.4036 44 23.5C44 16.5964 38.4036 11 31.5 11C24.5964 11 19 16.5964 19 23.5C19 30.4036 24.5964 36 31.5 36Z" fill="#D0FFF0"/>
<g opacity="0.6">
<path opacity="0.6" d="M28.4238 13.4414C28.347 13.4414 28.2744 13.4565 28.2047 13.4785C27.9843 13.1615 27.6185 12.9531 27.2031 12.9531C26.7877 12.9531 26.422 13.1615 26.2015 13.4785C26.1319 13.4565 26.0593 13.4414 25.9824 13.4414C25.5779 13.4414 25.25 13.7693 25.25 14.1738H29.1562C29.1562 13.7693 28.8283 13.4414 28.4238 13.4414Z" fill="white"/>
</g>
<g opacity="0.6">
<path opacity="0.6" d="M33.8438 18.0283C33.8438 17.6217 34.1733 17.2921 34.5799 17.2921C34.6413 17.2921 34.7 17.3018 34.7569 17.316C34.949 17.1085 35.2214 16.9767 35.5264 16.9767C36.1072 16.9767 36.5781 17.4475 36.5781 18.0283H33.8438Z" fill="white"/>
</g>
<path d="M21.3438 22.3281C21.3438 22.3281 25.6406 19.5938 26.0312 19.5938C26.4219 19.5938 27.9844 20.375 27.9844 20.375C27.9844 20.375 31.1094 18.8125 31.5 18.8125C31.8906 18.8125 35.0156 20.7656 35.0156 20.7656V22.7188H21.3438V22.3281Z" fill="#BFE8DC"/>
<path d="M19 23.5C19 30.4036 24.5964 36 31.5 36C38.4036 36 44 30.4036 44 23.5C44 23.2374 43.9892 22.9773 43.9732 22.7188H19.0268C19.0108 22.9773 19 23.2374 19 23.5Z" fill="#64AFC7"/>
<path d="M32.3138 30.3034C31.5651 29.8477 31.6627 29.6279 31.1094 29.4326C30.556 29.2373 29.2886 28.9586 28.9284 28.4154C28.6802 28.041 28.7632 27.5786 29.2864 27.5365C30.145 27.4673 30.6902 26.7878 31.3779 26.5395C31.8495 26.3693 32.4415 25.8846 31.9394 25.5996C31.4877 25.3433 30.7024 25.2415 30.7024 25.2415L30.499 26.2344L27.5205 27.6504L27.5449 28.9932C27.5449 28.9932 32.501 31.5322 32.623 31.5566C32.7141 31.5748 37.3011 32.5167 39.6261 32.9941C40.0382 32.641 40.4284 32.2632 40.7915 31.86C38.947 31.6571 32.9899 30.7149 32.3138 30.3034Z" fill="#82A5A0"/>
<path d="M42.0222 25.7457C42.389 26.0043 41.982 26.5599 41.0868 26.5924C39.7343 26.6416 33.9099 25.2444 35.911 24.5905C38.3482 23.7941 42.0222 25.7457 42.0222 25.7457Z" fill="#64C8D7"/>
<path d="M33.0625 23.1094H24.4688L25.1279 22.1328L29.7117 21.4276C29.828 21.4097 29.9468 21.4201 30.0582 21.4578L32.916 22.4258L33.0625 23.1094Z" fill="#AFD2C8"/>
<path d="M31.9233 23.207H25.9663L26.1046 22.7676L28.3515 22.4562C28.4971 22.436 28.6444 22.4316 28.7909 22.4432L30.0506 22.5427C30.2987 22.5623 30.5483 22.5361 30.787 22.4656L31.0775 22.3798C31.356 22.2975 31.649 22.2758 31.9366 22.3162L32.8917 22.4502L31.9233 23.207Z" fill="#84D27E"/>
<path d="M34.7226 19.3333C34.64 19.3476 31.6037 23.2267 31.9556 23.5651C32.6861 24.2676 41.4148 25.4543 43.7911 25.7662C43.9259 25.0308 43.9999 24.2742 43.9999 23.5C43.9999 20.2863 42.7862 17.3567 40.7933 15.1422C40.3134 15.0405 39.5566 15.1667 38.0917 15.9805C37.8057 16.1394 36.1874 19.0811 34.7226 19.3333Z" fill="#96BEB4"/>
<path d="M41.2864 25.4241L40.5332 18.2998C40.5332 18.2998 38.6534 19.8623 38.629 20.0332C38.6045 20.2041 38.2872 21.376 38.0918 21.4736C37.8965 21.5713 36.5782 22.1084 36.5782 22.3281C36.5782 22.5479 36.5457 23.6627 36.3829 23.8255C36.2242 23.9842 34.9852 23.9892 34.5308 24.3209C36.5027 24.7191 39.2081 25.1297 41.2864 25.4241Z" fill="#82A5A0"/>
<path d="M27.5356 21.0668L27.0003 22.9405L26.323 20.5703L25.8435 22.2488L25.0454 19.4554L24.1642 22.5398L22.89 18.0801L21.9518 21.3638L21.002 18.0394L20.3968 20.1573L19.9704 18.6648C19.3458 20.1522 19 21.7857 19 23.5C19 24.2929 19.0771 25.0674 19.2183 25.8193H28.8935L27.5356 21.0668Z" fill="#6EAA64"/>
<path d="M40.4546 32.2174C33.9089 32.5006 25.303 29.1993 27.9681 27.4225C29.14 26.6413 31.9829 26.3266 31.1094 25.4531C30.3281 24.6719 24.2734 22.8164 19.0354 22.6048C19.0145 22.9008 19 23.1986 19 23.5C19 30.4036 24.5964 36 31.5 36C35.0121 36 38.1839 34.5495 40.4546 32.2174Z" fill="#73BE6E"/>
<path d="M29.5469 25.917C29.5469 26.4707 27.8971 26.9156 27.9161 28.0324C27.9395 27.8136 28.0803 27.6027 28.375 27.4062C29.5469 26.625 31.9829 26.3266 31.1094 25.4531C30.3281 24.6719 24.2734 22.8164 19.0354 22.6048C19.0145 22.9008 19 23.1986 19 23.5C19 23.5682 19.0041 23.6354 19.0051 23.7034C24.306 23.9557 29.5469 25.0625 29.5469 25.917Z" fill="#84D27E"/>
<path d="M31.4998 36C35.0119 36 38.1837 34.5495 40.4544 32.2174C37.7373 32.1556 29.5228 31.7215 23.8175 28.3502C22.3852 27.5039 20.9529 25.9088 19.1743 25.5742C20.1628 31.4901 25.3033 36 31.4998 36Z" fill="#6EAA64"/>
<path d="M24.0249 19.1065L22.728 23.6455H25.3217L24.0249 19.1065Z" fill="#6EAA64"/>
<path d="M24.0254 19.1065L23.7012 20.2412L24.6738 23.6455H25.3222L24.0254 19.1065Z" fill="#73BE6E"/>
<path d="M22.0112 18.3405L20.2627 24.4603H23.7597L22.0112 18.3405Z" fill="#6EAA64"/>
<path d="M22.0109 18.3405L21.5737 19.8705L22.8851 24.4603H23.7594L22.0109 18.3405Z" fill="#73BE6E"/>
<path d="M37.929 15.9316C37.8114 15.9904 36.456 16.9814 36.2851 17.1768C36.1142 17.3721 36.2363 17.6406 36.1142 17.9092C36.0301 18.0942 35.4248 18.7889 35.0562 19.2032C34.8462 19.1046 34.6526 19.0381 34.5598 19.0729C34.2994 19.1706 30.914 23.5325 31.0442 23.5977C31.1744 23.6627 32.6229 23.9394 32.8183 23.8418C33.0136 23.7441 33.9413 21.6445 34.1854 21.6934C34.4296 21.7422 34.2343 23.5488 34.7714 23.1094C35.2256 22.7377 35.6728 20.5275 35.832 19.8611C36.0165 19.0892 36.631 18.0868 37.0988 17.5592C37.8638 16.6966 39.087 15.554 39.1333 15.4922C39.2066 15.3945 38.1406 15.8258 37.929 15.9316Z" fill="#AFD2C8"/>
<path d="M42.6741 17.8942C42.2753 17.1013 41.7933 16.358 41.2419 15.6726L37.896 24.9157C37.897 24.9158 37.8978 24.916 37.8988 24.9161C38.0685 24.9433 38.2384 24.9701 38.4081 24.9966C38.4131 24.9974 38.4182 24.9981 38.4232 24.9989C38.589 25.0248 38.7545 25.0504 38.9192 25.0757C38.9272 25.0769 38.9353 25.0781 38.9433 25.0793C39.103 25.1038 39.2621 25.128 39.42 25.1517C39.4344 25.1539 39.4487 25.156 39.4631 25.1582C39.6119 25.1805 39.7594 25.2025 39.9057 25.2242C39.929 25.2276 39.9523 25.2311 39.9755 25.2345C40.1152 25.2551 40.2533 25.2753 40.39 25.2952C40.4153 25.2989 40.4408 25.3026 40.466 25.3063C40.5988 25.3256 40.7295 25.3444 40.8587 25.363C40.8851 25.3667 40.9119 25.3706 40.9381 25.3744C41.0666 25.3928 41.1925 25.4107 41.3167 25.4283C41.3428 25.432 41.3696 25.4358 41.3955 25.4394C41.5271 25.4581 41.656 25.4761 41.7819 25.4937C41.792 25.4951 41.8026 25.4966 41.8126 25.498L42.6741 17.8942Z" fill="#BEE1EB"/>
<path d="M42.0528 16.8048C41.8448 16.4785 41.6205 16.164 41.3842 15.8591C41.1105 16.8226 40.4222 19.2778 40.5007 19.317C40.5983 19.3659 41.1842 17.9173 41.1842 17.9173L40.4844 22.2467L42.0528 16.8048Z" fill="white"/>
<path d="M42.4677 17.5099L40.7314 25.3447C40.7737 25.3508 40.8169 25.357 40.8587 25.363C40.8851 25.3668 40.9119 25.3707 40.9381 25.3744C41.0666 25.3928 41.1925 25.4108 41.3167 25.4283C41.3428 25.432 41.3696 25.4358 41.3955 25.4395C41.5271 25.4581 41.656 25.4762 41.7819 25.4938C41.792 25.4952 41.8026 25.4967 41.8126 25.4981L42.6742 17.8941C42.6087 17.764 42.5376 17.6374 42.4677 17.5099Z" fill="#A7DAE6"/>
<path d="M39.3286 24.7695C39.3286 24.7695 40.5331 20.0414 40.4354 19.9681C40.3377 19.8949 38.5962 24.5905 38.5962 24.5905L39.3286 24.7695Z" fill="#91D4E1"/>
<path d="M40.3867 25.0137L42.1131 16.904C42.0793 16.8498 42.048 16.794 42.0134 16.7404C41.3027 19.1439 39.5078 24.9649 39.5078 24.9649L40.3867 25.0137Z" fill="#91D4E1"/>
<path d="M41.1355 25.388L42.5387 17.6421C42.4876 17.5462 42.4379 17.4495 42.3844 17.3551C41.7999 19.6537 40.1792 25.2822 40.1792 25.2822L41.1355 25.388Z" fill="#91D4E1"/>
<path d="M41.2412 25.8438L36.9199 25.0625C36.9199 25.0625 37.099 24.5335 37.7256 24.6312C37.7256 24.6312 38.1 24.1917 38.5719 24.4033C38.5719 24.4033 39.2555 24.0045 39.5566 24.5254C39.5566 24.5254 40.0287 24.1999 40.3135 24.5905C40.3135 24.5905 41.5504 24.7451 41.2412 25.8438Z" fill="white"/>
<path d="M43.9508 22.4258C43.9508 22.4258 43.1554 22.3919 42.8931 22.4258C42.3885 22.4909 41.9653 22.735 41.6236 23.1094C41.2663 23.5007 40.4842 25.5508 40.647 25.7787C40.7785 25.9628 42.8651 26.2744 43.661 26.3872C43.8803 25.46 43.9998 24.4942 43.9998 23.5C43.9998 23.1378 43.981 22.7802 43.9508 22.4258Z" fill="#AFD2C8"/>
<path d="M40.9312 25.9004C41.555 26.0783 43.0224 26.2967 43.6609 26.3871C43.8802 25.4599 43.9998 24.4942 43.9998 23.5C43.9998 23.2727 43.9905 23.0477 43.9775 22.8237C43.3791 22.8068 42.6014 22.8041 42.5675 23.2558C42.5187 23.9069 42.485 24.6355 42.2095 24.7207C41.8147 24.8428 41.2288 25.1601 40.9312 25.9004Z" fill="#96BEB4"/>
<path d="M33.4568 24.2274C33.3617 24.4141 33.4696 24.6392 33.6752 24.6797C34.4803 24.8388 35.8231 25.1113 36.0021 24.9323C36.0712 24.8632 35.7969 22.6373 35.2272 22.6211C34.6575 22.6048 34.4134 22.6862 34.218 22.8815C34.0844 23.0152 33.6914 23.7666 33.4568 24.2274Z" fill="#96BEB4"/>
<path d="M35.2272 22.6211C34.6575 22.6048 34.4134 22.6862 34.2181 22.8815C34.0844 23.0152 33.6914 23.7665 33.4568 24.2274C33.3617 24.4141 33.4696 24.6392 33.6752 24.6797C33.7272 24.69 33.7829 24.7008 33.841 24.7119C33.8661 24.5956 33.8992 24.4582 33.9414 24.3138C34.0553 23.9231 34.4785 23.8581 34.6412 23.5163C34.7784 23.2281 35.1583 22.8969 35.5083 22.8283C35.4236 22.7031 35.3301 22.624 35.2272 22.6211Z" fill="#AFD2C8"/>
<path d="M43.2153 27.8643C37.6279 27.1865 34.568 26.3809 33.0869 25.6973C33.5589 26.5762 33.0951 27.0156 32.3789 27.7318C31.6597 28.451 36.9628 30.7145 37.693 30.2953C37.8263 30.2187 37.278 29.8558 37.5303 29.6768C37.8395 29.4573 40.3379 30.4824 41.4922 31.0101C42.2089 30.0581 42.792 29.0001 43.2153 27.8643Z" fill="#64C8D7"/>
<path d="M28.3751 27.4063C29.5469 26.625 31.9829 26.3266 31.1094 25.4531C30.9097 25.2534 30.3636 24.9832 29.5761 24.6884C30.3247 25.0735 30.4585 25.5344 30.2794 25.9088C30.1003 26.2832 29.2377 26.1856 28.7169 26.446C28.2676 26.6706 27.8706 27.0743 27.5124 27.3249C27.2592 27.5021 26.5337 27.7517 26.4219 27.9596C25.7473 29.2152 28.7224 30.6007 32.1062 31.6876C33.6825 32.1939 35.5428 32.2241 36.9688 32.5576C37.2709 32.6282 37.3669 33.1053 37.6444 33.1658C38.1736 33.2813 38.6525 33.3775 39.0595 33.4518C39.5546 33.0749 40.0213 32.6625 40.4547 32.2174C35.032 31.3613 31.8581 31.0684 29.0912 29.7174C28.3158 29.3389 28.3367 28.836 28.0984 28.4479C27.8608 28.0609 27.8754 27.7394 28.3751 27.4063Z" fill="#96BEB4"/>
<g opacity="0.6">
<path opacity="0.6" d="M35.6016 13.1484C35.5401 13.1484 35.482 13.1605 35.4263 13.1781C35.2499 12.9245 34.9573 12.7578 34.625 12.7578C34.2927 12.7578 34.0001 12.9245 33.8237 13.1781C33.768 13.1605 33.7099 13.1484 33.6484 13.1484C33.3249 13.1484 33.0625 13.4108 33.0625 13.7344H36.1875C36.1875 13.4108 35.9251 13.1484 35.6016 13.1484Z" fill="white"/>
</g>
<g opacity="0.6">
<path opacity="0.6" d="M26.8125 17.9824H29.1562C29.1562 17.7397 28.9595 17.543 28.7168 17.543C28.6707 17.543 28.6271 17.5521 28.5854 17.5652C28.4531 17.375 28.2336 17.25 27.9844 17.25C27.9334 17.25 27.8849 17.2584 27.8369 17.2684C27.759 17.198 27.6581 17.1523 27.5449 17.1523C27.4988 17.1523 27.4552 17.1614 27.4135 17.1746C27.2812 16.9844 27.0617 16.8594 26.8125 16.8594C26.5633 16.8594 26.3438 16.9844 26.2115 17.1746C26.1698 17.1614 26.1262 17.1523 26.0801 17.1523C25.8374 17.1523 25.6406 17.3491 25.6406 17.5918H27.0597C26.9146 17.6636 26.8125 17.8096 26.8125 17.9824Z" fill="white"/>
</g>
<path d="M29.7739 16.5618C29.7739 16.0728 30.1704 15.6764 30.6594 15.6764C30.7332 15.6764 30.8038 15.688 30.8723 15.7051C31.1034 15.4556 31.431 15.2969 31.7979 15.2969C32.4964 15.2969 33.0628 15.8632 33.0628 16.5618H29.7739Z" fill="white"/>
<path d="M22.123 15.239H28.3752C28.3752 14.5108 27.785 13.9206 27.0569 13.9206C26.9186 13.9206 26.7878 13.9479 26.6625 13.9874C26.2657 13.4168 25.6073 13.0417 24.8596 13.0417C24.7834 13.0417 24.7088 13.0481 24.6347 13.0558C23.7026 13.6697 22.8584 14.4048 22.123 15.239Z" fill="white"/>
</g>
<defs>
<clipPath id="clip0_111_62">
<rect width="25" height="25" fill="white" transform="translate(19 11)"/>
</clipPath>
</defs>
</svg>
