<svg width="35" height="35" viewBox="0 0 35 35" fill="none" xmlns="http://www.w3.org/2000/svg">
<g clip-path="url(#clip0)">
<path d="M17.5127 34.8223C26.9582 34.8223 34.6153 27.1652 34.6153 17.7197C34.6153 8.27426 26.9582 0.617188 17.5127 0.617188C8.06723 0.617188 0.410156 8.27426 0.410156 17.7197C0.410156 27.1652 8.06723 34.8223 17.5127 34.8223Z" fill="#D0FFF0"/>
<g opacity="0.6">
<path opacity="0.6" d="M13.3038 3.95762C13.1987 3.95762 13.0993 3.97833 13.004 4.00833C12.7024 3.57468 12.202 3.28955 11.6336 3.28955C11.0653 3.28955 10.5649 3.57468 10.2632 4.00833C10.168 3.97833 10.0686 3.95762 9.96347 3.95762C9.41004 3.95762 8.96136 4.40629 8.96136 4.95972H14.3059C14.3059 4.40629 13.8572 3.95762 13.3038 3.95762Z" fill="white"/>
</g>
<g opacity="0.6">
<path opacity="0.6" d="M20.7194 10.2333C20.7194 9.67702 21.1704 9.22607 21.7267 9.22607C21.8106 9.22607 21.8909 9.23937 21.9688 9.25874C22.2317 8.97488 22.6043 8.79443 23.0217 8.79443C23.8163 8.79443 24.4605 9.43865 24.4605 10.2333H20.7194Z" fill="white"/>
</g>
<path d="M3.61682 16.1165C3.61682 16.1165 9.49583 12.3753 10.0303 12.3753C10.5647 12.3753 12.7026 13.4442 12.7026 13.4442C12.7026 13.4442 16.9782 11.3064 17.5127 11.3064C18.0471 11.3064 22.3227 13.9787 22.3227 13.9787V16.6509H3.61682V16.1165Z" fill="#BFE8DC"/>
<path d="M0.410156 17.7198C0.410156 27.1653 8.06723 34.8223 17.5127 34.8223C26.9582 34.8223 34.6153 27.1653 34.6153 17.7198C34.6153 17.3604 34.6005 17.0047 34.5787 16.6509H0.446766C0.424921 17.0047 0.410156 17.3604 0.410156 17.7198Z" fill="#64AFC7"/>
<path d="M18.6262 27.0281C17.6017 26.4046 17.7354 26.104 16.9782 25.8368C16.2211 25.5695 14.4871 25.1883 13.9942 24.445C13.6546 23.9328 13.7682 23.3001 14.4841 23.2425C15.6587 23.1478 16.4048 22.2181 17.3456 21.8785C17.9909 21.6456 18.8008 20.9823 18.1139 20.5924C17.4959 20.2417 16.4215 20.1025 16.4215 20.1025L16.1432 21.4609L12.0679 23.3983L12.1013 25.2355C12.1013 25.2355 18.8822 28.7095 19.0492 28.7429C19.1738 28.7678 25.4497 30.0564 28.6308 30.7096C29.1947 30.2265 29.7286 29.7096 30.2253 29.1579C27.7017 28.8803 19.5512 27.5912 18.6262 27.0281Z" fill="#82A5A0"/>
<path d="M31.909 20.7924C32.4109 21.1462 31.8539 21.9063 30.6291 21.9509C28.7786 22.0181 20.8096 20.1064 23.5476 19.2118C26.8822 18.1221 31.909 20.7924 31.909 20.7924Z" fill="#64C8D7"/>
<path d="M19.6505 17.1855H7.89252L8.79441 15.8493L15.066 14.8845C15.225 14.86 15.3876 14.8742 15.54 14.9258L19.4501 16.2502L19.6505 17.1855Z" fill="#AFD2C8"/>
<path d="M18.0917 17.3189H9.94128L10.1305 16.7176L13.2047 16.2915C13.4039 16.264 13.6054 16.258 13.8059 16.2738L15.5295 16.4099C15.8689 16.4367 16.2104 16.401 16.537 16.3045L16.9345 16.1871C17.3155 16.0745 17.7163 16.0448 18.1098 16.1L19.4167 16.2834L18.0917 17.3189Z" fill="#84D27E"/>
<path d="M21.9219 12.019C21.809 12.0384 17.6546 17.3459 18.1362 17.8089C19.1357 18.7701 31.0783 20.3938 34.3296 20.8204C34.514 19.8143 34.6153 18.7791 34.6153 17.7198C34.6153 13.3228 32.9546 9.31452 30.2279 6.28463C29.5713 6.14554 28.5358 6.3181 26.5316 7.43157C26.1403 7.64896 23.9261 11.6738 21.9219 12.019Z" fill="#96BEB4"/>
<path d="M30.9025 20.3522L29.872 10.6047C29.872 10.6047 27.2999 12.7426 27.2665 12.9764C27.2331 13.2102 26.7989 14.8136 26.5317 14.9472C26.2644 15.0808 24.4606 15.8157 24.4606 16.1163C24.4606 16.4169 24.4161 17.9423 24.1934 18.1651C23.9763 18.3822 22.2811 18.389 21.6594 18.8429C24.3574 19.3877 28.0589 19.9494 30.9025 20.3522Z" fill="#82A5A0"/>
<path d="M12.0887 14.3906L11.3562 16.9543L10.4296 13.7113L9.77347 16.0078L8.68152 12.1859L7.47579 16.4059L5.73246 10.3042L4.44883 14.7969L3.14924 10.2485L2.3213 13.1463L1.73781 11.1041C0.883283 13.1393 0.410156 15.3742 0.410156 17.7197C0.410156 18.8046 0.515711 19.8643 0.708783 20.8931H13.9465L12.0887 14.3906Z" fill="#6EAA64"/>
<path d="M29.7645 29.6469C20.8086 30.0344 9.03399 25.5175 12.6804 23.0865C14.2837 22.0176 18.1734 21.587 16.9783 20.392C15.9094 19.3231 7.6253 16.7844 0.458658 16.4949C0.429931 16.8999 0.410156 17.3074 0.410156 17.7197C0.410156 27.1652 8.06723 34.8223 17.5127 34.8223C22.318 34.8223 26.6577 32.8377 29.7645 29.6469Z" fill="#73BE6E"/>
<path d="M14.8404 21.0267C14.8404 21.7843 12.5832 22.393 12.6092 23.921C12.6412 23.6216 12.8339 23.3331 13.2371 23.0643C14.8404 21.9954 18.1734 21.587 16.9783 20.392C15.9094 19.3231 7.6253 16.7844 0.458658 16.4949C0.429931 16.8999 0.410156 17.3074 0.410156 17.7197C0.410156 17.813 0.415701 17.905 0.417171 17.998C7.66986 18.3432 14.8404 19.8575 14.8404 21.0267Z" fill="#84D27E"/>
<path d="M17.5128 34.8222C22.3181 34.8222 26.6578 32.8377 29.7646 29.6468C26.047 29.5623 14.8078 28.9684 7.00185 24.3558C5.04214 23.1978 3.08249 21.0154 0.648987 20.5576C2.00143 28.6517 9.03465 34.8222 17.5128 34.8222Z" fill="#6EAA64"/>
<path d="M7.28581 11.7085L5.51141 17.9187H9.06013L7.28581 11.7085Z" fill="#6EAA64"/>
<path d="M7.2857 11.7085L6.8421 13.261L8.17282 17.9187H9.06002L7.2857 11.7085Z" fill="#73BE6E"/>
<path d="M4.52987 10.6606L2.13751 19.0338H6.92215L4.52987 10.6606Z" fill="#6EAA64"/>
<path d="M4.52995 10.6606L3.93182 12.754L5.72606 19.0338H6.92224L4.52995 10.6606Z" fill="#73BE6E"/>
<path d="M26.3089 7.3647C26.1481 7.44514 24.2936 8.80105 24.0598 9.06827C23.8259 9.3355 23.9929 9.70294 23.8259 10.0704C23.7109 10.3235 22.8826 11.274 22.3783 11.8409C22.091 11.7059 21.8261 11.615 21.6992 11.6626C21.3429 11.7962 16.7109 17.7643 16.8891 17.8534C17.0673 17.9424 19.0492 18.321 19.3164 18.1874C19.5836 18.0538 20.853 15.1811 21.187 15.2479C21.521 15.3147 21.2538 17.7866 21.9887 17.1853C22.6101 16.6768 23.222 13.6528 23.4399 12.741C23.6922 11.6849 24.533 10.3134 25.1731 9.59157C26.2198 8.4113 27.8933 6.84795 27.9567 6.76344C28.057 6.62982 26.5984 7.21993 26.3089 7.3647Z" fill="#AFD2C8"/>
<path d="M32.8012 10.0498C32.2556 8.96502 31.5961 7.94795 30.8417 7.01025L26.2638 19.6567C26.2651 19.6569 26.2663 19.6571 26.2676 19.6573C26.4998 19.6944 26.7322 19.7311 26.9644 19.7674C26.9713 19.7684 26.9782 19.7695 26.9851 19.7706C27.212 19.806 27.4384 19.841 27.6638 19.8756C27.6748 19.8773 27.6857 19.8789 27.6967 19.8806C27.9152 19.9141 28.1329 19.9471 28.349 19.9796C28.3687 19.9825 28.3883 19.9855 28.408 19.9884C28.6115 20.019 28.8133 20.0491 29.0134 20.0787C29.0454 20.0835 29.0773 20.0882 29.109 20.0928C29.3001 20.121 29.4891 20.1487 29.6761 20.1759C29.7107 20.181 29.7456 20.1861 29.7801 20.1911C29.9618 20.2175 30.1406 20.2433 30.3174 20.2687C30.3534 20.2738 30.3901 20.2792 30.426 20.2842C30.6018 20.3094 30.7741 20.3339 30.9441 20.358C30.9798 20.3631 31.0164 20.3683 31.0518 20.3733C31.232 20.3987 31.4082 20.4235 31.5805 20.4475C31.5943 20.4495 31.6088 20.4515 31.6225 20.4534L32.8012 10.0498Z" fill="#BEE1EB"/>
<path d="M31.9511 8.5593C31.6665 8.11289 31.3596 7.68259 31.0363 7.26538C30.6619 8.58368 29.7201 11.9429 29.8275 11.9966C29.9611 12.0634 30.7627 10.0815 30.7627 10.0815L29.8052 16.005L31.9511 8.5593Z" fill="white"/>
<path d="M32.5187 9.52393L30.1431 20.2436C30.2009 20.2519 30.26 20.2605 30.3173 20.2687C30.3533 20.2738 30.39 20.2792 30.4259 20.2842C30.6016 20.3094 30.774 20.3339 30.9439 20.358C30.9796 20.3631 31.0163 20.3683 31.0516 20.3733C31.2318 20.3988 31.408 20.4235 31.5803 20.4475C31.5942 20.4495 31.6087 20.4515 31.6224 20.4534L32.8012 10.0497C32.7117 9.87166 32.6143 9.69836 32.5187 9.52393Z" fill="#A7DAE6"/>
<path d="M28.224 19.457C28.224 19.457 29.872 12.9878 29.7383 12.8876C29.6047 12.7874 27.2219 19.212 27.2219 19.212L28.224 19.457Z" fill="#91D4E1"/>
<path d="M29.6716 19.7909L32.0337 8.69517C31.9874 8.62108 31.9446 8.54472 31.8973 8.47144C30.9249 11.7599 28.4691 19.7241 28.4691 19.7241L29.6716 19.7909Z" fill="#91D4E1"/>
<path d="M30.6959 20.303L32.6158 9.70501C32.5459 9.57381 32.4779 9.44139 32.4047 9.31226C31.605 12.4572 29.3876 20.1582 29.3876 20.1582L30.6959 20.303Z" fill="#91D4E1"/>
<path d="M30.8406 20.9266L24.9282 19.8577C24.9282 19.8577 25.1732 19.1339 26.0305 19.2676C26.0305 19.2676 26.5427 18.6663 27.1885 18.9558C27.1885 18.9558 28.1238 18.4102 28.5358 19.1228C28.5358 19.1228 29.1816 18.6774 29.5713 19.2118C29.5713 19.2118 31.2637 19.4234 30.8406 20.9266Z" fill="white"/>
<path d="M34.5483 16.2501C34.5483 16.2501 33.4599 16.2038 33.1011 16.2501C32.4107 16.3391 31.8317 16.6732 31.3641 17.1854C30.8753 17.7208 29.8052 20.5257 30.028 20.8375C30.2079 21.0894 33.0628 21.5157 34.1517 21.67C34.4517 20.4014 34.6153 19.0801 34.6153 17.7198C34.6153 17.2242 34.5895 16.735 34.5483 16.2501Z" fill="#AFD2C8"/>
<path d="M30.4167 21.004C31.2703 21.2475 33.2779 21.5462 34.1515 21.67C34.4516 20.4014 34.6152 19.0801 34.6152 17.7198C34.6152 17.4088 34.6025 17.1011 34.5847 16.7945C33.7659 16.7714 32.7019 16.7678 32.6555 17.3858C32.5887 18.2765 32.5426 19.2734 32.1657 19.39C31.6256 19.557 30.8239 19.9913 30.4167 21.004Z" fill="#96BEB4"/>
<path d="M20.1899 18.7149C20.0599 18.9703 20.2076 19.2783 20.4888 19.3338C21.5903 19.5514 23.4276 19.9243 23.6725 19.6794C23.767 19.5849 23.3917 16.5394 22.6122 16.5172C21.8328 16.4949 21.4988 16.6062 21.2315 16.8735C21.0487 17.0564 20.511 18.0845 20.1899 18.7149Z" fill="#96BEB4"/>
<path d="M22.6122 16.5172C21.8328 16.4949 21.4988 16.6062 21.2315 16.8735C21.0486 17.0564 20.5109 18.0844 20.1899 18.7149C20.0598 18.9703 20.2075 19.2783 20.4887 19.3338C20.5599 19.3478 20.6361 19.3627 20.7156 19.3778C20.75 19.2188 20.7953 19.0307 20.8529 18.8331C21.0088 18.2986 21.5878 18.2096 21.8105 17.7419C21.9982 17.3476 22.5179 16.8945 22.9968 16.8007C22.881 16.6293 22.753 16.5212 22.6122 16.5172Z" fill="#AFD2C8"/>
<path d="M33.5417 23.691C25.897 22.7637 21.7104 21.6614 19.6839 20.7261C20.3297 21.9286 19.6951 22.5299 18.7152 23.5097C17.7312 24.4938 24.9869 27.5907 25.986 27.0171C26.1684 26.9123 25.4182 26.4158 25.7633 26.1708C26.1864 25.8705 29.6047 27.2732 31.1841 27.9951C32.1646 26.6925 32.9625 25.2451 33.5417 23.691Z" fill="#64C8D7"/>
<path d="M13.237 23.0645C14.8403 21.9956 18.1733 21.5873 16.9782 20.3922C16.7048 20.1189 15.9577 19.7493 14.8803 19.3459C15.9044 19.8729 16.0875 20.5034 15.8424 21.0157C15.5975 21.5279 14.4172 21.3943 13.7046 21.7506C13.0899 22.0579 12.5468 22.6103 12.0567 22.9531C11.7102 23.1956 10.7175 23.5371 10.5647 23.8216C9.64162 25.5395 13.7122 27.4351 18.3419 28.9222C20.4986 29.615 23.0439 29.6563 24.995 30.1125C25.4083 30.2092 25.5396 30.8619 25.9193 30.9448C26.6434 31.1027 27.2986 31.2344 27.8554 31.336C28.5329 30.8204 29.1714 30.256 29.7643 29.6471C22.345 28.4758 18.0025 28.075 14.2168 26.2267C13.1559 25.7087 13.1845 25.0207 12.8584 24.4897C12.5333 23.9602 12.5533 23.5203 13.237 23.0645Z" fill="#96BEB4"/>
<g opacity="0.6">
<path opacity="0.6" d="M23.1245 3.55667C23.0404 3.55667 22.9609 3.57324 22.8847 3.59722C22.6433 3.2503 22.243 3.02222 21.7883 3.02222C21.3337 3.02222 20.9333 3.2503 20.692 3.59722C20.6158 3.57324 20.5363 3.55667 20.4522 3.55667C20.0095 3.55667 19.6505 3.91563 19.6505 4.35835H23.9262C23.9262 3.91563 23.5672 3.55667 23.1245 3.55667Z" fill="white"/>
</g>
<g opacity="0.6">
<path opacity="0.6" d="M11.0993 10.1706H14.306C14.306 9.83849 14.0368 9.56933 13.7047 9.56933C13.6417 9.56933 13.582 9.58176 13.5249 9.59979C13.3439 9.33958 13.0436 9.16849 12.7026 9.16849C12.633 9.16849 12.5665 9.18005 12.5009 9.19361C12.3943 9.09741 12.2562 9.03487 12.1014 9.03487C12.0383 9.03487 11.9787 9.0473 11.9215 9.06534C11.7406 8.80513 11.4403 8.63403 11.0993 8.63403C10.7583 8.63403 10.458 8.80513 10.277 9.06534C10.2199 9.0473 10.1602 9.03487 10.0972 9.03487C9.76508 9.03487 9.49591 9.30404 9.49591 9.63614H11.4375C11.239 9.73434 11.0993 9.93416 11.0993 10.1706Z" fill="white"/>
</g>
<path d="M15.1507 8.22721C15.1507 7.55814 15.6931 7.01574 16.3622 7.01574C16.4632 7.01574 16.5597 7.03171 16.6535 7.05502C16.9697 6.71364 17.4179 6.49658 17.9199 6.49658C18.8757 6.49652 19.6505 7.27134 19.6505 8.22721H15.1507Z" fill="white"/>
<path d="M4.68274 6.4172H13.237C13.237 5.42097 12.4295 4.61341 11.4332 4.61341C11.244 4.61341 11.0651 4.65069 10.8937 4.70474C10.3507 3.92417 9.44988 3.41089 8.42693 3.41089C8.32264 3.41089 8.22063 3.41971 8.11915 3.43013C6.84394 4.27009 5.68892 5.27594 4.68274 6.4172Z" fill="white"/>
</g>
<defs>
<clipPath id="clip0">
<rect width="34.2051" height="34.2051" fill="white" transform="translate(0.410156 0.617188)"/>
</clipPath>
</defs>
</svg>
